<svg width="48" height="36" viewBox="0 0 48 36" fill="none" xmlns="http://www.w3.org/2000/svg">
<g clip-path="url(#clip0_763_57485)">
<path d="M0 0H48V36H0V0Z" fill="#EE1C25"/>
<path d="M5.76001 13.32L8.99997 3.59998L12.2399 13.32L3.60004 7.37998H14.3999L5.76001 13.32Z" fill="#FFFF00"/>
<path d="M19.8128 3.78627L16.4785 4.52518L18.7026 1.93343L18.4845 5.42159L16.6342 2.33352L19.8128 3.78627Z" fill="#FFFF00"/>
<path d="M23.1779 8.05107L19.818 7.43895L22.8732 5.91267L21.3193 9.04319L20.8115 5.4792L23.1779 8.05107Z" fill="#FFFF00"/>
<path d="M22.6875 14.0343L19.8694 12.1051L23.2814 11.9576L20.5859 14.1822L21.5757 10.7209L22.6875 14.0343Z" fill="#FFFF00"/>
<path d="M18.4492 17.9431L16.5948 15.0751L19.7991 16.2569L16.4535 17.2677L18.7034 14.4574L18.4492 17.9431Z" fill="#FFFF00"/>
</g>
<defs>
<clipPath id="clip0_763_57485">
<rect width="48" height="36" fill="white"/>
</clipPath>
</defs>
</svg>
