<svg width="48" height="36" viewBox="0 0 48 36" fill="none" xmlns="http://www.w3.org/2000/svg">
<g clip-path="url(#clip0_763_57555)">
<path d="M0 0H48V12H0V0Z" fill="#FF9933"/>
<path d="M0 12H48V24H0V12Z" fill="white"/>
<path d="M0 24H48V36H0V24Z" fill="#128807"/>
<path d="M24 22.8C26.651 22.8 28.8 20.6509 28.8 18C28.8 15.349 26.651 13.2 24 13.2C21.349 13.2 19.2 15.349 19.2 18C19.2 20.6509 21.349 22.8 24 22.8Z" fill="#000088"/>
<path d="M24 22.2C26.3196 22.2 28.2 20.3196 28.2 18C28.2 15.6805 26.3196 13.8 24 13.8C21.6805 13.8 19.8 15.6805 19.8 18C19.8 20.3196 21.6805 22.2 24 22.2Z" fill="white"/>
<path d="M24 18.84C24.464 18.84 24.84 18.464 24.84 18C24.84 17.5361 24.464 17.16 24 17.16C23.5361 17.16 23.16 17.5361 23.16 18C23.16 18.464 23.5361 18.84 24 18.84Z" fill="#000088"/>
<path d="M28.1359 18.7639C28.2541 18.7794 28.3626 18.6962 28.3782 18.5779C28.3938 18.4596 28.3105 18.3511 28.1922 18.3356C28.074 18.32 27.9655 18.4033 27.9499 18.5215C27.9343 18.6398 28.0176 18.7483 28.1359 18.7639Z" fill="#000088"/>
<path d="M24 22.2L24.144 19.68L24 18.48L23.856 19.68L24 22.2Z" fill="#000088"/>
<path d="M27.7971 19.8083C27.9073 19.854 28.0337 19.8016 28.0793 19.6914C28.125 19.5812 28.0726 19.4548 27.9624 19.4092C27.8522 19.3635 27.7259 19.4159 27.6802 19.5261C27.6346 19.6363 27.6869 19.7627 27.7971 19.8083Z" fill="#000088"/>
<path d="M22.9129 22.0569L23.7042 19.66L23.8757 18.4637L23.4261 19.5855L22.9129 22.0569Z" fill="#000088"/>
<path d="M27.1997 20.7295C27.2943 20.8021 27.4299 20.7842 27.5026 20.6896C27.5752 20.595 27.5573 20.4594 27.4627 20.3867C27.368 20.3141 27.2324 20.332 27.1598 20.4266C27.0872 20.5213 27.1051 20.6568 27.1997 20.7295Z" fill="#000088"/>
<path d="M21.9 21.6374L23.2847 19.527L23.76 18.4158L23.0353 19.383L21.9 21.6374Z" fill="#000088"/>
<path d="M26.3843 21.4646C26.4569 21.5593 26.5925 21.5771 26.6871 21.5045C26.7818 21.4319 26.7996 21.2963 26.727 21.2016C26.6544 21.107 26.5188 21.0891 26.4242 21.1618C26.3295 21.2344 26.3117 21.37 26.3843 21.4646Z" fill="#000088"/>
<path d="M21.0302 20.9698L22.9139 19.2897L23.6606 18.3394L22.7102 19.0861L21.0302 20.9698Z" fill="#000088"/>
<path d="M25.4063 21.9636C25.452 22.0738 25.5783 22.1262 25.6885 22.0805C25.7988 22.0349 25.8511 21.9085 25.8054 21.7983C25.7598 21.6881 25.6334 21.6358 25.5232 21.6814C25.413 21.7271 25.3607 21.8534 25.4063 21.9636Z" fill="#000088"/>
<path d="M20.3627 20.1001L22.6171 18.9648L23.5843 18.2401L22.4731 18.7154L20.3627 20.1001Z" fill="#000088"/>
<path d="M24.3325 22.1925C24.3481 22.3108 24.4566 22.3941 24.5748 22.3785C24.6931 22.3629 24.7764 22.2544 24.7608 22.1361C24.7452 22.0179 24.6367 21.9346 24.5185 21.9502C24.4002 21.9658 24.3169 22.0743 24.3325 22.1925Z" fill="#000088"/>
<path d="M19.9431 19.087L22.4145 18.5739L23.5364 18.1242L22.34 18.2957L19.9431 19.087Z" fill="#000088"/>
<path d="M23.2361 22.1358C23.2206 22.2541 23.3038 22.3626 23.4221 22.3781C23.5404 22.3937 23.6489 22.3105 23.6644 22.1922C23.68 22.0739 23.5967 21.9654 23.4785 21.9498C23.3602 21.9343 23.2517 22.0175 23.2361 22.1358Z" fill="#000088"/>
<path d="M19.8001 18L22.3201 18.144L23.5201 18L22.3201 17.856L19.8001 18Z" fill="#000088"/>
<path d="M22.1917 21.7972C22.146 21.9074 22.1984 22.0337 22.3086 22.0794C22.4188 22.125 22.5452 22.0727 22.5908 21.9625C22.6365 21.8523 22.5841 21.7259 22.4739 21.6803C22.3637 21.6346 22.2373 21.687 22.1917 21.7972Z" fill="#000088"/>
<path d="M19.9432 16.913L22.34 17.7043L23.5364 17.8758L22.4146 17.4261L19.9432 16.913Z" fill="#000088"/>
<path d="M21.2705 21.1998C21.1979 21.2944 21.2158 21.43 21.3104 21.5026C21.405 21.5752 21.5406 21.5574 21.6133 21.4627C21.6859 21.3681 21.668 21.2325 21.5734 21.1599C21.4787 21.0873 21.3432 21.1051 21.2705 21.1998Z" fill="#000088"/>
<path d="M20.3628 15.9L22.4731 17.2847L23.5844 17.76L22.6171 17.0353L20.3628 15.9Z" fill="#000088"/>
<path d="M20.5354 20.3842C20.4407 20.4568 20.4229 20.5924 20.4955 20.6871C20.5681 20.7817 20.7037 20.7996 20.7984 20.727C20.893 20.6543 20.9109 20.5187 20.8382 20.4241C20.7656 20.3295 20.63 20.3116 20.5354 20.3842Z" fill="#000088"/>
<path d="M21.0302 15.0301L22.7103 16.9138L23.6606 17.6605L22.9139 16.7102L21.0302 15.0301Z" fill="#000088"/>
<path d="M20.0362 19.4063C19.926 19.452 19.8737 19.5783 19.9193 19.6885C19.965 19.7988 20.0914 19.8511 20.2016 19.8054C20.3118 19.7598 20.3641 19.6334 20.3185 19.5232C20.2728 19.413 20.1465 19.3607 20.0362 19.4063Z" fill="#000088"/>
<path d="M21.8999 14.3627L23.0352 16.6171L23.7599 17.5843L23.2846 16.4731L21.8999 14.3627Z" fill="#000088"/>
<path d="M19.8074 18.3326C19.6891 18.3481 19.6059 18.4566 19.6214 18.5749C19.637 18.6932 19.7455 18.7764 19.8638 18.7609C19.9821 18.7453 20.0653 18.6368 20.0497 18.5185C20.0342 18.4002 19.9257 18.317 19.8074 18.3326Z" fill="#000088"/>
<path d="M22.9129 13.9432L23.4261 16.4146L23.8757 17.5364L23.7042 16.34L22.9129 13.9432Z" fill="#000088"/>
<path d="M19.8642 17.2361C19.7459 17.2206 19.6374 17.3038 19.6219 17.4221C19.6063 17.5404 19.6895 17.6489 19.8078 17.6644C19.9261 17.68 20.0346 17.5967 20.0502 17.4785C20.0657 17.3602 19.9825 17.2517 19.8642 17.2361Z" fill="#000088"/>
<path d="M24 13.8L23.856 16.32L24 17.52L24.144 16.32L24 13.8Z" fill="#000088"/>
<path d="M20.2029 16.1917C20.0927 16.146 19.9664 16.1984 19.9207 16.3086C19.8751 16.4188 19.9274 16.5452 20.0376 16.5908C20.1478 16.6365 20.2742 16.5841 20.3198 16.4739C20.3655 16.3637 20.3132 16.2373 20.2029 16.1917Z" fill="#000088"/>
<path d="M25.0871 13.9431L24.2958 16.34L24.1243 17.5363L24.574 16.4145L25.0871 13.9431Z" fill="#000088"/>
<path d="M20.8004 15.2705C20.7057 15.1979 20.5701 15.2158 20.4975 15.3104C20.4249 15.405 20.4427 15.5406 20.5374 15.6133C20.632 15.6859 20.7676 15.668 20.8402 15.5734C20.9129 15.4787 20.895 15.3432 20.8004 15.2705Z" fill="#000088"/>
<path d="M26.1001 14.3628L24.7154 16.4731L24.2401 17.5844L24.9648 16.6171L26.1001 14.3628Z" fill="#000088"/>
<path d="M21.6158 14.5354C21.5432 14.4407 21.4076 14.4229 21.3129 14.4955C21.2183 14.5681 21.2004 14.7037 21.273 14.7984C21.3457 14.893 21.4813 14.9109 21.5759 14.8382C21.6705 14.7656 21.6884 14.63 21.6158 14.5354Z" fill="#000088"/>
<path d="M26.9699 15.0302L25.0862 16.7103L24.3395 17.6606L25.2898 16.9139L26.9699 15.0302Z" fill="#000088"/>
<path d="M22.5937 14.0364C22.548 13.9262 22.4217 13.8738 22.3115 13.9195C22.2012 13.9651 22.1489 14.0915 22.1946 14.2017C22.2402 14.3119 22.3666 14.3642 22.4768 14.3186C22.587 14.2729 22.6393 14.1466 22.5937 14.0364Z" fill="#000088"/>
<path d="M27.6373 15.8999L25.3829 17.0352L24.4157 17.7599L25.5269 17.2846L27.6373 15.8999Z" fill="#000088"/>
<path d="M23.6675 13.8075C23.6519 13.6892 23.5434 13.6059 23.4252 13.6215C23.3069 13.6371 23.2236 13.7456 23.2392 13.8639C23.2548 13.9821 23.3633 14.0654 23.4815 14.0498C23.5998 14.0342 23.6831 13.9257 23.6675 13.8075Z" fill="#000088"/>
<path d="M28.0569 16.913L25.5855 17.4261L24.4636 17.8758L25.66 17.7043L28.0569 16.913Z" fill="#000088"/>
<path d="M24.7639 13.8642C24.7794 13.7459 24.6962 13.6374 24.5779 13.6219C24.4596 13.6063 24.3511 13.6895 24.3356 13.8078C24.32 13.9261 24.4033 14.0346 24.5215 14.0502C24.6398 14.0657 24.7483 13.9825 24.7639 13.8642Z" fill="#000088"/>
<path d="M28.1999 18L25.6799 17.856L24.4799 18L25.6799 18.144L28.1999 18Z" fill="#000088"/>
<path d="M25.8083 14.2028C25.854 14.0926 25.8016 13.9663 25.6914 13.9206C25.5812 13.875 25.4548 13.9273 25.4092 14.0375C25.3635 14.1477 25.4159 14.2741 25.5261 14.3197C25.6363 14.3654 25.7627 14.313 25.8083 14.2028Z" fill="#000088"/>
<path d="M28.0568 19.087L25.66 18.2957L24.4636 18.1242L25.5854 18.5739L28.0568 19.087Z" fill="#000088"/>
<path d="M26.7295 14.8002C26.8022 14.7056 26.7843 14.57 26.6897 14.4974C26.595 14.4248 26.4594 14.4426 26.3868 14.5373C26.3142 14.6319 26.332 14.7675 26.4267 14.8401C26.5213 14.9127 26.6569 14.8949 26.7295 14.8002Z" fill="#000088"/>
<path d="M27.6374 20.1L25.527 18.7153L24.4158 18.24L25.383 18.9647L27.6374 20.1Z" fill="#000088"/>
<path d="M27.4646 15.6158C27.5593 15.5432 27.5771 15.4076 27.5045 15.3129C27.4319 15.2183 27.2963 15.2004 27.2016 15.273C27.107 15.3457 27.0891 15.4813 27.1618 15.5759C27.2344 15.6705 27.37 15.6884 27.4646 15.6158Z" fill="#000088"/>
<path d="M26.9698 20.9699L25.2897 19.0862L24.3394 18.3395L25.0861 19.2898L26.9698 20.9699Z" fill="#000088"/>
<path d="M27.9636 16.5937C28.0738 16.548 28.1262 16.4217 28.0805 16.3115C28.0349 16.2012 27.9085 16.1489 27.7983 16.1946C27.6881 16.2402 27.6358 16.3666 27.6814 16.4768C27.7271 16.587 27.8534 16.6393 27.9636 16.5937Z" fill="#000088"/>
<path d="M26.0999 21.6373L24.9646 19.3829L24.2399 18.4157L24.7152 19.5269L26.0999 21.6373Z" fill="#000088"/>
<path d="M28.1926 17.6674C28.3109 17.6519 28.3941 17.5434 28.3786 17.4251C28.363 17.3068 28.2545 17.2236 28.1362 17.2391C28.0179 17.2547 27.9347 17.3632 27.9503 17.4815C27.9658 17.5998 28.0743 17.683 28.1926 17.6674Z" fill="#000088"/>
<path d="M25.0871 22.057L24.5739 19.5855L24.1243 18.4637L24.2958 19.6601L25.0871 22.057Z" fill="#000088"/>
</g>
<defs>
<clipPath id="clip0_763_57555">
<rect width="48" height="36" fill="white"/>
</clipPath>
</defs>
</svg>
