<svg width="48" height="36" viewBox="0 0 48 36" fill="none" xmlns="http://www.w3.org/2000/svg">
<g clip-path="url(#clip0_763_57532)">
<mask id="mask0_763_57532" style="mask-type:luminance" maskUnits="userSpaceOnUse" x="-1" y="0" width="50" height="37">
<path d="M-0.000915527 0.00183105H48.0014V36.0018H-0.000915527V0.00183105Z" fill="white"/>
</mask>
<g mask="url(#mask0_763_57532)">
<path fill-rule="evenodd" clip-rule="evenodd" d="M-0.000915527 0.00183105H48.0085V36.0018H-0.000915527V0.00183105Z" fill="white"/>
<path fill-rule="evenodd" clip-rule="evenodd" d="M5.25891 10.936L10.2525 3.44845L11.5004 4.28071L6.50684 11.7683L5.25891 10.936ZM7.13081 12.1844L12.1244 4.69685L13.3723 5.52911L8.37874 13.0167L7.13081 12.1844ZM9.00271 13.4328L13.9963 5.94525L15.2442 6.77751L10.2506 14.2651L9.00271 13.4328Z" fill="#000001"/>
<path fill-rule="evenodd" clip-rule="evenodd" d="M32.7134 29.246L37.707 21.7584L38.9549 22.5906L33.9613 30.0782L32.7134 29.246ZM34.5853 30.4944L39.5789 23.0068L40.8268 23.839L35.8332 31.3266L34.5853 30.4944ZM36.4572 31.7428L41.4508 24.2552L42.6987 25.0874L37.7051 32.575L36.4572 31.7428Z" fill="#000001"/>
<path fill-rule="evenodd" clip-rule="evenodd" d="M34.5862 25.0861L40.8259 29.2474Z" fill="black"/>
<path d="M34.5862 25.0861L40.8259 29.2474" stroke="white" stroke-width="0.75"/>
<path fill-rule="evenodd" clip-rule="evenodd" d="M16.4912 13.0182C17.8156 11.0324 19.8746 9.65397 22.2153 9.18626C24.556 8.71854 26.9866 9.19981 28.9724 10.5242C30.9582 11.8486 32.3366 13.9076 32.8043 16.2483C33.272 18.589 32.7908 21.0196 31.4664 23.0054L16.4912 13.0182Z" fill="#CD2E3A"/>
<path fill-rule="evenodd" clip-rule="evenodd" d="M16.4912 13.0181C15.1668 15.004 14.6856 17.4346 15.1533 19.7753C15.621 22.1159 16.9994 24.175 18.9852 25.4993C20.971 26.8237 23.4016 27.305 25.7423 26.8373C28.083 26.3696 30.142 24.9912 31.4664 23.0054C32.1286 22.0124 32.3692 20.7971 32.1354 19.6268C31.9015 18.4565 31.2123 17.4269 30.2194 16.7648C29.2265 16.1026 28.0112 15.8619 26.8408 16.0958C25.6705 16.3296 24.641 17.0188 23.9788 18.0117L16.4912 13.0181Z" fill="#0047A0"/>
<path d="M23.9788 18.0118C25.3577 15.9441 24.7994 13.1501 22.7318 11.7712C20.6641 10.3922 17.8701 10.9505 16.4912 13.0182C15.1122 15.0858 15.6705 17.8798 17.7382 19.2588C19.8058 20.6377 22.5998 20.0794 23.9788 18.0118Z" fill="#CD2E3A"/>
<path fill-rule="evenodd" clip-rule="evenodd" d="M10.2731 32.5779L5.27953 25.0903L6.52746 24.258L11.5211 31.7456L10.2731 32.5779ZM12.145 31.3295L7.15143 23.8419L8.39936 23.0096L13.393 30.4972L12.145 31.3295ZM14.0169 30.0811L9.02333 22.5935L10.2713 21.7612L15.2649 29.2488L14.0169 30.0811Z" fill="#000001"/>
<path fill-rule="evenodd" clip-rule="evenodd" d="M37.7276 14.2679L32.734 6.78035L33.9819 5.94809L38.9755 13.4357L37.7276 14.2679ZM39.5995 13.0195L34.6059 5.53195L35.8538 4.69969L40.8474 12.1873L39.5995 13.0195ZM41.4714 11.7711L36.4778 4.28355L37.7257 3.45129L42.7193 10.9389L41.4714 11.7711Z" fill="#000001"/>
<path fill-rule="evenodd" clip-rule="evenodd" d="M9.33624 27.7937L11.2081 26.5453ZM34.6069 10.9403L36.7907 9.48383ZM38.6626 8.23543L40.5345 6.98703Z" fill="black"/>
<path d="M9.33624 27.7937L11.2081 26.5453M34.6069 10.9403L36.7907 9.48383M38.6626 8.23543L40.5345 6.98703" stroke="white" stroke-width="0.75"/>
</g>
</g>
<defs>
<clipPath id="clip0_763_57532">
<rect width="48" height="36" fill="white"/>
</clipPath>
</defs>
</svg>
