<svg width="48" height="36" viewBox="0 0 48 36" fill="none" xmlns="http://www.w3.org/2000/svg">
<g clip-path="url(#clip0_763_57656)">
<path d="M19.2 0H48V36H19.2V0Z" fill="#FF0000"/>
<path d="M0 0H19.2V36H0V0Z" fill="#006600"/>
<path fill-rule="evenodd" clip-rule="evenodd" d="M25.4625 22.965C23.04 22.89 11.9625 15.975 11.8875 14.865L12.495 13.8525C13.5975 15.45 24.9225 22.1775 26.04 21.9375L25.4625 22.965Z" fill="#FFFF00" stroke="black" stroke-width="0.045" stroke-linecap="round" stroke-linejoin="round"/>
<path fill-rule="evenodd" clip-rule="evenodd" d="M12.3674 13.71C12.1499 14.295 15.2624 16.215 18.9974 18.495C22.7324 20.775 25.9649 22.17 26.1974 21.975L26.3099 21.765C26.2649 21.845 26.1574 21.86 25.9874 21.81C24.9749 21.5175 22.3424 20.31 19.0799 18.33C15.8099 16.35 12.9749 14.5275 12.5324 13.755C12.4969 13.6829 12.4814 13.6026 12.4874 13.5225H12.4724L12.3824 13.6875L12.3674 13.71ZM25.5149 22.995C25.4799 23.06 25.3924 23.08 25.2524 23.055C24.3524 22.9575 21.6074 21.6225 18.3599 19.68C14.5799 17.415 11.4599 15.36 11.8049 14.82L11.8949 14.655L11.9099 14.6625C11.6099 15.5775 18.0674 19.2675 18.4499 19.5075C22.1849 21.8175 25.3349 23.175 25.6124 22.8225L25.5149 22.995Z" fill="#FFFF00" stroke="black" stroke-width="0.045" stroke-linecap="round" stroke-linejoin="round"/>
<path fill-rule="evenodd" clip-rule="evenodd" d="M19.2149 15.54C21.6299 15.5175 24.6149 15.21 26.3399 14.52L25.9649 13.92C24.9524 14.4825 21.9524 14.8575 19.1924 14.91C15.9374 14.88 13.6349 14.5725 12.4799 13.8L12.1349 14.445C14.2499 15.345 16.4249 15.5325 19.2149 15.54Z" fill="#FFFF00" stroke="black" stroke-width="0.045" stroke-linecap="round" stroke-linejoin="round"/>
<path fill-rule="evenodd" clip-rule="evenodd" d="M26.4375 14.535C26.3775 14.6325 25.2525 15.015 23.6025 15.3C22.1479 15.5205 20.6786 15.6283 19.2075 15.6225C17.798 15.6279 16.3897 15.5376 14.9925 15.3525C13.26 15.0825 12.3675 14.7075 12.03 14.5725L12.1125 14.4075C13.065 14.7825 13.965 15.0075 15.015 15.1725C16.4021 15.3597 17.8003 15.4524 19.2 15.45C20.6634 15.4515 22.125 15.3437 23.5725 15.1275C25.26 14.85 26.1825 14.4975 26.3175 14.34L26.4375 14.535ZM26.1075 13.9275C25.9275 14.0775 25.0125 14.4 23.4075 14.655C22.0215 14.8556 20.6229 14.9559 19.2225 14.955C17.5725 14.955 16.215 14.835 15.1875 14.685C13.5525 14.475 12.6825 14.085 12.3675 13.98L12.465 13.815C12.7125 13.9425 13.545 14.28 15.2025 14.5125C16.5349 14.691 17.8782 14.7762 19.2225 14.7675C20.6129 14.768 22.0015 14.6677 23.3775 14.4675C24.99 14.2425 25.86 13.8375 25.995 13.7325L26.1075 13.9275ZM11.2725 18.45C12.7575 19.2525 16.065 19.65 19.1925 19.68C22.0425 19.6875 25.7475 19.245 27.135 18.51L27.0975 17.7075C26.6625 18.3825 22.6875 19.035 19.1625 19.0125C15.6375 18.99 12.36 18.4425 11.265 17.7375V18.45" fill="#FFFF00"/>
<path d="M11.2725 18.45C12.7575 19.2525 16.065 19.65 19.1925 19.68C22.0425 19.6875 25.7475 19.245 27.135 18.51L27.0975 17.7075C26.6625 18.3825 22.6875 19.035 19.1625 19.0125C15.6375 18.99 12.36 18.4425 11.265 17.7375V18.45M26.4375 14.535C26.3775 14.6325 25.2525 15.015 23.6025 15.3C22.1479 15.5205 20.6786 15.6283 19.2075 15.6225C17.798 15.6279 16.3897 15.5376 14.9925 15.3525C13.26 15.0825 12.3675 14.7075 12.03 14.5725L12.1125 14.4075C13.065 14.7825 13.965 15.0075 15.015 15.1725C16.4021 15.3597 17.8003 15.4524 19.2 15.45C20.6634 15.4515 22.125 15.3437 23.5725 15.1275C25.26 14.85 26.1825 14.4975 26.3175 14.34L26.4375 14.535ZM26.1075 13.9275C25.9275 14.0775 25.0125 14.4 23.4075 14.655C22.0215 14.8556 20.6229 14.9559 19.2225 14.955C17.5725 14.955 16.215 14.835 15.1875 14.685C13.5525 14.475 12.6825 14.085 12.3675 13.98L12.465 13.815C12.7125 13.9425 13.545 14.28 15.2025 14.5125C16.5349 14.691 17.8782 14.7762 19.2225 14.7675C20.6129 14.768 22.0015 14.6677 23.3775 14.4675C24.99 14.2425 25.86 13.8375 25.995 13.7325L26.1075 13.9275Z" stroke="black" stroke-width="0.045" stroke-linecap="round" stroke-linejoin="round"/>
<path fill-rule="evenodd" clip-rule="evenodd" d="M27.2099 18.3376V18.5251C26.9999 18.7801 25.6949 19.1551 24.0599 19.4251C22.4356 19.6586 20.7959 19.7689 19.1549 19.7551C17.5989 19.7683 16.0442 19.6605 14.5049 19.4326C13.3563 19.2998 12.234 18.9965 11.1749 18.5326V18.3151C11.9024 18.7951 13.8674 19.1551 14.5274 19.2601C15.7124 19.4401 17.2349 19.5751 19.1549 19.5751C21.1724 19.5751 22.7849 19.4326 24.0299 19.2451C25.2074 19.0726 26.8799 18.6301 27.2099 18.3376ZM27.2099 17.6626V17.8501C26.9999 18.0976 25.6949 18.4726 24.0599 18.7426C22.4358 18.9786 20.7961 19.0914 19.1549 19.0801C17.599 19.0892 16.0447 18.9814 14.5049 18.7576C13.3563 18.6248 12.234 18.3215 11.1749 17.8576V17.6326C11.9024 18.1201 13.8749 18.4726 14.5274 18.5776C16.0595 18.802 17.6065 18.9098 19.1549 18.9001C21.1724 18.9001 22.7924 18.7501 24.0299 18.5626C25.2074 18.3976 26.8799 17.9551 27.2099 17.6626ZM19.1849 22.8226C15.7649 22.8076 12.8324 21.8926 12.2099 21.7426L12.6599 22.4476C14.7637 23.1923 16.9835 23.5555 19.2149 23.5201C21.8174 23.4451 24.0899 23.2426 25.6874 22.4626L26.1524 21.7276C25.0649 22.2451 21.3524 22.8226 19.1774 22.8226" fill="#FFFF00"/>
<path d="M19.1849 22.8226C15.7649 22.8076 12.8324 21.8926 12.2099 21.7426L12.6599 22.4476C14.7637 23.1923 16.9835 23.5555 19.2149 23.5201C21.8174 23.4451 24.0899 23.2426 25.6874 22.4626L26.1524 21.7276C25.0649 22.2451 21.3524 22.8226 19.1774 22.8226M27.2099 18.3376V18.5251C26.9999 18.7801 25.6949 19.1551 24.0599 19.4251C22.4356 19.6586 20.7959 19.7689 19.1549 19.7551C17.5989 19.7683 16.0442 19.6605 14.5049 19.4326C13.3563 19.2998 12.234 18.9965 11.1749 18.5326V18.3151C11.9024 18.7951 13.8674 19.1551 14.5274 19.2601C15.7124 19.4401 17.2349 19.5751 19.1549 19.5751C21.1724 19.5751 22.7849 19.4326 24.0299 19.2451C25.2074 19.0726 26.8799 18.6301 27.2099 18.3376ZM27.2099 17.6626V17.8501C26.9999 18.0976 25.6949 18.4726 24.0599 18.7426C22.4358 18.9786 20.7961 19.0914 19.1549 19.0801C17.599 19.0892 16.0447 18.9814 14.5049 18.7576C13.3563 18.6248 12.234 18.3215 11.1749 17.8576V17.6326C11.9024 18.1201 13.8749 18.4726 14.5274 18.5776C16.0595 18.802 17.6065 18.9098 19.1549 18.9001C21.1724 18.9001 22.7924 18.7501 24.0299 18.5626C25.2074 18.3976 26.8799 17.9551 27.2099 17.6626Z" stroke="black" stroke-width="0.045" stroke-linecap="round" stroke-linejoin="round"/>
<path fill-rule="evenodd" clip-rule="evenodd" d="M25.8675 22.2975L25.6575 22.5975C24.9075 22.8675 23.7075 23.1525 23.2125 23.2275C21.8842 23.4748 20.5361 23.6003 19.185 23.6025C16.155 23.5575 13.6725 22.965 12.51 22.455L12.4125 22.2975L12.4275 22.2675L12.585 22.335C14.7196 23.0408 16.9517 23.4077 19.2 23.4225C20.61 23.4225 22.0125 23.265 23.145 23.0625C24.885 22.71 25.59 22.4475 25.8075 22.3275L25.86 22.2975H25.8675ZM26.265 21.6375L26.115 21.9C25.71 22.05 24.615 22.365 23.0175 22.59C21.9675 22.7325 21.315 22.875 19.2225 22.9125C16.8304 22.8889 14.453 22.5355 12.1575 21.8625L12.075 21.675C14.4073 22.3196 16.8107 22.6723 19.23 22.725C21.1425 22.6875 21.96 22.545 23.0025 22.4025C24.8625 22.1175 25.8 21.8025 26.0775 21.72V21.705L26.2725 21.63L26.265 21.6375Z" fill="#FFFF00" stroke="black" stroke-width="0.045" stroke-linecap="round" stroke-linejoin="round"/>
<path fill-rule="evenodd" clip-rule="evenodd" d="M26.31 17.82C26.3175 20.07 25.1625 22.095 24.24 22.98C22.8788 24.3108 21.0584 25.0679 19.155 25.095C16.8825 25.1325 14.745 23.655 14.1675 23.0025C12.8755 21.6324 12.1402 19.8303 12.105 17.9475C12.24 15.4875 13.2075 13.7775 14.6025 12.6C15.9589 11.4867 17.6627 10.8842 19.4175 10.8975C20.4422 10.9463 21.4455 11.209 22.3626 11.6689C23.2797 12.1287 24.0904 12.7755 24.7425 13.5675C25.68 14.7075 26.0925 15.945 26.31 17.82ZM19.17 10.125C21.2681 10.1249 23.2812 10.9543 24.7704 12.4322C26.2596 13.9102 27.1041 15.9169 27.12 18.015C27.12 19.0561 26.9149 20.0869 26.5165 21.0487C26.1181 22.0105 25.5342 22.8845 24.7981 23.6206C24.0619 24.3567 23.188 24.9407 22.2262 25.3391C21.2644 25.7374 20.2335 25.9425 19.1925 25.9425C18.1514 25.9425 17.1206 25.7374 16.1587 25.3391C15.1969 24.9407 14.323 24.3567 13.5869 23.6206C12.8507 22.8845 12.2668 22.0105 11.8684 21.0487C11.47 20.0869 11.265 19.0561 11.265 18.015C11.2575 13.665 14.8125 10.125 19.17 10.125Z" fill="#FFFF00" stroke="black" stroke-width="0.045" stroke-linecap="round" stroke-linejoin="round"/>
<path fill-rule="evenodd" clip-rule="evenodd" d="M19.1925 10.0875C23.5575 10.0875 27.1125 13.6425 27.1125 18.0075C27.1125 22.3725 23.5575 25.9275 19.2 25.9275C14.8425 25.9275 11.28 22.3725 11.28 18.0075C11.28 13.6425 14.835 10.0875 19.2 10.0875H19.1925ZM11.445 18C11.445 22.26 14.9475 25.7475 19.1925 25.7475C23.4375 25.7475 26.94 22.26 26.94 18C26.94 13.74 23.4375 10.2525 19.1925 10.2525C14.9475 10.2525 11.445 13.74 11.445 18Z" fill="#FFFF00" stroke="black" stroke-width="0.045" stroke-linecap="round" stroke-linejoin="round"/>
<path fill-rule="evenodd" clip-rule="evenodd" d="M19.1999 10.7476C21.1216 10.7535 22.9629 11.5195 24.3217 12.8783C25.6805 14.2371 26.4465 16.0784 26.4524 18.0001C26.4485 19.923 25.6834 21.7662 24.3243 23.1266C22.9653 24.4871 21.1229 25.2541 19.1999 25.2601C15.2249 25.2601 11.9474 21.9901 11.9474 18.0001C11.9534 16.0784 12.7194 14.2371 14.0782 12.8783C15.437 11.5195 17.2783 10.7535 19.1999 10.7476ZM12.1199 18.0001C12.1199 21.9001 15.3149 25.0801 19.1999 25.0801C23.0849 25.0801 26.2799 21.8926 26.2799 18.0001C26.2799 14.1076 23.0849 10.9201 19.1999 10.9201C17.3259 10.9319 15.5319 11.6816 14.2067 13.0068C12.8815 14.332 12.1317 16.126 12.1199 18.0001Z" fill="#FFFF00" stroke="black" stroke-width="0.045" stroke-linecap="round" stroke-linejoin="round"/>
<path fill-rule="evenodd" clip-rule="evenodd" d="M19.5225 10.05H18.84V25.9725H19.515L19.5225 10.05Z" fill="#FFFF00" stroke="black" stroke-width="0.045" stroke-linecap="round" stroke-linejoin="round"/>
<path fill-rule="evenodd" clip-rule="evenodd" d="M19.4475 9.95996H19.62V26.0625H19.455V9.95996H19.4475ZM18.7725 9.95996H18.9525V26.0625H18.78L18.7725 9.95996Z" fill="#FFFF00" stroke="black" stroke-width="0.045" stroke-linecap="round" stroke-linejoin="round"/>
<path fill-rule="evenodd" clip-rule="evenodd" d="M27.1199 18.315V17.73L26.6399 17.28L23.9174 16.56L20.0024 16.1625L15.2774 16.4025L11.9174 17.1975L11.2424 17.7V18.2925L12.9599 17.52L17.0399 16.8825H20.9624L23.8424 17.1975L25.8374 17.6775L27.1199 18.315Z" fill="#FFFF00" stroke="black" stroke-width="0.045" stroke-linecap="round" stroke-linejoin="round"/>
<path fill-rule="evenodd" clip-rule="evenodd" d="M19.1999 16.785C21.0674 16.785 22.8749 16.9575 24.3224 17.235C25.8074 17.535 26.8499 17.91 27.2099 18.3225V18.5325C26.7749 18.0075 25.3724 17.6325 24.2849 17.4075C22.8599 17.1375 21.0599 16.9575 19.1924 16.9575C17.2349 16.9575 15.4049 17.1525 13.9949 17.4225C12.8699 17.6475 11.3624 18.0975 11.1749 18.5325V18.315C11.2724 18.015 12.3974 17.565 13.9724 17.2425C15.3899 16.965 17.2199 16.785 19.1924 16.785H19.1999ZM19.1999 16.1025C20.9174 16.099 22.6318 16.2496 24.3224 16.5525C25.8074 16.8525 26.8499 17.2275 27.2099 17.6475V17.85C26.7749 17.3325 25.3724 16.95 24.2849 16.7325C22.8599 16.455 21.0599 16.2825 19.1924 16.2825C17.4518 16.277 15.7144 16.4326 14.0024 16.7475C12.9149 16.95 11.3474 17.415 11.1749 17.85V17.64C11.2799 17.34 12.4199 16.8675 13.9724 16.5675C15.3974 16.29 17.2199 16.1025 19.1999 16.1025ZM19.1549 12.6375C22.1024 12.6225 24.6749 13.05 25.8524 13.65L26.2799 14.4C25.2599 13.845 22.4849 13.275 19.1624 13.35C16.4549 13.3725 13.5599 13.65 12.1124 14.43L12.6224 13.575C13.8149 12.9525 16.6199 12.6375 19.1549 12.6375Z" fill="#FFFF00" stroke="black" stroke-width="0.045" stroke-linecap="round" stroke-linejoin="round"/>
<path fill-rule="evenodd" clip-rule="evenodd" d="M19.1999 13.2524C20.7389 13.2265 22.2772 13.3344 23.7974 13.5749C24.9974 13.7999 26.1449 14.1299 26.3099 14.3099L26.4374 14.5349C26.0399 14.2799 25.0424 13.9874 23.7674 13.7474C22.4924 13.5074 20.8649 13.4249 19.1924 13.4324C17.2949 13.4249 15.8174 13.5224 14.5574 13.7474C13.6889 13.8693 12.8456 14.1301 12.0599 14.5199L12.1874 14.2874C12.6374 14.0624 13.3349 13.7849 14.5199 13.5674C15.8324 13.3274 17.3249 13.2599 19.1999 13.2524ZM19.1999 12.5774C20.8049 12.5624 22.3949 12.6524 23.6324 12.8774C24.4342 12.9965 25.2101 13.25 25.9274 13.6274L26.1149 13.9274C25.7999 13.5749 24.6149 13.2374 23.5574 13.0574C22.3274 12.8399 20.8049 12.7574 19.1999 12.7424C17.7059 12.7291 16.2133 12.8395 14.7374 13.0724C13.9657 13.1796 13.2161 13.41 12.5174 13.7549L12.6824 13.5074C13.1174 13.2824 13.8224 13.0724 14.7074 12.8999C16.193 12.664 17.6958 12.5536 19.1999 12.5699V12.5774ZM23.1299 21.2999C21.83 21.0747 20.5115 20.9742 19.1924 20.9999C14.2799 21.0599 12.6974 22.0124 12.5024 22.2974L12.1274 21.6974C13.3874 20.7974 16.0574 20.2874 19.2224 20.3324C20.8674 20.3574 22.2824 20.4824 23.4674 20.7074L23.1299 21.3074" fill="#FFFF00"/>
<path d="M23.1299 21.2999C21.83 21.0747 20.5115 20.9742 19.1924 20.9999C14.2799 21.0599 12.6974 22.0124 12.5024 22.2974L12.1274 21.6974C13.3874 20.7974 16.0574 20.2874 19.2224 20.3324C20.8674 20.3574 22.2824 20.4824 23.4674 20.7074L23.1299 21.3074M19.1999 13.2524C20.7389 13.2265 22.2772 13.3344 23.7974 13.5749C24.9974 13.7999 26.1449 14.1299 26.3099 14.3099L26.4374 14.5349C26.0399 14.2799 25.0424 13.9874 23.7674 13.7474C22.4924 13.5074 20.8649 13.4249 19.1924 13.4324C17.2949 13.4249 15.8174 13.5224 14.5574 13.7474C13.6889 13.8693 12.8456 14.1301 12.0599 14.5199L12.1874 14.2874C12.6374 14.0624 13.3349 13.7849 14.5199 13.5674C15.8324 13.3274 17.3249 13.2599 19.1999 13.2524ZM19.1999 12.5774C20.8049 12.5624 22.3949 12.6524 23.6324 12.8774C24.4342 12.9965 25.2101 13.25 25.9274 13.6274L26.1149 13.9274C25.7999 13.5749 24.6149 13.2374 23.5574 13.0574C22.3274 12.8399 20.8049 12.7574 19.1999 12.7424C17.7059 12.7291 16.2133 12.8395 14.7374 13.0724C13.9657 13.1796 13.2161 13.41 12.5174 13.7549L12.6824 13.5074C13.1174 13.2824 13.8224 13.0724 14.7074 12.8999C16.193 12.664 17.6958 12.5536 19.1999 12.5699V12.5774Z" stroke="black" stroke-width="0.045" stroke-linecap="round" stroke-linejoin="round"/>
<path fill-rule="evenodd" clip-rule="evenodd" d="M19.1699 20.9176C20.5349 20.9401 21.8699 20.9926 23.1674 21.2326L23.0774 21.3975C21.8774 21.1725 20.5874 21.0975 19.1774 21.0975C17.3549 21.0825 15.5249 21.2551 13.9274 21.7126C13.4249 21.8551 12.5924 22.1775 12.5024 22.4475L12.4124 22.2975C12.4424 22.1325 12.9374 21.8026 13.8824 21.5476C15.7124 21.0226 17.4224 20.9251 19.1699 20.9176ZM19.2299 20.2276C20.6707 20.2261 22.1087 20.3516 23.5274 20.6026L23.4299 20.7751C22.0446 20.5209 20.6384 20.3979 19.2299 20.4076C17.4149 20.4076 15.4874 20.5426 13.7324 21.0526C13.1699 21.2176 12.1874 21.5776 12.1574 21.8551L12.0674 21.6901C12.0824 21.4351 12.9299 21.0976 13.6949 20.8801C15.4574 20.3626 17.3924 20.2351 19.2299 20.2276Z" fill="#FFFF00" stroke="black" stroke-width="0.045" stroke-linecap="round" stroke-linejoin="round"/>
<path fill-rule="evenodd" clip-rule="evenodd" d="M26.2049 21.7875L25.6199 22.71L23.9174 21.2025L19.5224 18.24L14.5574 15.5175L11.9849 14.64L12.5324 13.62L12.7199 13.5225L14.3174 13.92L19.5974 16.6425L22.6424 18.5625L25.1999 20.4L26.2424 21.6L26.2049 21.7875Z" fill="#FFFF00" stroke="black" stroke-width="0.045" stroke-linecap="round" stroke-linejoin="round"/>
<path fill-rule="evenodd" clip-rule="evenodd" d="M11.8949 14.6625C12.3449 14.3625 15.6599 15.8325 19.1399 17.9325C22.5974 20.0325 25.9124 22.4025 25.6124 22.845L25.5149 23.0025L25.4699 23.04C25.4774 23.0325 25.5299 22.965 25.4699 22.8075C25.3199 22.32 22.9649 20.445 19.0724 18.09C15.2699 15.8325 12.1049 14.4675 11.7974 14.8575L11.8949 14.6625ZM26.3249 21.78C26.6099 21.21 23.5349 18.8925 19.7174 16.635C15.8174 14.4225 12.9974 13.1175 12.4799 13.5075L12.3749 13.725L12.4049 13.6875C12.4949 13.6125 12.6524 13.6125 12.7199 13.6125C13.6049 13.6275 16.1324 14.79 19.6799 16.8225C21.2399 17.7225 26.2499 20.9475 26.2274 21.8475C26.2274 21.9225 26.2349 21.9375 26.2049 21.9825L26.3324 21.7875L26.3249 21.78Z" fill="#FFFF00" stroke="black" stroke-width="0.045" stroke-linecap="round" stroke-linejoin="round"/>
<path d="M14.4481 18.8826C14.4506 19.5034 14.5755 20.1176 14.8157 20.6901C15.056 21.2625 15.4068 21.7819 15.8481 22.2186C16.285 22.6623 16.8054 23.0151 17.3794 23.2568C17.9533 23.4984 18.5694 23.6241 19.1921 23.6266C19.8164 23.6283 20.4348 23.5062 21.0115 23.2672C21.5883 23.0283 22.1119 22.6773 22.5521 22.2346C22.9929 21.7963 23.3427 21.2753 23.5816 20.7014C23.8205 20.1276 23.9437 19.5122 23.9441 18.8906V12.5546L14.4481 12.5386V18.8826Z" fill="white" stroke="black" stroke-width="0.0560002"/>
<path d="M14.6401 18.8906C14.6401 19.4866 14.7589 20.0766 14.9897 20.626C15.2204 21.1755 15.5585 21.6734 15.9841 22.0906C16.8359 22.9468 17.9925 23.4302 19.2002 23.4346C20.4055 23.4344 21.5618 22.9569 22.4162 22.1066C22.8403 21.6888 23.1769 21.1906 23.4063 20.6411C23.6357 20.0917 23.7533 19.502 23.7522 18.9066V12.7466H14.6401V18.8906ZM21.9202 14.5946V18.5066L21.9122 18.9146C21.9158 19.2721 21.8467 19.6267 21.7092 19.9567C21.5717 20.2868 21.3686 20.5854 21.1122 20.8346C20.6034 21.3451 19.9129 21.6328 19.1922 21.6346C18.4401 21.6346 17.7761 21.3146 17.2801 20.8186C16.7696 20.3099 16.4819 19.6193 16.4801 18.8986V14.5786L21.9202 14.5946Z" fill="#FF0000" stroke="black" stroke-width="0.0400001"/>
<path d="M15.2161 14.3545C15.2241 13.9145 15.5361 13.8105 15.5361 13.8105C15.5441 13.8105 15.8801 13.9225 15.8801 14.3625L15.2161 14.3545Z" fill="#FFFF00"/>
<path d="M14.9441 13.8185L14.8881 14.3225H15.2241C15.2241 13.9065 15.5441 13.8425 15.5441 13.8425C15.5521 13.8425 15.8641 13.9305 15.8721 14.3225H16.2081L16.1441 13.8105L14.9441 13.8185ZM14.8641 14.3305H16.2241C16.2508 14.3305 16.2668 14.3492 16.2721 14.3865C16.2721 14.4292 16.2561 14.4505 16.2241 14.4505H14.8641C14.8374 14.4505 14.8214 14.4292 14.8161 14.3865C14.8161 14.3492 14.8348 14.3305 14.8721 14.3305H14.8641Z" fill="#FFFF00" stroke="black" stroke-width="0.0400001"/>
<path d="M15.3601 14.3226C15.3601 14.0586 15.5441 13.9866 15.5441 13.9866C15.5441 13.9866 15.7281 14.0666 15.7281 14.3226H15.3601ZM14.8961 13.6026H16.2001C16.2268 13.6079 16.2428 13.6292 16.2481 13.6666C16.2481 13.6932 16.2321 13.7092 16.2001 13.7146H14.8961C14.8694 13.7146 14.8534 13.6959 14.8481 13.6586C14.8481 13.6319 14.8641 13.6159 14.8961 13.6106V13.6026ZM14.9281 13.7226H16.1601C16.1868 13.7226 16.2028 13.7412 16.2081 13.7786C16.2134 13.8159 16.1974 13.8346 16.1601 13.8346H14.9201C14.8881 13.8346 14.8721 13.8159 14.8721 13.7786C14.8721 13.7412 14.8881 13.7226 14.9201 13.7226H14.9281ZM15.3281 12.8746H15.4241V12.9386H15.4961V12.8746H15.6001V12.9466H15.6721V12.8666H15.7681V13.0266C15.7681 13.0586 15.7548 13.0746 15.7281 13.0746H15.3761C15.3494 13.0746 15.3334 13.0612 15.3281 13.0346V12.8746ZM15.6961 13.0906L15.7201 13.6026H15.3761L15.4001 13.0826H15.6961" fill="#FFFF00"/>
<path d="M15.6961 13.0906L15.7201 13.6026H15.3761L15.4001 13.0826H15.6961M15.3601 14.3226C15.3601 14.0586 15.5441 13.9866 15.5441 13.9866C15.5441 13.9866 15.7281 14.0666 15.7281 14.3226H15.3601ZM14.8961 13.6026H16.2001C16.2268 13.6079 16.2428 13.6292 16.2481 13.6666C16.2481 13.6932 16.2321 13.7092 16.2001 13.7146H14.8961C14.8694 13.7146 14.8534 13.6959 14.8481 13.6586C14.8481 13.6319 14.8641 13.6159 14.8961 13.6106V13.6026ZM14.9281 13.7226H16.1601C16.1868 13.7226 16.2028 13.7412 16.2081 13.7786C16.2134 13.8159 16.1974 13.8346 16.1601 13.8346H14.9201C14.8881 13.8346 14.8721 13.8159 14.8721 13.7786C14.8721 13.7412 14.8881 13.7226 14.9201 13.7226H14.9281ZM15.3281 12.8746H15.4241V12.9386H15.4961V12.8746H15.6001V12.9466H15.6721V12.8666H15.7681V13.0266C15.7681 13.0586 15.7548 13.0746 15.7281 13.0746H15.3761C15.3494 13.0746 15.3334 13.0612 15.3281 13.0346V12.8746Z" stroke="black" stroke-width="0.0400001"/>
<path d="M15.2801 13.3306V13.6026H14.9601V13.3306H15.2801Z" fill="#FFFF00" stroke="black" stroke-width="0.0400001"/>
<path d="M16.1281 13.3306V13.6026H15.8081V13.3306H16.1281Z" fill="#FFFF00" stroke="black" stroke-width="0.0400001"/>
<path d="M14.9041 13.1226H15.0001V13.2026H15.0721V13.1226H15.1681V13.2026H15.2401V13.1226H15.3361V13.2826C15.3361 13.3146 15.3228 13.3306 15.2961 13.3306H14.9521L14.9041 13.2826V13.1226Z" fill="#FFFF00" stroke="black" stroke-width="0.0400001"/>
<path d="M15.7521 13.1226H15.8481V13.2026H15.9201V13.1226H16.0161V13.2026H16.0881V13.1226H16.1841V13.2826C16.1841 13.3146 16.1708 13.3306 16.1441 13.3306H15.8001L15.7521 13.2826V13.1226Z" fill="#FFFF00" stroke="black" stroke-width="0.0400001"/>
<path d="M15.5121 13.2506C15.5121 13.2026 15.5841 13.2026 15.5841 13.2506V13.3786H15.5121V13.2506Z" fill="#000001"/>
<path d="M15.0881 13.4265C15.0881 13.3785 15.1521 13.3785 15.1521 13.4265V13.5225H15.0881V13.4265Z" fill="#000001"/>
<path d="M15.9361 13.4265C15.9361 13.3785 16.0001 13.3785 16.0001 13.4265V13.5225H15.9361V13.4265Z" fill="#000001"/>
<path d="M15.2161 18.0585C15.2241 17.6185 15.5361 17.5145 15.5361 17.5145C15.5441 17.5145 15.8801 17.6265 15.8801 18.0665L15.2161 18.0585Z" fill="#FFFF00"/>
<path d="M14.9441 17.5225L14.8881 18.0265H15.2241C15.2241 17.6105 15.5441 17.5465 15.5441 17.5465C15.5521 17.5465 15.8641 17.6345 15.8721 18.0265H16.2081L16.1441 17.5145L14.9441 17.5225ZM14.8641 18.0345H16.2241C16.2508 18.0345 16.2668 18.0532 16.2721 18.0905C16.2721 18.1332 16.2561 18.1545 16.2241 18.1545H14.8641C14.8374 18.1545 14.8214 18.1332 14.8161 18.0905C14.8161 18.0532 14.8348 18.0345 14.8721 18.0345H14.8641Z" fill="#FFFF00" stroke="black" stroke-width="0.0400001"/>
<path d="M15.3601 18.0266C15.3601 17.7626 15.5441 17.6906 15.5441 17.6906C15.5441 17.6906 15.7281 17.7706 15.7281 18.0266H15.3601ZM14.8961 17.3066H16.2001C16.2268 17.3119 16.2428 17.3332 16.2481 17.3706C16.2481 17.3972 16.2321 17.4132 16.2001 17.4186H14.8961C14.8694 17.4186 14.8534 17.3999 14.8481 17.3626C14.8481 17.3359 14.8641 17.3199 14.8961 17.3146V17.3066ZM14.9281 17.4266H16.1601C16.1868 17.4266 16.2028 17.4452 16.2081 17.4826C16.2134 17.5199 16.1974 17.5386 16.1601 17.5386H14.9201C14.8881 17.5386 14.8721 17.5199 14.8721 17.4826C14.8721 17.4452 14.8881 17.4266 14.9201 17.4266H14.9281ZM15.3281 16.5786H15.4241V16.6426H15.4961V16.5786H15.6001V16.6506H15.6721V16.5706H15.7681V16.7306C15.7681 16.7626 15.7548 16.7786 15.7281 16.7786H15.3761C15.3494 16.7786 15.3334 16.7652 15.3281 16.7386V16.5786ZM15.6961 16.7946L15.7201 17.3066H15.3761L15.4001 16.7866H15.6961" fill="#FFFF00"/>
<path d="M15.6961 16.7946L15.7201 17.3066H15.3761L15.4001 16.7866H15.6961M15.3601 18.0266C15.3601 17.7626 15.5441 17.6906 15.5441 17.6906C15.5441 17.6906 15.7281 17.7706 15.7281 18.0266H15.3601ZM14.8961 17.3066H16.2001C16.2268 17.3119 16.2428 17.3332 16.2481 17.3706C16.2481 17.3972 16.2321 17.4132 16.2001 17.4186H14.8961C14.8694 17.4186 14.8534 17.3999 14.8481 17.3626C14.8481 17.3359 14.8641 17.3199 14.8961 17.3146V17.3066ZM14.9281 17.4266H16.1601C16.1868 17.4266 16.2028 17.4452 16.2081 17.4826C16.2134 17.5199 16.1974 17.5386 16.1601 17.5386H14.9201C14.8881 17.5386 14.8721 17.5199 14.8721 17.4826C14.8721 17.4452 14.8881 17.4266 14.9201 17.4266H14.9281ZM15.3281 16.5786H15.4241V16.6426H15.4961V16.5786H15.6001V16.6506H15.6721V16.5706H15.7681V16.7306C15.7681 16.7626 15.7548 16.7786 15.7281 16.7786H15.3761C15.3494 16.7786 15.3334 16.7652 15.3281 16.7386V16.5786Z" stroke="black" stroke-width="0.0400001"/>
<path d="M15.2801 17.0345V17.3065H14.9601V17.0345H15.2801Z" fill="#FFFF00" stroke="black" stroke-width="0.0400001"/>
<path d="M16.1281 17.0345V17.3065H15.8081V17.0345H16.1281Z" fill="#FFFF00" stroke="black" stroke-width="0.0400001"/>
<path d="M14.9041 16.8265H15.0001V16.9065H15.0721V16.8265H15.1681V16.9065H15.2401V16.8265H15.3361V16.9865C15.3361 17.0185 15.3228 17.0345 15.2961 17.0345H14.9521L14.9041 16.9865V16.8265Z" fill="#FFFF00" stroke="black" stroke-width="0.0400001"/>
<path d="M15.7521 16.8265H15.8481V16.9065H15.9201V16.8265H16.0161V16.9065H16.0881V16.8265H16.1841V16.9865C16.1841 17.0185 16.1708 17.0345 16.1441 17.0345H15.8001L15.7521 16.9865V16.8265Z" fill="#FFFF00" stroke="black" stroke-width="0.0400001"/>
<path d="M15.5121 16.9546C15.5121 16.9066 15.5841 16.9066 15.5841 16.9546V17.0826H15.5121V16.9546Z" fill="#000001"/>
<path d="M15.0881 17.1306C15.0881 17.0826 15.1521 17.0826 15.1521 17.1306V17.2266H15.0881V17.1306Z" fill="#000001"/>
<path d="M15.9361 17.1306C15.9361 17.0826 16.0001 17.0826 16.0001 17.1306V17.2266H15.9361V17.1306Z" fill="#000001"/>
<path d="M16.6598 21.919C16.3532 21.6032 16.4993 21.3086 16.4993 21.3086C16.5049 21.3029 16.8212 21.1434 17.1334 21.4534L16.6598 21.919Z" fill="#FFFF00"/>
<path d="M16.0878 21.7343L16.406 22.1291L16.6427 21.8907C16.3476 21.5976 16.5276 21.3254 16.5276 21.3254C16.5333 21.3198 16.8156 21.1604 17.0993 21.4309L17.3361 21.1925L16.9277 20.8771L16.0878 21.7343ZM16.3947 22.1518L17.353 21.1868C17.3718 21.1679 17.3964 21.1697 17.4266 21.1922C17.4569 21.2223 17.4607 21.2486 17.4382 21.2713L16.4799 22.2364C16.4611 22.2553 16.4347 22.2516 16.4007 22.2253C16.3742 22.199 16.3741 22.1726 16.4004 22.1461L16.3947 22.1518Z" fill="#FFFF00" stroke="black" stroke-width="0.0400001"/>
<path d="M16.7386 21.7942C16.5512 21.6082 16.6298 21.4269 16.6298 21.4269C16.6298 21.4269 16.8162 21.3527 16.9979 21.5331L16.7386 21.7942ZM15.9007 21.6161L16.8196 20.6909C16.8422 20.6757 16.8686 20.6794 16.8988 20.7019C16.9177 20.7207 16.9178 20.7433 16.8991 20.7698L15.9802 21.6951C15.9614 21.714 15.9369 21.7122 15.9066 21.6897C15.8877 21.6709 15.8876 21.6482 15.9064 21.6218L15.9007 21.6161ZM16.0084 21.678L16.8765 20.8038C16.8953 20.7849 16.9199 20.7867 16.9501 20.8092C16.9804 20.8317 16.9823 20.8562 16.956 20.8827L16.0823 21.7626C16.0597 21.7853 16.0352 21.7835 16.0087 21.7572C15.9822 21.7309 15.9802 21.7064 16.0028 21.6837L16.0084 21.678ZM15.6886 20.7966L15.7562 20.7285L15.8016 20.7736L15.8524 20.7225L15.8069 20.6774L15.8802 20.6036L15.9313 20.6544L15.9821 20.6033L15.9253 20.5469L15.9929 20.4788L16.1065 20.5915C16.1292 20.6141 16.1311 20.6348 16.1123 20.6537L15.8643 20.9035C15.8455 20.9224 15.8248 20.9244 15.8021 20.9094L15.6886 20.7966ZM16.1011 20.6877L16.4814 21.0315L16.239 21.2755L15.8869 20.8921L16.0955 20.6821" fill="#FFFF00"/>
<path d="M16.1011 20.6877L16.4814 21.0315L16.239 21.2755L15.8869 20.8921L16.0955 20.6821M16.7386 21.7942C16.5512 21.6082 16.6298 21.4269 16.6298 21.4269C16.6298 21.4269 16.8162 21.3527 16.9979 21.5331L16.7386 21.7942ZM15.9007 21.6161L16.8196 20.6909C16.8422 20.6757 16.8686 20.6794 16.8988 20.7019C16.9177 20.7207 16.9178 20.7433 16.8991 20.7698L15.9802 21.6951C15.9614 21.714 15.9369 21.7122 15.9066 21.6897C15.8877 21.6709 15.8876 21.6482 15.9064 21.6218L15.9007 21.6161ZM16.0084 21.678L16.8765 20.8038C16.8953 20.7849 16.9199 20.7867 16.9501 20.8092C16.9804 20.8317 16.9823 20.8562 16.956 20.8827L16.0823 21.7626C16.0597 21.7853 16.0352 21.7835 16.0087 21.7572C15.9822 21.7309 15.9802 21.7064 16.0028 21.6837L16.0084 21.678ZM15.6886 20.7966L15.7562 20.7285L15.8016 20.7736L15.8524 20.7225L15.8069 20.6774L15.8802 20.6036L15.9313 20.6544L15.9821 20.6033L15.9253 20.5469L15.9929 20.4788L16.1065 20.5915C16.1292 20.6141 16.1311 20.6348 16.1123 20.6537L15.8643 20.9035C15.8455 20.9224 15.8248 20.9244 15.8021 20.9094L15.6886 20.7966Z" stroke="black" stroke-width="0.0400001"/>
<path d="M15.9783 21.152L16.1713 21.3436L15.9458 21.5707L15.7528 21.379L15.9783 21.152Z" fill="#FFFF00" stroke="black" stroke-width="0.0400001"/>
<path d="M16.5758 20.5503L16.7688 20.7419L16.5433 20.969L16.3503 20.7773L16.5758 20.5503Z" fill="#FFFF00" stroke="black" stroke-width="0.0400001"/>
<path d="M15.5657 21.2722L15.6334 21.2041L15.6901 21.2605L15.7409 21.2094L15.6841 21.153L15.7518 21.0849L15.8085 21.1413L15.8593 21.0902L15.8025 21.0338L15.8701 20.9657L15.9837 21.0784C16.0064 21.101 16.0083 21.1217 15.9895 21.1406L15.7471 21.3847L15.6793 21.385L15.5657 21.2722Z" fill="#FFFF00" stroke="black" stroke-width="0.0400001"/>
<path d="M16.1633 20.6705L16.2309 20.6024L16.2877 20.6588L16.3384 20.6077L16.2816 20.5513L16.3493 20.4832L16.4061 20.5396L16.4568 20.4885L16.4 20.4321L16.4677 20.364L16.5812 20.4767C16.6039 20.4993 16.6059 20.52 16.5871 20.5389L16.3447 20.783L16.2768 20.7833L16.1633 20.6705Z" fill="#FFFF00" stroke="black" stroke-width="0.0400001"/>
<path d="M16.085 20.931C16.0509 20.8972 16.1017 20.8461 16.1357 20.8799L16.2266 20.9701L16.1758 21.0212L16.085 20.931Z" fill="#000001"/>
<path d="M15.9111 21.3559C15.877 21.3221 15.9221 21.2767 15.9562 21.3105L16.0243 21.3782L15.9792 21.4236L15.9111 21.3559Z" fill="#000001"/>
<path d="M16.5086 20.7541C16.4746 20.7203 16.5197 20.6749 16.5537 20.7087L16.6219 20.7764L16.5768 20.8218L16.5086 20.7541Z" fill="#000001"/>
<path d="M18.8721 14.3545C18.8801 13.9145 19.1921 13.8105 19.1921 13.8105C19.2001 13.8105 19.5361 13.9225 19.5361 14.3625L18.8721 14.3545Z" fill="#FFFF00"/>
<path d="M18.6001 13.8185L18.5441 14.3225H18.8801C18.8801 13.9065 19.2001 13.8425 19.2001 13.8425C19.2081 13.8425 19.5201 13.9305 19.5281 14.3225H19.8641L19.8001 13.8105L18.6001 13.8185ZM18.5201 14.3305H19.8801C19.9068 14.3305 19.9228 14.3492 19.9281 14.3865C19.9281 14.4292 19.9121 14.4505 19.8801 14.4505H18.5201C18.4934 14.4505 18.4774 14.4292 18.4721 14.3865C18.4721 14.3492 18.4908 14.3305 18.5281 14.3305H18.5201Z" fill="#FFFF00" stroke="black" stroke-width="0.0400001"/>
<path d="M19.0161 14.3226C19.0161 14.0586 19.2001 13.9866 19.2001 13.9866C19.2001 13.9866 19.3841 14.0666 19.3841 14.3226H19.0161ZM18.5521 13.6026H19.8561C19.8828 13.6079 19.8988 13.6292 19.9041 13.6666C19.9041 13.6932 19.8881 13.7092 19.8561 13.7146H18.5521C18.5254 13.7146 18.5094 13.6959 18.5041 13.6586C18.5041 13.6319 18.5201 13.6159 18.5521 13.6106V13.6026ZM18.5841 13.7226H19.8161C19.8428 13.7226 19.8588 13.7412 19.8641 13.7786C19.8694 13.8159 19.8534 13.8346 19.8161 13.8346H18.5761C18.5441 13.8346 18.5281 13.8159 18.5281 13.7786C18.5281 13.7412 18.5441 13.7226 18.5761 13.7226H18.5841ZM18.9841 12.8746H19.0801V12.9386H19.1521V12.8746H19.2561V12.9466H19.3281V12.8666H19.4241V13.0266C19.4241 13.0586 19.4108 13.0746 19.3841 13.0746H19.0321C19.0054 13.0746 18.9894 13.0612 18.9841 13.0346V12.8746ZM19.3521 13.0906L19.3761 13.6026H19.0321L19.0561 13.0826H19.3521" fill="#FFFF00"/>
<path d="M19.3521 13.0906L19.3761 13.6026H19.0321L19.0561 13.0826H19.3521M19.0161 14.3226C19.0161 14.0586 19.2001 13.9866 19.2001 13.9866C19.2001 13.9866 19.3841 14.0666 19.3841 14.3226H19.0161ZM18.5521 13.6026H19.8561C19.8828 13.6079 19.8988 13.6292 19.9041 13.6666C19.9041 13.6932 19.8881 13.7092 19.8561 13.7146H18.5521C18.5254 13.7146 18.5094 13.6959 18.5041 13.6586C18.5041 13.6319 18.5201 13.6159 18.5521 13.6106V13.6026ZM18.5841 13.7226H19.8161C19.8428 13.7226 19.8588 13.7412 19.8641 13.7786C19.8694 13.8159 19.8534 13.8346 19.8161 13.8346H18.5761C18.5441 13.8346 18.5281 13.8159 18.5281 13.7786C18.5281 13.7412 18.5441 13.7226 18.5761 13.7226H18.5841ZM18.9841 12.8746H19.0801V12.9386H19.1521V12.8746H19.2561V12.9466H19.3281V12.8666H19.4241V13.0266C19.4241 13.0586 19.4108 13.0746 19.3841 13.0746H19.0321C19.0054 13.0746 18.9894 13.0612 18.9841 13.0346V12.8746Z" stroke="black" stroke-width="0.0400001"/>
<path d="M18.9361 13.3306V13.6026H18.6161V13.3306H18.9361Z" fill="#FFFF00" stroke="black" stroke-width="0.0400001"/>
<path d="M19.7841 13.3306V13.6026H19.4641V13.3306H19.7841Z" fill="#FFFF00" stroke="black" stroke-width="0.0400001"/>
<path d="M18.5601 13.1226H18.6561V13.2026H18.7281V13.1226H18.8241V13.2026H18.8961V13.1226H18.9921V13.2826C18.9921 13.3146 18.9788 13.3306 18.9521 13.3306H18.6081L18.5601 13.2826V13.1226Z" fill="#FFFF00" stroke="black" stroke-width="0.0400001"/>
<path d="M19.4081 13.1226H19.5041V13.2026H19.5761V13.1226H19.6721V13.2026H19.7441V13.1226H19.8401V13.2826C19.8401 13.3146 19.8268 13.3306 19.8001 13.3306H19.4561L19.4081 13.2826V13.1226Z" fill="#FFFF00" stroke="black" stroke-width="0.0400001"/>
<path d="M19.1681 13.2506C19.1681 13.2026 19.2401 13.2026 19.2401 13.2506V13.3786H19.1681V13.2506Z" fill="#000001"/>
<path d="M18.7441 13.4265C18.7441 13.3785 18.8081 13.3785 18.8081 13.4265V13.5225H18.7441V13.4265Z" fill="#000001"/>
<path d="M19.5921 13.4265C19.5921 13.3785 19.6561 13.3785 19.6561 13.4265V13.5225H19.5921V13.4265Z" fill="#000001"/>
<path d="M23.1681 14.3545C23.1601 13.9145 22.8481 13.8105 22.8481 13.8105C22.8401 13.8105 22.5041 13.9225 22.5041 14.3625L23.1681 14.3545Z" fill="#FFFF00"/>
<path d="M23.4401 13.8185L23.4961 14.3225H23.1601C23.1601 13.9065 22.8401 13.8425 22.8401 13.8425C22.8321 13.8425 22.5201 13.9305 22.5121 14.3225H22.176L22.24 13.8105L23.4401 13.8185ZM23.5201 14.3305H22.16C22.1334 14.3305 22.1174 14.3492 22.112 14.3865C22.112 14.4292 22.128 14.4505 22.16 14.4505H23.5201C23.5467 14.4505 23.5627 14.4292 23.5681 14.3865C23.5681 14.3492 23.5494 14.3305 23.5121 14.3305H23.5201Z" fill="#FFFF00" stroke="black" stroke-width="0.0400001"/>
<path d="M23.0241 14.3226C23.0241 14.0586 22.8401 13.9866 22.8401 13.9866C22.8401 13.9866 22.6561 14.0666 22.6561 14.3226H23.0241ZM23.4881 13.6026H22.1841C22.1574 13.6079 22.1414 13.6292 22.1361 13.6666C22.1361 13.6932 22.1521 13.7092 22.1841 13.7146H23.4881C23.5147 13.7146 23.5307 13.6959 23.5361 13.6586C23.5361 13.6319 23.5201 13.6159 23.4881 13.6106V13.6026ZM23.4561 13.7226H22.2241C22.1974 13.7226 22.1814 13.7412 22.1761 13.7786C22.1707 13.8159 22.1867 13.8346 22.2241 13.8346H23.4641C23.4961 13.8346 23.5121 13.8159 23.5121 13.7786C23.5121 13.7412 23.4961 13.7226 23.4641 13.7226H23.4561ZM23.0561 12.8746H22.9601V12.9386H22.8881V12.8746H22.7841V12.9466H22.7121V12.8666H22.6161V13.0266C22.6161 13.0586 22.6294 13.0746 22.6561 13.0746H23.0081C23.0347 13.0746 23.0507 13.0612 23.0561 13.0346V12.8746ZM22.6881 13.0906L22.6641 13.6026H23.0081L22.9841 13.0826H22.6881" fill="#FFFF00"/>
<path d="M22.6881 13.0906L22.6641 13.6026H23.0081L22.9841 13.0826H22.6881M23.0241 14.3226C23.0241 14.0586 22.8401 13.9866 22.8401 13.9866C22.8401 13.9866 22.6561 14.0666 22.6561 14.3226H23.0241ZM23.4881 13.6026H22.1841C22.1574 13.6079 22.1414 13.6292 22.1361 13.6666C22.1361 13.6932 22.1521 13.7092 22.1841 13.7146H23.4881C23.5147 13.7146 23.5307 13.6959 23.5361 13.6586C23.5361 13.6319 23.5201 13.6159 23.4881 13.6106V13.6026ZM23.4561 13.7226H22.2241C22.1974 13.7226 22.1814 13.7412 22.1761 13.7786C22.1707 13.8159 22.1867 13.8346 22.2241 13.8346H23.4641C23.4961 13.8346 23.5121 13.8159 23.5121 13.7786C23.5121 13.7412 23.4961 13.7226 23.4641 13.7226H23.4561ZM23.0561 12.8746H22.9601V12.9386H22.8881V12.8746H22.7841V12.9466H22.7121V12.8666H22.6161V13.0266C22.6161 13.0586 22.6294 13.0746 22.6561 13.0746H23.0081C23.0347 13.0746 23.0507 13.0612 23.0561 13.0346V12.8746Z" stroke="black" stroke-width="0.0400001"/>
<path d="M23.1041 13.3306V13.6026H23.4241V13.3306H23.1041Z" fill="#FFFF00" stroke="black" stroke-width="0.0400001"/>
<path d="M22.256 13.3306V13.6026H22.576V13.3306H22.256Z" fill="#FFFF00" stroke="black" stroke-width="0.0400001"/>
<path d="M23.4801 13.1226H23.3841V13.2026H23.3121V13.1226H23.2161V13.2026H23.1441V13.1226H23.0481V13.2826C23.0481 13.3146 23.0614 13.3306 23.0881 13.3306H23.4321L23.4801 13.2826V13.1226Z" fill="#FFFF00" stroke="black" stroke-width="0.0400001"/>
<path d="M22.6321 13.1226H22.5361V13.2026H22.4641V13.1226H22.3681V13.2026H22.2961V13.1226H22.2001V13.2826C22.2001 13.3146 22.2134 13.3306 22.2401 13.3306H22.5841L22.6321 13.2826V13.1226Z" fill="#FFFF00" stroke="black" stroke-width="0.0400001"/>
<path d="M22.8721 13.2506C22.8721 13.2026 22.8001 13.2026 22.8001 13.2506V13.3786H22.8721V13.2506Z" fill="#000001"/>
<path d="M23.2961 13.4265C23.2961 13.3785 23.2321 13.3785 23.2321 13.4265V13.5225H23.2961V13.4265Z" fill="#000001"/>
<path d="M22.4481 13.4265C22.4481 13.3785 22.3841 13.3785 22.3841 13.4265V13.5225H22.4481V13.4265Z" fill="#000001"/>
<path d="M23.168 18.0585C23.16 17.6185 22.848 17.5145 22.848 17.5145C22.84 17.5145 22.504 17.6265 22.504 18.0665L23.168 18.0585Z" fill="#FFFF00"/>
<path d="M23.44 17.5225L23.496 18.0265H23.16C23.16 17.6105 22.84 17.5465 22.84 17.5465C22.832 17.5465 22.52 17.6345 22.512 18.0265H22.176L22.24 17.5145L23.44 17.5225ZM23.52 18.0345H22.16C22.1333 18.0345 22.1173 18.0532 22.112 18.0905C22.112 18.1332 22.128 18.1545 22.16 18.1545H23.52C23.5467 18.1545 23.5627 18.1332 23.568 18.0905C23.568 18.0532 23.5493 18.0345 23.512 18.0345H23.52Z" fill="#FFFF00" stroke="black" stroke-width="0.0400001"/>
<path d="M23.024 18.0266C23.024 17.7626 22.84 17.6906 22.84 17.6906C22.84 17.6906 22.656 17.7706 22.656 18.0266H23.024ZM23.488 17.3066H22.184C22.1573 17.3119 22.1413 17.3332 22.136 17.3706C22.136 17.3972 22.152 17.4132 22.184 17.4186H23.488C23.5147 17.4186 23.5307 17.3999 23.536 17.3626C23.536 17.3359 23.52 17.3199 23.488 17.3146V17.3066ZM23.456 17.4266H22.224C22.1973 17.4266 22.1813 17.4452 22.176 17.4826C22.1707 17.5199 22.1867 17.5386 22.224 17.5386H23.464C23.496 17.5386 23.512 17.5199 23.512 17.4826C23.512 17.4452 23.496 17.4266 23.464 17.4266H23.456ZM23.056 16.5786H22.96V16.6426H22.888V16.5786H22.784V16.6506H22.712V16.5706H22.616V16.7306C22.616 16.7626 22.6293 16.7786 22.656 16.7786H23.008C23.0347 16.7786 23.0507 16.7652 23.056 16.7386V16.5786ZM22.688 16.7946L22.664 17.3066H23.008L22.984 16.7866H22.688" fill="#FFFF00"/>
<path d="M22.688 16.7946L22.664 17.3066H23.008L22.984 16.7866H22.688M23.024 18.0266C23.024 17.7626 22.84 17.6906 22.84 17.6906C22.84 17.6906 22.656 17.7706 22.656 18.0266H23.024ZM23.488 17.3066H22.184C22.1573 17.3119 22.1413 17.3332 22.136 17.3706C22.136 17.3972 22.152 17.4132 22.184 17.4186H23.488C23.5147 17.4186 23.5307 17.3999 23.536 17.3626C23.536 17.3359 23.52 17.3199 23.488 17.3146V17.3066ZM23.456 17.4266H22.224C22.1973 17.4266 22.1813 17.4452 22.176 17.4826C22.1707 17.5199 22.1867 17.5386 22.224 17.5386H23.464C23.496 17.5386 23.512 17.5199 23.512 17.4826C23.512 17.4452 23.496 17.4266 23.464 17.4266H23.456ZM23.056 16.5786H22.96V16.6426H22.888V16.5786H22.784V16.6506H22.712V16.5706H22.616V16.7306C22.616 16.7626 22.6293 16.7786 22.656 16.7786H23.008C23.0347 16.7786 23.0507 16.7652 23.056 16.7386V16.5786Z" stroke="black" stroke-width="0.0400001"/>
<path d="M23.104 17.0345V17.3065H23.424V17.0345H23.104Z" fill="#FFFF00" stroke="black" stroke-width="0.0400001"/>
<path d="M22.256 17.0345V17.3065H22.576V17.0345H22.256Z" fill="#FFFF00" stroke="black" stroke-width="0.0400001"/>
<path d="M23.48 16.8265H23.384V16.9065H23.312V16.8265H23.216V16.9065H23.144V16.8265H23.048V16.9865C23.048 17.0185 23.0613 17.0345 23.088 17.0345H23.432L23.48 16.9865V16.8265Z" fill="#FFFF00" stroke="black" stroke-width="0.0400001"/>
<path d="M22.632 16.8265H22.536V16.9065H22.464V16.8265H22.368V16.9065H22.296V16.8265H22.2V16.9865C22.2 17.0185 22.2134 17.0345 22.24 17.0345H22.584L22.632 16.9865V16.8265Z" fill="#FFFF00" stroke="black" stroke-width="0.0400001"/>
<path d="M22.872 16.9546C22.872 16.9066 22.8 16.9066 22.8 16.9546V17.0826H22.872V16.9546Z" fill="#000001"/>
<path d="M23.296 17.1306C23.296 17.0826 23.232 17.0826 23.232 17.1306V17.2266H23.296V17.1306Z" fill="#000001"/>
<path d="M22.448 17.1306C22.448 17.0826 22.384 17.0826 22.384 17.1306V17.2266H22.448V17.1306Z" fill="#000001"/>
<path d="M21.7243 21.919C22.0309 21.6032 21.8849 21.3086 21.8849 21.3086C21.8792 21.3029 21.563 21.1434 21.2508 21.4534L21.7243 21.919Z" fill="#FFFF00"/>
<path d="M22.2963 21.7343L21.9782 22.1291L21.7414 21.8907C22.0366 21.5976 21.8565 21.3254 21.8565 21.3254C21.8509 21.3198 21.5686 21.1604 21.2848 21.4309L21.0481 21.1925L21.4565 20.8771L22.2963 21.7343ZM21.9894 22.1518L21.0311 21.1868C21.0123 21.1679 20.9878 21.1697 20.9575 21.1922C20.9273 21.2223 20.9234 21.2486 20.946 21.2713L21.9043 22.2364C21.9231 22.2553 21.9495 22.2516 21.9835 22.2253C22.01 22.199 22.0101 22.1726 21.9838 22.1461L21.9894 22.1518Z" fill="#FFFF00" stroke="black" stroke-width="0.0400001"/>
<path d="M21.6456 21.7942C21.8329 21.6082 21.7543 21.4269 21.7543 21.4269C21.7543 21.4269 21.5679 21.3527 21.3863 21.5331L21.6456 21.7942ZM22.4834 21.6161L21.5646 20.6909C21.542 20.6757 21.5156 20.6794 21.4853 20.7019C21.4664 20.7207 21.4663 20.7433 21.4851 20.7698L22.404 21.6951C22.4227 21.714 22.4473 21.7122 22.4775 21.6897C22.4964 21.6709 22.4965 21.6482 22.4777 21.6218L22.4834 21.6161ZM22.3757 21.678L21.5076 20.8038C21.4888 20.7849 21.4643 20.7867 21.4341 20.8092C21.4038 20.8317 21.4018 20.8562 21.4281 20.8827L22.3019 21.7626C22.3244 21.7853 22.349 21.7835 22.3754 21.7572C22.4019 21.7309 22.4039 21.7064 22.3814 21.6837L22.3757 21.678ZM22.6956 20.7966L22.6279 20.7285L22.5825 20.7736L22.5318 20.7225L22.5772 20.6774L22.5039 20.6036L22.4528 20.6544L22.4021 20.6033L22.4589 20.5469L22.3912 20.4788L22.2777 20.5915C22.255 20.6141 22.253 20.6348 22.2718 20.6537L22.5199 20.9035C22.5386 20.9224 22.5594 20.9244 22.5821 20.9094L22.6956 20.7966ZM22.283 20.6877L21.9028 21.0315L22.1452 21.2755L22.4973 20.8921L22.2887 20.6821" fill="#FFFF00"/>
<path d="M22.283 20.6877L21.9028 21.0315L22.1452 21.2755L22.4973 20.8921L22.2887 20.6821M21.6456 21.7942C21.8329 21.6082 21.7543 21.4269 21.7543 21.4269C21.7543 21.4269 21.5679 21.3527 21.3863 21.5331L21.6456 21.7942ZM22.4834 21.6161L21.5646 20.6909C21.542 20.6757 21.5156 20.6794 21.4853 20.7019C21.4664 20.7207 21.4663 20.7433 21.4851 20.7698L22.404 21.6951C22.4227 21.714 22.4473 21.7122 22.4775 21.6897C22.4964 21.6709 22.4965 21.6482 22.4777 21.6218L22.4834 21.6161ZM22.3757 21.678L21.5076 20.8038C21.4888 20.7849 21.4643 20.7867 21.4341 20.8092C21.4038 20.8317 21.4018 20.8562 21.4281 20.8827L22.3019 21.7626C22.3244 21.7853 22.349 21.7835 22.3754 21.7572C22.4019 21.7309 22.4039 21.7064 22.3814 21.6837L22.3757 21.678ZM22.6956 20.7966L22.6279 20.7285L22.5825 20.7736L22.5318 20.7225L22.5772 20.6774L22.5039 20.6036L22.4528 20.6544L22.4021 20.6033L22.4589 20.5469L22.3912 20.4788L22.2777 20.5915C22.255 20.6141 22.253 20.6348 22.2718 20.6537L22.5199 20.9035C22.5386 20.9224 22.5594 20.9244 22.5821 20.9094L22.6956 20.7966Z" stroke="black" stroke-width="0.0400001"/>
<path d="M22.4058 21.152L22.2128 21.3436L22.4383 21.5707L22.6313 21.379L22.4058 21.152Z" fill="#FFFF00" stroke="black" stroke-width="0.0400001"/>
<path d="M21.8083 20.5503L21.6153 20.7419L21.8408 20.969L22.0338 20.7773L21.8083 20.5503Z" fill="#FFFF00" stroke="black" stroke-width="0.0400001"/>
<path d="M22.8184 21.2722L22.7507 21.2041L22.6939 21.2605L22.6432 21.2094L22.7 21.153L22.6323 21.0849L22.5756 21.1413L22.5248 21.0902L22.5816 21.0338L22.514 20.9657L22.4004 21.0784C22.3777 21.101 22.3758 21.1217 22.3946 21.1406L22.6369 21.3847L22.7048 21.385L22.8184 21.2722Z" fill="#FFFF00" stroke="black" stroke-width="0.0400001"/>
<path d="M22.2208 20.6705L22.1532 20.6024L22.0964 20.6588L22.0457 20.6077L22.1024 20.5513L22.0348 20.4832L21.978 20.5396L21.9273 20.4885L21.9841 20.4321L21.9164 20.364L21.8029 20.4767C21.7802 20.4993 21.7782 20.52 21.797 20.5389L22.0394 20.783L22.1073 20.7833L22.2208 20.6705Z" fill="#FFFF00" stroke="black" stroke-width="0.0400001"/>
<path d="M22.2991 20.931C22.3332 20.8972 22.2824 20.8461 22.2484 20.8799L22.1575 20.9701L22.2083 21.0212L22.2991 20.931Z" fill="#000001"/>
<path d="M22.473 21.3558C22.5071 21.322 22.462 21.2766 22.4279 21.3104L22.3598 21.378L22.4049 21.4235L22.473 21.3558Z" fill="#000001"/>
<path d="M21.8755 20.7541C21.9095 20.7203 21.8644 20.6749 21.8304 20.7087L21.7622 20.7764L21.8073 20.8218L21.8755 20.7541Z" fill="#000001"/>
<path d="M18.6081 18.1946C18.6042 18.3639 18.6675 18.5278 18.7841 18.6506C18.8369 18.7111 18.9021 18.7596 18.9753 18.7927C19.0484 18.8258 19.1278 18.8428 19.2081 18.8426C19.3788 18.8319 19.5201 18.7679 19.6321 18.6506C19.7488 18.5278 19.8121 18.3639 19.8082 18.1946V17.3306H18.6081V18.1946Z" fill="#003399"/>
<path d="M18.8881 17.7786C18.9544 17.7786 19.0081 17.7248 19.0081 17.6586C19.0081 17.5923 18.9544 17.5386 18.8881 17.5386C18.8219 17.5386 18.7681 17.5923 18.7681 17.6586C18.7681 17.7248 18.8219 17.7786 18.8881 17.7786Z" fill="white"/>
<path d="M19.5521 17.7786C19.6184 17.7786 19.6721 17.7248 19.6721 17.6586C19.6721 17.5923 19.6184 17.5386 19.5521 17.5386C19.4859 17.5386 19.4321 17.5923 19.4321 17.6586C19.4321 17.7248 19.4859 17.7786 19.5521 17.7786Z" fill="white"/>
<path d="M19.2161 18.0985C19.2824 18.0985 19.3361 18.0448 19.3361 17.9785C19.3361 17.9122 19.2824 17.8585 19.2161 17.8585C19.1499 17.8585 19.0961 17.9122 19.0961 17.9785C19.0961 18.0448 19.1499 18.0985 19.2161 18.0985Z" fill="white"/>
<path d="M18.8881 18.4346C18.9544 18.4346 19.0081 18.3809 19.0081 18.3146C19.0081 18.2483 18.9544 18.1946 18.8881 18.1946C18.8219 18.1946 18.7681 18.2483 18.7681 18.3146C18.7681 18.3809 18.8219 18.4346 18.8881 18.4346Z" fill="white"/>
<path d="M19.5521 18.4346C19.6184 18.4346 19.6721 18.3809 19.6721 18.3146C19.6721 18.2483 19.6184 18.1946 19.5521 18.1946C19.4859 18.1946 19.4321 18.2483 19.4321 18.3146C19.4321 18.3809 19.4859 18.4346 19.5521 18.4346Z" fill="white"/>
<path d="M18.6081 16.1145C18.6042 16.2838 18.6675 16.4478 18.7841 16.5705C18.8369 16.631 18.9021 16.6795 18.9753 16.7126C19.0484 16.7458 19.1278 16.7628 19.2081 16.7625C19.3788 16.7518 19.5201 16.6878 19.6321 16.5705C19.7488 16.4478 19.8121 16.2838 19.8082 16.1145V15.2505H18.6081V16.1145Z" fill="#003399"/>
<path d="M18.8881 15.6985C18.9544 15.6985 19.0081 15.6448 19.0081 15.5785C19.0081 15.5122 18.9544 15.4585 18.8881 15.4585C18.8219 15.4585 18.7681 15.5122 18.7681 15.5785C18.7681 15.6448 18.8219 15.6985 18.8881 15.6985Z" fill="white"/>
<path d="M19.5521 15.6985C19.6184 15.6985 19.6721 15.6448 19.6721 15.5785C19.6721 15.5122 19.6184 15.4585 19.5521 15.4585C19.4859 15.4585 19.4321 15.5122 19.4321 15.5785C19.4321 15.6448 19.4859 15.6985 19.5521 15.6985Z" fill="white"/>
<path d="M19.2161 16.0186C19.2824 16.0186 19.3361 15.9648 19.3361 15.8986C19.3361 15.8323 19.2824 15.7786 19.2161 15.7786C19.1499 15.7786 19.0961 15.8323 19.0961 15.8986C19.0961 15.9648 19.1499 16.0186 19.2161 16.0186Z" fill="white"/>
<path d="M18.8881 16.3545C18.9544 16.3545 19.0081 16.3008 19.0081 16.2345C19.0081 16.1682 18.9544 16.1145 18.8881 16.1145C18.8219 16.1145 18.7681 16.1682 18.7681 16.2345C18.7681 16.3008 18.8219 16.3545 18.8881 16.3545Z" fill="white"/>
<path d="M19.5521 16.3545C19.6184 16.3545 19.6721 16.3008 19.6721 16.2345C19.6721 16.1682 19.6184 16.1145 19.5521 16.1145C19.4859 16.1145 19.4321 16.1682 19.4321 16.2345C19.4321 16.3008 19.4859 16.3545 19.5521 16.3545Z" fill="white"/>
<path d="M16.9441 18.1946C16.9401 18.3639 17.0034 18.5278 17.1201 18.6506C17.1729 18.7111 17.238 18.7596 17.3112 18.7927C17.3844 18.8258 17.4638 18.8428 17.5441 18.8426C17.7148 18.8319 17.8561 18.7679 17.9681 18.6506C18.0848 18.5278 18.1481 18.3639 18.1441 18.1946V17.3306H16.9441V18.1946Z" fill="#003399"/>
<path d="M17.2241 17.7786C17.2904 17.7786 17.3441 17.7248 17.3441 17.6586C17.3441 17.5923 17.2904 17.5386 17.2241 17.5386C17.1579 17.5386 17.1041 17.5923 17.1041 17.6586C17.1041 17.7248 17.1579 17.7786 17.2241 17.7786Z" fill="white"/>
<path d="M17.8881 17.7786C17.9544 17.7786 18.0081 17.7248 18.0081 17.6586C18.0081 17.5923 17.9544 17.5386 17.8881 17.5386C17.8219 17.5386 17.7681 17.5923 17.7681 17.6586C17.7681 17.7248 17.8219 17.7786 17.8881 17.7786Z" fill="white"/>
<path d="M17.5521 18.0985C17.6184 18.0985 17.6721 18.0448 17.6721 17.9785C17.6721 17.9122 17.6184 17.8585 17.5521 17.8585C17.4859 17.8585 17.4321 17.9122 17.4321 17.9785C17.4321 18.0448 17.4859 18.0985 17.5521 18.0985Z" fill="white"/>
<path d="M17.2241 18.4346C17.2904 18.4346 17.3441 18.3809 17.3441 18.3146C17.3441 18.2483 17.2904 18.1946 17.2241 18.1946C17.1579 18.1946 17.1041 18.2483 17.1041 18.3146C17.1041 18.3809 17.1579 18.4346 17.2241 18.4346Z" fill="white"/>
<path d="M17.8881 18.4346C17.9544 18.4346 18.0081 18.3809 18.0081 18.3146C18.0081 18.2483 17.9544 18.1946 17.8881 18.1946C17.8219 18.1946 17.7681 18.2483 17.7681 18.3146C17.7681 18.3809 17.8219 18.4346 17.8881 18.4346Z" fill="white"/>
<path d="M20.2721 18.1946C20.2682 18.3639 20.3315 18.5278 20.4481 18.6506C20.5009 18.7111 20.5661 18.7596 20.6393 18.7927C20.7124 18.8258 20.7918 18.8428 20.8722 18.8426C21.0428 18.8319 21.1842 18.7679 21.2962 18.6506C21.4128 18.5278 21.4761 18.3639 21.4722 18.1946V17.3306H20.2721V18.1946Z" fill="#003399"/>
<path d="M20.5522 17.7786C20.6185 17.7786 20.6722 17.7248 20.6722 17.6586C20.6722 17.5923 20.6185 17.5386 20.5522 17.5386C20.4859 17.5386 20.4322 17.5923 20.4322 17.6586C20.4322 17.7248 20.4859 17.7786 20.5522 17.7786Z" fill="white"/>
<path d="M21.2162 17.7786C21.2825 17.7786 21.3362 17.7248 21.3362 17.6586C21.3362 17.5923 21.2825 17.5386 21.2162 17.5386C21.1499 17.5386 21.0962 17.5923 21.0962 17.6586C21.0962 17.7248 21.1499 17.7786 21.2162 17.7786Z" fill="white"/>
<path d="M20.8802 18.0985C20.9465 18.0985 21.0002 18.0448 21.0002 17.9785C21.0002 17.9122 20.9465 17.8585 20.8802 17.8585C20.8139 17.8585 20.7602 17.9122 20.7602 17.9785C20.7602 18.0448 20.8139 18.0985 20.8802 18.0985Z" fill="white"/>
<path d="M20.5522 18.4346C20.6185 18.4346 20.6722 18.3809 20.6722 18.3146C20.6722 18.2483 20.6185 18.1946 20.5522 18.1946C20.4859 18.1946 20.4322 18.2483 20.4322 18.3146C20.4322 18.3809 20.4859 18.4346 20.5522 18.4346Z" fill="white"/>
<path d="M21.2162 18.4346C21.2825 18.4346 21.3362 18.3809 21.3362 18.3146C21.3362 18.2483 21.2825 18.1946 21.2162 18.1946C21.1499 18.1946 21.0962 18.2483 21.0962 18.3146C21.0962 18.3809 21.1499 18.4346 21.2162 18.4346Z" fill="white"/>
<path d="M18.6081 20.2585C18.6042 20.4278 18.6675 20.5918 18.7841 20.7145C18.8369 20.7751 18.9021 20.8235 18.9753 20.8567C19.0484 20.8898 19.1278 20.9068 19.2081 20.9065C19.3788 20.8959 19.5201 20.8319 19.6321 20.7145C19.7488 20.5918 19.8121 20.4278 19.8082 20.2585V19.3945H18.6081V20.2585Z" fill="#003399"/>
<path d="M18.8881 19.8425C18.9544 19.8425 19.0081 19.7888 19.0081 19.7225C19.0081 19.6563 18.9544 19.6025 18.8881 19.6025C18.8219 19.6025 18.7681 19.6563 18.7681 19.7225C18.7681 19.7888 18.8219 19.8425 18.8881 19.8425Z" fill="white"/>
<path d="M19.5521 19.8425C19.6184 19.8425 19.6721 19.7888 19.6721 19.7225C19.6721 19.6563 19.6184 19.6025 19.5521 19.6025C19.4859 19.6025 19.4321 19.6563 19.4321 19.7225C19.4321 19.7888 19.4859 19.8425 19.5521 19.8425Z" fill="white"/>
<path d="M19.2161 20.1626C19.2824 20.1626 19.3361 20.1089 19.3361 20.0426C19.3361 19.9763 19.2824 19.9226 19.2161 19.9226C19.1499 19.9226 19.0961 19.9763 19.0961 20.0426C19.0961 20.1089 19.1499 20.1626 19.2161 20.1626Z" fill="white"/>
<path d="M18.8881 20.4985C18.9544 20.4985 19.0081 20.4448 19.0081 20.3785C19.0081 20.3123 18.9544 20.2585 18.8881 20.2585C18.8219 20.2585 18.7681 20.3123 18.7681 20.3785C18.7681 20.4448 18.8219 20.4985 18.8881 20.4985Z" fill="white"/>
<path d="M19.5521 20.4985C19.6184 20.4985 19.6721 20.4448 19.6721 20.3785C19.6721 20.3123 19.6184 20.2585 19.5521 20.2585C19.4859 20.2585 19.4321 20.3123 19.4321 20.3785C19.4321 20.4448 19.4859 20.4985 19.5521 20.4985Z" fill="white"/>
</g>
<defs>
<clipPath id="clip0_763_57656">
<rect width="48" height="36" fill="white"/>
</clipPath>
</defs>
</svg>
