<svg width="24" height="24" viewBox="0 0 24 24" fill="none" xmlns="http://www.w3.org/2000/svg">
<path d="M12.104 1.00244C12.8682 1.00969 13.6317 1.09406 14.3813 1.26025C15.7916 1.57292 17.1268 2.16026 18.3101 2.98877C19.4932 3.81727 20.5017 4.87116 21.2778 6.08936C22.0539 7.30753 22.5826 8.66695 22.8335 10.0894C22.9392 10.6888 22.9911 11.295 22.9966 11.9009C22.9978 11.9336 23.0005 11.9665 23.0005 11.9995C23.0005 12.0229 22.9982 12.0466 22.9976 12.0698C22.9926 12.8452 22.9083 13.6198 22.7397 14.3804C22.4271 15.7905 21.8396 17.1259 21.0112 18.3091C20.1828 19.4922 19.1287 20.5008 17.9106 21.2769C16.6925 22.0529 15.333 22.5817 13.9106 22.8325C13.3202 22.9366 12.7232 22.9888 12.1265 22.9956C12.0522 22.9992 11.9777 22.9994 11.9028 22.9966C11.1366 22.9898 10.3713 22.9054 9.61963 22.7388C8.20934 22.4261 6.87421 21.8388 5.69092 21.0103C4.50767 20.1817 3.49927 19.1279 2.72314 17.9097C1.94709 16.6914 1.4183 15.3321 1.16748 13.9097C1.06228 13.3129 1.00926 12.71 1.00342 12.1069C1.00198 12.0715 1.00049 12.0354 1.00049 11.9995C1.00049 11.9711 1.00153 11.9428 1.00244 11.9146C1.00846 11.1442 1.0937 10.3743 1.26123 9.61865C1.57392 8.20855 2.1613 6.87309 2.98975 5.68994C3.81824 4.5069 4.87222 3.49819 6.09033 2.72217C7.3085 1.94621 8.66796 1.41731 10.0903 1.1665C10.6802 1.06251 11.2764 1.01031 11.8726 1.00342C11.9494 0.999616 12.0266 0.999344 12.104 1.00244ZM14.4644 16.8794C13.6577 16.9581 12.8309 16.9995 12.0005 16.9995C11.1702 16.9995 10.3431 16.9591 9.53662 16.8804C9.86225 18.2488 10.3122 19.3534 10.8228 20.0903C11.2112 20.651 11.556 20.8868 11.7915 20.9644C11.9816 21.0268 12.1926 21.0195 12.479 20.8276C12.8002 20.6123 13.1782 20.1812 13.5483 19.4712C13.901 18.7946 14.2166 17.9208 14.4644 16.8794ZM3.64404 15.3394C3.85183 15.8596 4.10729 16.3608 4.40967 16.8354C5.04468 17.8322 5.87028 18.6937 6.83838 19.3716C7.40621 19.7692 8.01718 20.0975 8.65771 20.354C8.11924 19.3081 7.70345 18.0103 7.42334 16.5747C6.37883 16.3709 5.40946 16.0969 4.55811 15.7563C4.23798 15.6283 3.93277 15.4881 3.64404 15.3394ZM20.354 15.3403C20.066 15.4886 19.762 15.6287 19.4429 15.7563C18.5909 16.0971 17.6201 16.3709 16.5747 16.5747C16.5319 16.7941 16.4882 17.011 16.439 17.2241C16.1641 18.4144 15.7937 19.4772 15.3423 20.354C15.8615 20.1464 16.3627 19.8922 16.8364 19.5903C17.833 18.9554 18.6948 18.1296 19.3726 17.1616C19.7704 16.5934 20.0975 15.9813 20.354 15.3403ZM12.0005 8.99951C11.037 8.99951 10.0829 9.05777 9.17139 9.17041C8.96099 10.8749 8.94243 12.7179 9.13135 14.481C9.14387 14.5978 9.15723 14.714 9.17139 14.8286C10.083 14.9413 11.037 14.9995 12.0005 14.9995C12.9637 14.9995 13.9172 14.9412 14.8286 14.8286C15.0389 13.1242 15.0586 11.281 14.8696 9.51807C14.8571 9.40101 14.8418 9.28526 14.8276 9.17041C13.9166 9.05789 12.9634 8.99953 12.0005 8.99951ZM7.11963 9.53467C6.44974 9.69396 5.83888 9.88414 5.30127 10.0991C4.44561 10.4414 3.83495 10.8228 3.45654 11.188C3.1108 11.5219 3.01511 11.784 3.00244 11.9585C3.00232 11.9868 3.0023 12.0151 3.00244 12.0435C3.0157 12.218 3.11216 12.4785 3.45654 12.811C3.83492 13.1764 4.4453 13.5575 5.30127 13.8999C5.8389 14.1149 6.44969 14.305 7.11963 14.4644C6.96088 12.8356 6.96234 11.1467 7.11963 9.53467ZM16.8804 9.53467C17.0392 11.1634 17.0376 12.8523 16.8804 14.4644C17.5505 14.305 18.162 14.115 18.6997 13.8999C19.5554 13.5576 20.1661 13.1763 20.5444 12.811C20.8924 12.4749 20.986 12.212 20.9976 12.0376C20.9977 12.0106 20.9967 11.9836 20.9966 11.9565C20.9833 11.782 20.8888 11.5206 20.5444 11.188C20.1661 10.8227 19.5556 10.4415 18.6997 10.0991C18.1619 9.88404 17.5506 9.69402 16.8804 9.53467ZM8.65771 3.64502C8.13867 3.85255 7.63821 4.10698 7.16455 4.40869C6.16796 5.0436 5.30626 5.8695 4.62842 6.8374C4.23053 7.40564 3.90162 8.01765 3.64502 8.65869C3.9333 8.51023 4.23855 8.3705 4.55811 8.24268C5.40969 7.90209 6.37951 7.62812 7.42432 7.42432C7.46712 7.20499 7.51281 6.98799 7.56201 6.7749C7.83693 5.5846 8.20624 4.52178 8.65771 3.64502ZM15.3413 3.64502C15.88 4.69093 16.2964 5.98854 16.5767 7.42432C17.6214 7.62814 18.5914 7.90207 19.4429 8.24268C19.7623 8.37045 20.0668 8.5103 20.355 8.65869C20.1473 8.13914 19.8933 7.63765 19.5913 7.16357C18.9563 6.1669 18.1306 5.30529 17.1626 4.62744C16.5943 4.22955 15.9824 3.90163 15.3413 3.64502ZM11.9624 3.00244C11.8345 3.01046 11.6914 3.05799 11.522 3.17139C11.2007 3.38658 10.8229 3.8178 10.4526 4.52783C10.1 5.20433 9.78343 6.07834 9.53564 7.11963C10.3425 7.04086 11.1699 6.99951 12.0005 6.99951C12.8305 6.99952 13.6571 7.03998 14.4634 7.11865C14.1377 5.75057 13.6887 4.64549 13.1782 3.90869C12.7899 3.34831 12.4449 3.11222 12.2095 3.03467C12.1518 3.01572 12.0918 3.00437 12.0288 3.00146C12.0067 3.0014 11.9845 3.00234 11.9624 3.00244Z" fill="black"/>
</svg>
