<svg width="24" height="24" viewBox="0 0 24 24" fill="none" xmlns="http://www.w3.org/2000/svg">
<path d="M10.1111 2.99976C10.6632 2.99987 11.111 3.44766 11.1111 3.99976C11.1111 4.55197 10.6633 4.99964 10.1111 4.99976H5.99976C5.44766 4.99989 4.99989 5.44766 4.99976 5.99976V17.9998C4.99976 18.552 5.44758 18.9996 5.99976 18.9998H17.9998C18.552 18.9998 18.9998 18.552 18.9998 17.9998V13.8884C19 13.3364 19.4477 12.8886 19.9998 12.8884C20.5519 12.8884 20.9995 13.3364 20.9998 13.8884V17.9998C20.9998 19.6566 19.6566 20.9998 17.9998 20.9998H5.99976C4.34301 20.9996 2.99976 19.6565 2.99976 17.9998V5.99976C2.99989 4.3431 4.3431 2.99989 5.99976 2.99976H10.1111Z" fill="black"/>
<path d="M18.9998 2.99976C20.1042 2.99976 20.9996 3.8953 20.9998 4.99976V9.99976C20.9998 10.552 20.552 10.9998 19.9998 10.9998C19.4476 10.9996 18.9998 10.552 18.9998 9.99976V6.41382L11.7068 13.7068C11.3163 14.0973 10.6832 14.0973 10.2927 13.7068C9.90244 13.3162 9.90228 12.6832 10.2927 12.2927L17.5857 4.99976H13.9998C13.4476 4.99962 12.9998 4.55196 12.9998 3.99976C12.9999 3.44766 13.4477 2.99989 13.9998 2.99976H18.9998Z" fill="black"/>
</svg>
