<svg width="24" height="24" viewBox="0 0 24 24" fill="none" xmlns="http://www.w3.org/2000/svg">
<path d="M13.4141 15.0005C12.6331 15.7814 11.367 15.7814 10.5859 15.0005L6.29297 10.7075C5.90244 10.317 5.90245 9.68398 6.29297 9.29346C6.68349 8.90294 7.31651 8.90293 7.70703 9.29346L12 13.5864L16.293 9.29346C16.6835 8.90314 17.3165 8.90312 17.707 9.29346C18.0973 9.68394 18.0973 10.317 17.707 10.7075L13.4141 15.0005Z" fill="black"/>
<path d="M13.4148 15.0003C12.6339 15.7813 11.3668 15.7812 10.5857 15.0003L6.29278 10.7074C5.90248 10.3168 5.90233 9.68375 6.29278 9.2933C6.68323 8.90288 7.31631 8.90302 7.70684 9.2933L11.9998 13.5863L16.2928 9.2933C16.6833 8.90294 17.3173 8.90283 17.7078 9.2933C18.0979 9.68368 18.0977 10.3169 17.7078 10.7074L13.4148 15.0003Z" fill="black"/>
</svg>
