<svg width="24" height="24" viewBox="0 0 24 24" fill="none" xmlns="http://www.w3.org/2000/svg">
<path d="M10.5854 9.58618C11.3664 8.80519 12.6335 8.80529 13.4146 9.58618L17.7075 13.8792C18.0977 14.2697 18.0979 14.9028 17.7075 15.2932C17.3171 15.6836 16.684 15.6834 16.2935 15.2932L12.0005 11.0002L7.70654 15.2932C7.31598 15.6833 6.68285 15.6836 6.29248 15.2932C5.90231 14.9028 5.90249 14.2696 6.29248 13.8792L10.5854 9.58618Z" fill="black"/>
<path d="M10.5857 9.58548C11.3666 8.80476 12.6328 8.80493 13.4138 9.58548L17.7068 13.8784C18.0973 14.269 18.0973 14.903 17.7068 15.2935C17.3163 15.6836 16.6831 15.6838 16.2927 15.2935L11.9998 10.9995L7.7068 15.2935C7.31634 15.6835 6.68316 15.6836 6.29274 15.2935C5.90242 14.903 5.90242 14.2689 6.29274 13.8784L10.5857 9.58548Z" fill="black"/>
</svg>
