<svg width="24" height="24" viewBox="0 0 24 24" fill="none" xmlns="http://www.w3.org/2000/svg">
<path d="M8 12C8.55228 12 9 12.4477 9 13C9 13.5523 8.55228 14 8 14H6C5.44772 14 5 13.5523 5 13C5 12.4477 5.44772 12 6 12H8Z" fill="black"/>
<path d="M7 7C8.10457 7 9 7.89543 9 9C9 10.1046 8.10457 11 7 11C5.89543 11 5 10.1046 5 9C5 7.89543 5.89543 7 7 7Z" fill="black"/>
<path d="M18 12C18.5523 12 19 12.4477 19 13C19 13.5523 18.5523 14 18 14H16C15.4477 14 15 13.5523 15 13C15 12.4477 15.4477 12 16 12H18Z" fill="black"/>
<path d="M18 8C18.5523 8 19 8.44772 19 9C19 9.55228 18.5523 10 18 10H16C15.4477 10 15 9.55228 15 9C15 8.44772 15.4477 8 16 8H18Z" fill="black"/>
<path fill-rule="evenodd" clip-rule="evenodd" d="M10 3C10.7692 3 11.469 3.29156 12 3.76758C12.531 3.29156 13.2308 3 14 3H20C21.6569 3 23 4.34315 23 6V18C23 19.6569 21.6569 21 20 21H14C13.2305 21 12.531 20.7077 12 20.2314C11.469 20.7077 10.7695 21 10 21H4C2.34315 21 1 19.6569 1 18V6C1 4.34315 2.34315 3 4 3H10ZM4 5C3.44772 5 3 5.44772 3 6V18C3 18.5523 3.44772 19 4 19H10C10.5523 19 11 18.5523 11 18V6C11 5.44772 10.5523 5 10 5H4ZM14 5C13.4477 5 13 5.44772 13 6V18C13 18.5523 13.4477 19 14 19H20C20.5523 19 21 18.5523 21 18V6C21 5.44772 20.5523 5 20 5H14Z" fill="black"/>
</svg>
