<svg width="24" height="24" viewBox="0 0 24 24" fill="none" xmlns="http://www.w3.org/2000/svg">
<path fill-rule="evenodd" clip-rule="evenodd" d="M19.3037 14.3535C20.28 13.3774 21.8626 13.3774 22.8389 14.3535C23.8151 15.3298 23.8151 16.9124 22.8389 17.8887L18.7148 22.0137C18.2559 22.4726 17.66 22.7714 17.0176 22.8633L15.2021 23.1211L13.8818 23.3105L14.3301 20.1758C14.4104 19.6138 14.6482 19.0874 15.0137 18.6572L15.1787 18.4785L19.3037 14.3535ZM21.4248 15.7676C21.2296 15.5725 20.913 15.5725 20.7178 15.7676L16.5928 19.8926L16.4883 20.0156C16.3945 20.146 16.3325 20.2985 16.3096 20.459L16.2393 20.9531L16.7344 20.8828C16.9483 20.8522 17.1469 20.7524 17.2998 20.5996L21.4248 16.4746C21.62 16.2793 21.62 15.9628 21.4248 15.7676Z" fill="black"/>
<path d="M10 15C10.5523 15 11 15.4477 11 16C11 16.5523 10.5523 17 10 17H4C3.44772 17 3 16.5523 3 16C3 15.4477 3.44772 15 4 15H10Z" fill="black"/>
<path d="M14 11C14.5523 11 15 11.4477 15 12C15 12.5523 14.5523 13 14 13H4C3.44772 13 3 12.5523 3 12C3 11.4477 3.44772 11 4 11H14Z" fill="black"/>
<path d="M16 7C16.5523 7 17 7.44772 17 8C17 8.55228 16.5523 9 16 9H4C3.44772 9 3 8.55228 3 8C3 7.44772 3.44772 7 4 7H16Z" fill="black"/>
</svg>
