<svg width="24" height="24" viewBox="0 0 24 24" fill="none" xmlns="http://www.w3.org/2000/svg">
<path d="M21.1211 14.4639C21.5115 14.0735 22.1446 14.0738 22.5352 14.4639C22.9257 14.8544 22.9257 15.4874 22.5352 15.8779L20.4131 17.999L22.5352 20.1211C22.9254 20.5116 22.9255 21.1447 22.5352 21.5352C22.1447 21.9256 21.5116 21.9254 21.1211 21.5352L18.999 19.4131L16.8789 21.5352C16.4885 21.9256 15.8554 21.9254 15.4648 21.5352C15.0746 21.1446 15.0744 20.5115 15.4648 20.1211L17.585 17.999L15.4639 15.8779C15.0737 15.4874 15.0735 14.8543 15.4639 14.4639C15.8543 14.0735 16.4874 14.0737 16.8779 14.4639L18.999 16.585L21.1211 14.4639ZM10 3C10.7692 3 11.469 3.29156 12 3.76758C12.531 3.29156 13.2308 3 14 3H20C21.6569 3 23 4.34315 23 6V11C23 11.5523 22.5523 12 22 12C21.4477 12 21 11.5523 21 11V6C21 5.44772 20.5523 5 20 5H14C13.4477 5 13 5.44772 13 6V18C13 19.6569 11.6569 21 10 21H4C2.34315 21 1 19.6569 1 18V6C1 4.34315 2.34315 3 4 3H10ZM4 5C3.44772 5 3 5.44772 3 6V18C3 18.5523 3.44772 19 4 19H10C10.5523 19 11 18.5523 11 18V6C11 5.44772 10.5523 5 10 5H4ZM8 12C8.55228 12 9 12.4477 9 13C9 13.5523 8.55228 14 8 14H6C5.44772 14 5 13.5523 5 13C5 12.4477 5.44772 12 6 12H8ZM7 7C8.10457 7 9 7.89543 9 9C9 10.1046 8.10457 11 7 11C5.89543 11 5 10.1046 5 9C5 7.89543 5.89543 7 7 7Z" fill="black"/>
</svg>
