<svg width="24" height="24" viewBox="0 0 24 24" fill="none" xmlns="http://www.w3.org/2000/svg">
<path d="M22.001 21.001C22.553 21.0013 23.001 21.4489 23.001 22.001C23.0007 22.5529 22.5529 23.0007 22.001 23.001L16 23C15.4477 23 15 22.5522 15 22C15 21.4477 15.4478 21 16 21L22.001 21.001Z" fill="black"/>
<path d="M8 12C8.55228 12 9 12.4477 9 13C9 13.5523 8.55228 14 8 14H6C5.44772 14 5 13.5523 5 13C5 12.4477 5.44772 12 6 12H8Z" fill="black"/>
<path d="M7 7C8.10457 7 9 7.89543 9 9C9 10.1046 8.10457 11 7 11C5.89543 11 5 10.1046 5 9C5 7.89543 5.89543 7 7 7Z" fill="black"/>
<path fill-rule="evenodd" clip-rule="evenodd" d="M10 3C10.7692 3 11.469 3.29156 12 3.76758C12.531 3.29156 13.2308 3 14 3H20C21.6569 3 23 4.34315 23 6V10C23 10.5523 22.5523 11 22 11C21.4477 11 21 10.5523 21 10V6C21 5.44772 20.5523 5 20 5H14C13.4477 5 13 5.44772 13 6V18C13 19.6569 11.6569 21 10 21H4C2.34315 21 1 19.6569 1 18V6C1 4.34315 2.34315 3 4 3H10ZM4 5C3.44772 5 3 5.44772 3 6V18C3 18.5523 3.44772 19 4 19H10C10.5523 19 11 18.5523 11 18V6C11 5.44772 10.5523 5 10 5H4Z" fill="black"/>
<path d="M22.001 17.001C22.553 17.0013 23.001 17.4489 23.001 18.001C23.0007 18.5529 22.5529 19.0007 22.001 19.001L16 19C15.4477 19 15 18.5522 15 18C15 17.4477 15.4478 17 16 17L22.001 17.001Z" fill="black"/>
<path d="M22.001 13.001C22.553 13.0013 23.001 13.4489 23.001 14.001C23.0007 14.5529 22.5529 15.0007 22.001 15.001L16 15C15.4477 15 15 14.5522 15 14C15 13.4477 15.4478 13 16 13L22.001 13.001Z" fill="black"/>
</svg>
