<svg width="24" height="24" viewBox="0 0 24 24" fill="none" xmlns="http://www.w3.org/2000/svg">
<path d="M11.5 13C12.6519 13 13.7477 13.1593 14.7324 13.3945C15.2695 13.5229 15.601 14.0625 15.4727 14.5996C15.3442 15.1365 14.8046 15.4681 14.2676 15.3398C13.4082 15.1346 12.47 15 11.5 15C9.20652 15 7.1096 15.7504 5.85547 16.3779C5.66239 16.4748 5.5 16.709 5.5 17.0459C5.50003 17.5728 5.92718 18 6.4541 18H13C13.5523 18 14 18.4477 14 19C14 19.5523 13.5523 20 13 20H6.4541C4.82261 20 3.50003 18.6774 3.5 17.0459C3.5 16.0762 3.98559 15.0769 4.96094 14.5889C6.39709 13.8702 8.80402 13 11.5 13Z" fill="black"/>
<path d="M22.4209 12H20.4209V17.5C20.4209 18.2 20.1796 18.7921 19.6963 19.2754C19.213 19.7586 18.6208 20 17.9209 20C17.2212 19.9999 16.6297 19.7584 16.1465 19.2754C15.6632 18.7921 15.4209 18.2 15.4209 17.5C15.4209 16.8 15.6632 16.2079 16.1465 15.7246C16.6297 15.2416 17.2212 15.0001 17.9209 15C18.0542 15 18.2045 15.0121 18.3711 15.0371C18.5377 15.0621 18.721 15.1169 18.9209 15.2002V10H22.4209V12Z" fill="black"/>
<path fill-rule="evenodd" clip-rule="evenodd" d="M11.4209 4C12.5208 4 13.4628 4.39159 14.2461 5.1748C15.0294 5.95814 15.4209 6.9 15.4209 8C15.4209 9.1 15.0294 10.0419 14.2461 10.8252C13.4628 11.6084 12.5208 12 11.4209 12C10.3212 11.9999 9.37987 11.6082 8.59668 10.8252C7.81335 10.0419 7.4209 9.1 7.4209 8C7.4209 6.9 7.81335 5.95814 8.59668 5.1748C9.37987 4.39176 10.3212 4.00009 11.4209 4ZM11.4209 6C10.8711 6.00009 10.4004 6.19631 10.0088 6.58789C9.61724 6.97952 9.4209 7.45009 9.4209 8C9.4209 8.54991 9.61724 9.02048 10.0088 9.41211C10.4004 9.80369 10.8711 9.99991 11.4209 10C11.9709 10 12.4423 9.80378 12.834 9.41211C13.2254 9.0205 13.4209 8.54986 13.4209 8C13.4209 7.45014 13.2254 6.9795 12.834 6.58789C12.4423 6.19622 11.9709 6 11.4209 6Z" fill="black"/>
</svg>
