<svg width="24" height="24" viewBox="0 0 24 24" fill="none" xmlns="http://www.w3.org/2000/svg">
<g clip-path="url(#clip0_246_52089)">
<path d="M10 3C10.7692 3 11.469 3.29156 12 3.76758C12.531 3.29156 13.2308 3 14 3H20C21.6569 3 23 4.34315 23 6V10C23 10.5523 22.5523 11 22 11C21.4477 11 21 10.5523 21 10V6C21 5.44772 20.5523 5 20 5H14C13.4477 5 13 5.44772 13 6V18C13 19.6569 11.6569 21 10 21H4C2.34315 21 1 19.6569 1 18V6C1 4.34315 2.34315 3 4 3H10ZM22.2969 14.3135C22.6874 13.9231 23.3205 13.9231 23.7109 14.3135C24.1011 14.704 24.1012 15.3371 23.7109 15.7275L19.5088 19.9297C19.4111 20.0273 19.2981 20.1006 19.1777 20.1494C19.1178 20.1737 19.0559 20.1919 18.9932 20.2041C18.93 20.2164 18.8659 20.2217 18.8018 20.2217C18.5459 20.2218 18.29 20.1248 18.0947 19.9297L15.293 17.1279C14.9026 16.7374 14.9026 16.1043 15.293 15.7139C15.6835 15.3235 16.3165 15.3235 16.707 15.7139L18.8008 17.8076L22.2969 14.3135ZM4 5C3.44772 5 3 5.44772 3 6V18C3 18.5523 3.44772 19 4 19H10C10.5523 19 11 18.5523 11 18V6C11 5.44772 10.5523 5 10 5H4ZM8 12C8.55228 12 9 12.4477 9 13C9 13.5523 8.55228 14 8 14H6C5.44772 14 5 13.5523 5 13C5 12.4477 5.44772 12 6 12H8ZM7 7C8.10457 7 9 7.89543 9 9C9 10.1046 8.10457 11 7 11C5.89543 11 5 10.1046 5 9C5 7.89543 5.89543 7 7 7Z" fill="black"/>
</g>
<defs>
<clipPath id="clip0_246_52089">
<rect width="24" height="24" fill="white"/>
</clipPath>
</defs>
</svg>
