<svg width="24" height="24" viewBox="0 0 24 24" fill="none" xmlns="http://www.w3.org/2000/svg">
<path d="M22.4211 11.9092H20.4211V17.4092C20.4211 18.1091 20.1798 18.7013 19.6965 19.1846C19.2132 19.6678 18.6211 19.9092 17.9211 19.9092C17.2214 19.9092 16.6299 19.6676 16.1467 19.1846C15.6634 18.7013 15.4212 18.1091 15.4211 17.4092C15.4211 16.7092 15.6634 16.1171 16.1467 15.6338C16.63 15.1507 17.2214 14.9092 17.9211 14.9092C18.0545 14.9092 18.2047 14.9213 18.3713 14.9463C18.538 14.9713 18.7212 15.026 18.9211 15.1094V9.90918H22.4211V11.9092ZM11.5002 13.2725C12.0267 13.2725 12.542 13.3066 13.0393 13.3662C14.3955 13.5292 15.0904 14.9045 14.7073 16.0879L14.0178 18.2178C13.7264 19.1175 12.8883 19.7273 11.9426 19.7275H5.95435C4.74973 19.7273 3.77297 18.7505 3.77271 17.5459V16.7783C3.77275 16.0605 4.13043 15.3345 4.82935 14.9639C6.20488 14.2346 8.69779 13.2725 11.5002 13.2725ZM11.4211 3.90918C12.5211 3.90918 13.463 4.30067 14.2463 5.08398C15.0297 5.86732 15.4211 6.80918 15.4211 7.90918C15.4211 9.00915 15.0297 9.95106 14.2463 10.7344C13.463 11.5176 12.5211 11.9092 11.4211 11.9092C10.3212 11.9092 9.37925 11.5177 8.59595 10.7344C7.81265 9.95106 7.42116 9.00914 7.42114 7.90918C7.42114 6.80923 7.81268 5.8673 8.59595 5.08398C9.37925 4.30068 10.3212 3.90921 11.4211 3.90918Z" fill="black"/>
</svg>
