<svg width="24" height="24" viewBox="0 0 24 24" fill="none" xmlns="http://www.w3.org/2000/svg">
<path d="M12 2C13.3132 2.00001 14.6139 2.25823 15.8271 2.76074C17.0403 3.26329 18.1428 4.0002 19.0713 4.92871L19.4111 5.28516C20.1808 6.13467 20.7996 7.11152 21.2393 8.17285C21.7418 9.38608 22 10.6868 22 12C22 13.3132 21.7418 14.6139 21.2393 15.8271C20.7367 17.0403 19.9998 18.1428 19.0713 19.0713C18.1428 19.9998 17.0403 20.7367 15.8272 21.2393C14.6139 21.7418 13.3132 22 12 22C10.6868 22 9.38608 21.7418 8.17285 21.2393C6.95968 20.7367 5.85725 19.9998 4.92871 19.0713C4.0002 18.1428 3.26329 17.0403 2.76074 15.8272C2.25823 14.6139 2.00001 13.3132 2 12C2 10.6868 2.25822 9.38608 2.76074 8.17286C3.26329 6.95968 4.00018 5.85725 4.92871 4.92871C5.85725 4.00018 6.95967 3.26329 8.17285 2.76075C9.38608 2.25823 10.6868 2 12 2ZM12 3.99903C10.9495 3.99903 9.90903 4.20739 8.93848 4.60938C7.96801 5.01141 7.08555 5.6 6.34277 6.34278C5.6 7.08555 5.01141 7.96802 4.60938 8.93848C4.20739 9.90903 3.99903 10.9495 3.99903 12C3.99903 13.0505 4.2074 14.091 4.60938 15.0615C5.01141 16.032 5.60002 16.9145 6.34278 17.6572C7.08555 18.4 7.96802 18.9886 8.93848 19.3906C9.90903 19.7926 10.9495 20 12 20C13.0505 20 14.091 19.7926 15.0615 19.3906C16.032 18.9886 16.9145 18.4 17.6572 17.6572C18.4 16.9145 18.9886 16.032 19.3906 15.0615C19.7926 14.091 20 13.0505 20 12C20 10.9495 19.7926 9.90903 19.3906 8.93848C18.9886 7.96803 18.4 7.08555 17.6572 6.34277L17.3721 6.07129C16.6925 5.45551 15.9106 4.96112 15.0615 4.60938C14.091 4.2074 13.0505 3.99904 12 3.99903ZM12 15C12.5523 15 13 15.4477 13 16C13 16.5523 12.5523 17 12 17C11.4477 17 11 16.5523 11 16C11 15.4477 11.4477 15 12 15ZM12 7C12.5523 7 13 7.44772 13 8L13 13C13 13.5523 12.5523 14 12 14C11.4477 14 11 13.5523 11 13L11 8C11 7.44772 11.4477 7 12 7Z" fill="black"/>
<path d="M12 15C12.5523 15 13 15.4477 13 16C13 16.5523 12.5523 17 12 17C11.4477 17 11 16.5523 11 16C11 15.4477 11.4477 15 12 15Z" fill="black"/>
<path d="M12 7C12.5523 7 13 7.44772 13 8L13 13C13 13.5523 12.5523 14 12 14C11.4477 14 11 13.5523 11 13L11 8C11 7.44772 11.4477 7 12 7Z" fill="black"/>
<path fill-rule="evenodd" clip-rule="evenodd" d="M12 2C13.3132 2.00001 14.6139 2.25824 15.8271 2.76075C17.0403 3.26329 18.1428 4.0002 19.0713 4.92871L19.4111 5.28516C20.1808 6.13467 20.7996 7.11153 21.2393 8.17285C21.7418 9.38608 22 10.6868 22 12C22 13.3132 21.7418 14.6139 21.2393 15.8272C20.7367 17.0403 19.9998 18.1428 19.0713 19.0713C18.1428 19.9998 17.0403 20.7367 15.8272 21.2393C14.6139 21.7418 13.3132 22 12 22C10.6868 22 9.38608 21.7418 8.17285 21.2393C6.95967 20.7367 5.85725 19.9998 4.92871 19.0713C4.0002 18.1428 3.26329 17.0403 2.76074 15.8272C2.25823 14.6139 2.00001 13.3132 2 12C2 10.6868 2.25822 9.38608 2.76074 8.17286C3.26329 6.95968 4.00017 5.85725 4.92871 4.92872C5.85725 4.00018 6.95966 3.26329 8.17285 2.76075C9.38608 2.25823 10.6868 2 12 2ZM12 3.99903C10.9495 3.99903 9.90902 4.20739 8.93848 4.60938C7.96801 5.01141 7.08555 5.6 6.34277 6.34278C5.6 7.08555 5.01141 7.96803 4.60937 8.93848C4.20739 9.90903 3.99902 10.9495 3.99902 12C3.99903 13.0505 4.2074 14.091 4.60938 15.0615C5.01141 16.032 5.60002 16.9145 6.34277 17.6572C7.08555 18.4 7.96802 18.9886 8.93848 19.3906C9.90903 19.7926 10.9495 20 12 20C13.0505 20 14.091 19.7926 15.0615 19.3906C16.032 18.9886 16.9145 18.4 17.6572 17.6572C18.4 16.9145 18.9886 16.032 19.3906 15.0615C19.7926 14.091 20 13.0505 20 12C20 10.9495 19.7926 9.90903 19.3906 8.93848C18.9886 7.96803 18.4 7.08555 17.6572 6.34278L17.3721 6.07129C16.6925 5.45551 15.9106 4.96113 15.0615 4.60938C14.091 4.2074 13.0505 3.99904 12 3.99903Z" fill="black"/>
</svg>
