<svg width="24" height="24" viewBox="0 0 24 24" fill="none" xmlns="http://www.w3.org/2000/svg">
<path d="M17.293 5.29305C17.6835 4.90252 18.3166 4.90252 18.7071 5.29305C19.0975 5.68358 19.0976 6.31661 18.7071 6.70711L13.4141 12.0001L18.7071 17.293C19.0975 17.6836 19.0976 18.3166 18.7071 18.7071C18.3166 19.0976 17.6835 19.0975 17.293 18.7071L12 13.4141L6.70708 18.7071C6.31657 19.0976 5.68353 19.0976 5.29301 18.7071C4.9025 18.3166 4.90252 17.6836 5.29301 17.293L10.586 12.0001L5.29301 6.70711C4.90249 6.31658 4.90249 5.68357 5.29301 5.29305C5.68354 4.90253 6.31656 4.90253 6.70708 5.29305L12 10.586L17.293 5.29305Z" fill="black"/>
</svg>
