<svg width="24" height="24" viewBox="0 0 24 24" fill="none" xmlns="http://www.w3.org/2000/svg">
<path d="M19.3035 14.3535C20.2797 13.3773 21.8623 13.3774 22.8386 14.3535C23.8149 15.3298 23.8149 16.9124 22.8386 17.8887L18.7146 22.0137C18.2556 22.4726 17.6599 22.7715 17.0173 22.8633L15.2029 23.1211L13.8826 23.3105L14.071 21.9902L14.3298 20.1758C14.4101 19.6137 14.6488 19.0874 15.0144 18.6572L15.1794 18.4785L19.3035 14.3535ZM21.4246 15.7676C21.2293 15.5726 20.9127 15.5724 20.7175 15.7676L16.5935 19.8926L16.488 20.0156C16.3943 20.146 16.3332 20.2985 16.3103 20.459L16.24 20.9531L16.7341 20.8828C16.9483 20.8522 17.1476 20.7526 17.3005 20.5996L21.4246 16.4746C21.6198 16.2793 21.6198 15.9628 21.4246 15.7676ZM11.5007 13C12.8709 13.0001 14.163 13.2247 15.2839 13.5361C15.8157 13.6841 16.1278 14.2357 15.9802 14.7676C15.8324 15.2995 15.2807 15.6112 14.7488 15.4639C13.7656 15.1907 12.6557 15.0001 11.5007 15C9.20749 15 7.11038 15.7504 5.8562 16.3779C5.66312 16.4748 5.50073 16.709 5.50073 17.0459C5.50077 17.5728 5.92791 18 6.45483 18H12.0007C12.5528 18.0003 13.0007 18.4479 13.0007 19C13.0007 19.5521 12.5528 19.9997 12.0007 20H6.45483C4.82334 20 3.50077 18.6774 3.50073 17.0459C3.50073 16.0762 3.98632 15.0769 4.96167 14.5889C6.39787 13.8703 8.805 13 11.5007 13ZM11.4216 4C12.5213 4.00009 13.4627 4.39176 14.2458 5.1748C15.0292 5.95814 15.4216 6.9 15.4216 8C15.4216 9.1 15.0292 10.0419 14.2458 10.8252C13.4627 11.6082 12.5213 11.9999 11.4216 12C10.3217 12 9.37973 11.6084 8.59644 10.8252C7.8131 10.0419 7.42163 9.1 7.42163 8C7.42163 6.9 7.8131 5.95814 8.59644 5.1748C9.37973 4.39159 10.3217 4 11.4216 4ZM11.4216 6C10.8716 6 10.4002 6.19622 10.0085 6.58789C9.61708 6.9795 9.42163 7.45014 9.42163 8C9.42163 8.54986 9.61708 9.0205 10.0085 9.41211C10.4002 9.80378 10.8716 10 11.4216 10C11.9715 9.99991 12.4422 9.80369 12.8337 9.41211C13.2253 9.02048 13.4216 8.54991 13.4216 8C13.4216 7.45009 13.2253 6.97952 12.8337 6.58789C12.4422 6.19631 11.9715 6.00009 11.4216 6Z" fill="black"/>
</svg>
