<svg width="24" height="24" viewBox="0 0 24 24" fill="none" xmlns="http://www.w3.org/2000/svg">
<path d="M19.657 14.707C20.438 13.9261 21.704 13.9262 22.4851 14.707C23.2662 15.4881 23.2662 16.7541 22.4851 17.5352L18.3611 21.6602C17.9787 22.0425 17.4823 22.2906 16.947 22.3672L15.1316 22.627L14.4714 22.7207L14.825 20.2461C14.8919 19.7776 15.0905 19.339 15.3953 18.9805L15.533 18.832L19.657 14.707Z" fill="black"/>
<path d="M11.5007 13C12.4196 13.0001 13.6476 13.299 14.6169 13.5645C16.1136 13.9747 16.5658 15.8486 15.4958 16.9189L13.2937 19.1211C12.7313 19.6835 11.968 19.9998 11.1726 20H6.45483C4.82334 20 3.49979 18.6774 3.49976 17.0459C3.49976 16.0762 3.98632 15.0769 4.96167 14.5889C6.39787 13.8703 8.805 13 11.5007 13Z" fill="black"/>
<path d="M11.4216 4C12.5213 4.00009 13.4627 4.39176 14.2458 5.1748C15.0292 5.95814 15.4216 6.9 15.4216 8C15.4216 9.1 15.0292 10.0419 14.2458 10.8252C13.4627 11.6082 12.5213 11.9999 11.4216 12C10.3217 12 9.37973 11.6084 8.59644 10.8252C7.8131 10.0419 7.42163 9.1 7.42163 8C7.42163 6.9 7.8131 5.95814 8.59644 5.1748C9.37973 4.39159 10.3217 4 11.4216 4Z" fill="black"/>
</svg>
