<svg width="24" height="24" viewBox="0 0 24 24" fill="none" xmlns="http://www.w3.org/2000/svg">
<path d="M5.86732 19.1425C5.94208 20.1891 6.81296 21 7.86224 21H16.1378C17.187 21 18.0579 20.1891 18.1327 19.1425L18.9235 8.07125C18.9648 7.49238 18.5064 7 17.926 7H6.07398C5.49363 7 5.03517 7.49238 5.07652 8.07125L5.86732 19.1425Z" stroke="black" stroke-width="2"/>
<path d="M3.91877 4.34578C4.1976 3.54027 4.95633 3 5.80874 3H17.708C18.4546 3 19.139 3.4158 19.483 4.07837L20.2415 5.53919C20.5871 6.20487 20.1041 7 19.354 7H4.40437C3.71697 7 3.23453 6.32247 3.45938 5.67289L3.91877 4.34578Z" stroke="black" stroke-width="2"/>
<path d="M9 11L9.5 17" stroke="black" stroke-width="1.6" stroke-linecap="round"/>
<path d="M15 11L14.5 17" stroke="black" stroke-width="1.6" stroke-linecap="round"/>
<path d="M12 11V17" stroke="black" stroke-width="1.6" stroke-linecap="round"/>
</svg>
