<svg width="24" height="24" viewBox="0 0 24 24" fill="none" xmlns="http://www.w3.org/2000/svg">
<path d="M15 11C15.5523 11 16 11.4477 16 12C16 12.5523 15.5523 13 15 13H9C8.44772 13 8 12.5523 8 12C8 11.4477 8.44772 11 9 11H15Z" fill="black"/>
<path d="M15 7C15.5523 7 16 7.44772 16 8C16 8.55228 15.5523 9 15 9H9C8.44772 9 8 8.55228 8 8C8 7.44772 8.44772 7 9 7H15Z" fill="black"/>
<path fill-rule="evenodd" clip-rule="evenodd" d="M17 2C18.6569 2 20 3.34315 20 5V18C20 19.6569 18.6569 21 17 21H10V22.5C10 23.3284 9.32843 24 8.5 24C7.67157 24 7 23.3284 7 22.5V21C5.34315 21 4 19.6569 4 18V5C4 3.34315 5.34315 2 7 2H17ZM7 4C6.44772 4 6 4.44772 6 5V18C6 18.5523 6.44772 19 7 19H17C17.5523 19 18 18.5523 18 18V5C18 4.44772 17.5523 4 17 4H7Z" fill="black"/>
</svg>
