<svg width="24" height="24" viewBox="0 0 24 24" fill="none" xmlns="http://www.w3.org/2000/svg">
<path d="M17 2C18.6569 2 20 3.34315 20 5V11C20 11.5523 19.5523 12 19 12C18.4477 12 18 11.5523 18 11V5C18 4.44772 17.5523 4 17 4H7C6.44772 4 6 4.44772 6 5V18C6 18.5523 6.44772 19 7 19H12C12.5523 19 13 19.4477 13 20C13 20.5523 12.5523 21 12 21H10V22.5C10 23.3284 9.32843 24 8.5 24C7.67157 24 7 23.3284 7 22.5V21C5.34315 21 4 19.6569 4 18V5C4 3.34315 5.34315 2 7 2H17ZM18 14C18.5523 14 19 14.4477 19 15V17H21C21.5523 17 22 17.4477 22 18C22 18.5523 21.5523 19 21 19H19V21C19 21.5523 18.5523 22 18 22C17.4477 22 17 21.5523 17 21V19H15C14.4477 19 14 18.5523 14 18C14 17.4477 14.4477 17 15 17H17V15C17 14.4477 17.4477 14 18 14ZM15.1025 11.0049C15.6067 11.0562 16 11.4823 16 12C16 12.5177 15.6067 12.9438 15.1025 12.9951L15 13H9C8.44772 13 8 12.5523 8 12C8 11.4477 8.44772 11 9 11H15L15.1025 11.0049ZM15 7C15.5523 7 16 7.44772 16 8C16 8.55228 15.5523 9 15 9H9C8.44772 9 8 8.55228 8 8C8 7.44772 8.44772 7 9 7H15Z" fill="black"/>
</svg>
