<svg width="24" height="24" viewBox="0 0 24 24" fill="none" xmlns="http://www.w3.org/2000/svg">
<path d="M17 2C18.6569 2 20 3.34315 20 5V9C20 9.55228 19.5523 10 19 10C18.4477 10 18 9.55228 18 9V5C18 4.44772 17.5523 4 17 4H7C6.44772 4 6 4.44772 6 5V18C6 18.5523 6.44772 19 7 19H12C12.5523 19 13 19.4477 13 20C13 20.5523 12.5523 21 12 21H10V22.5C10 23.3284 9.32843 24 8.5 24C7.67157 24 7 23.3284 7 22.5V21C5.34315 21 4 19.6569 4 18V5C4 3.34315 5.34315 2 7 2H17ZM17 12C19.2091 12 21 13.7909 21 16C21 16.7417 20.7971 17.4358 20.4453 18.0312L23.707 21.293C24.0976 21.6835 24.0976 22.3165 23.707 22.707C23.3165 23.0976 22.6835 23.0976 22.293 22.707L19.0312 19.4453C18.4358 19.7971 17.7417 20 17 20C14.7909 20 13 18.2091 13 16C13 13.7909 14.7909 12 17 12ZM17 14C15.8954 14 15 14.8954 15 16C15 17.1046 15.8954 18 17 18C18.1046 18 19 17.1046 19 16C19 14.8954 18.1046 14 17 14ZM12.5 11C13.0523 11 13.5 11.4477 13.5 12C13.5 12.5523 13.0523 13 12.5 13H9C8.44772 13 8 12.5523 8 12C8 11.4477 8.44772 11 9 11H12.5ZM15 7C15.5523 7 16 7.44772 16 8C16 8.55228 15.5523 9 15 9H9C8.44772 9 8 8.55228 8 8C8 7.44772 8.44772 7 9 7H15Z" fill="black"/>
</svg>
