<svg width="24" height="24" viewBox="0 0 24 24" fill="none" xmlns="http://www.w3.org/2000/svg">
<path d="M11.7646 2.86328C11.8441 2.64303 12.1559 2.64303 12.2354 2.86328L14.2607 8.48047L14.4365 8.96582L14.9521 8.97559L21.0215 9.09473C21.2607 9.09947 21.3573 9.40568 21.1641 9.54688L16.3574 13.0586L15.9238 13.376L16.084 13.8887L17.8486 19.5098C17.9191 19.735 17.6668 19.9235 17.4707 19.792L12.418 16.4033L12 16.123L11.582 16.4033L6.5293 19.792C6.33321 19.9235 6.08087 19.735 6.15137 19.5098L7.91602 13.8887L8.07617 13.376L7.64258 13.0586L2.83594 9.54688C2.6427 9.40567 2.73926 9.09947 2.97852 9.09473L9.04785 8.97559L9.56348 8.96582L9.73926 8.48047L11.7646 2.86328Z" fill="black" stroke="black" stroke-width="1.5"/>
</svg>
