<svg width="24" height="24" viewBox="0 0 24 24" fill="none" xmlns="http://www.w3.org/2000/svg">
<path d="M16.5 2.825C15.1639 2.825 13.8691 3.30259 12.8464 4.10385C12.3617 4.48368 11.6383 4.48368 11.1536 4.10385C10.1309 3.30259 8.83609 2.825 7.5 2.825C4.42 2.825 2 5.245 2 8.325C2 12.105 5.4 15.185 10.55 19.865L11.3271 20.567C11.7089 20.912 12.2901 20.9109 12.6706 20.5645L13.45 19.855C18.6 15.185 22 12.105 22 8.325C22 5.245 19.58 2.825 16.5 2.825ZM12.1 18.375V18.375C12.0448 18.4302 11.9552 18.4302 11.9 18.375V18.375C7.14 14.065 4 11.215 4 8.325C4 6.325 5.5 4.825 7.5 4.825C8.71559 4.825 9.90625 5.44183 10.6146 6.37549C10.9541 6.82289 11.4402 7.185 12.0018 7.185V7.185C12.5666 7.185 13.0546 6.81868 13.3956 6.36846C14.0997 5.43874 15.2875 4.825 16.5 4.825C18.5 4.825 20 6.325 20 8.325C20 11.215 16.86 14.065 12.1 18.375Z" fill="black"/>
</svg>
