<svg width="24" height="24" viewBox="0 0 24 24" fill="none" xmlns="http://www.w3.org/2000/svg">
<path d="M6.6969 1.13544C7.78827 1.23764 8.67809 2.09077 8.80725 3.19989L9.38831 8.21649C9.78893 7.87679 10.2967 7.65616 10.861 7.61786C11.6837 7.56225 12.4393 7.90546 12.9449 8.48016C13.4503 7.90523 14.2061 7.56231 15.0289 7.61786C15.5583 7.65366 16.039 7.84866 16.4274 8.15302L16.7584 4.84442C16.8646 3.7844 17.7575 2.97839 18.8219 2.97821L19.0494 2.98993C20.1671 3.11109 21.004 4.11505 20.8912 5.26141C20.6267 7.94818 20.1217 13.4124 20.1217 15.946C20.1217 18.5425 19.154 19.9123 18.4645 20.5456C18.1914 20.7964 18.0095 20.9648 17.8893 21.1589L17.4176 21.9196C16.9531 22.6691 16.1332 23.1247 15.2516 23.1247H9.2926C8.18985 23.1246 7.21243 22.4151 6.87073 21.3669L6.76721 21.0495V21.0485C6.70235 20.8494 6.58376 20.6716 6.42542 20.5339L5.31213 19.5651C5.20243 19.4697 5.07913 19.4047 4.8551 19.277C4.83938 19.2684 4.82378 19.2596 4.80823 19.2507C4.75528 19.2202 4.70372 19.1873 4.65295 19.153C4.62607 19.1349 4.60006 19.1156 4.57385 19.0964C4.53884 19.0708 4.5041 19.0447 4.47034 19.0173C4.44564 18.9972 4.42205 18.9758 4.39807 18.9548C4.36642 18.927 4.33564 18.8983 4.3053 18.8688C4.28285 18.847 4.2596 18.8261 4.23792 18.8034C4.19119 18.7546 4.14615 18.7039 4.10315 18.6511C4.08588 18.6298 4.06997 18.6075 4.05334 18.5856C4.02219 18.5447 3.99232 18.5027 3.9635 18.4597C3.94993 18.4393 3.93649 18.4189 3.92346 18.3981C3.89021 18.3452 3.85831 18.291 3.82874 18.235C3.82222 18.2227 3.81554 18.2104 3.8092 18.1979C3.80552 18.1907 3.80111 18.1838 3.79749 18.1765L3.70667 17.9714C3.6803 17.9039 3.65857 17.8355 3.63831 17.7673C3.63025 17.7402 3.62198 17.7134 3.61487 17.6862C3.59752 17.6199 3.58174 17.5536 3.56995 17.487C3.56707 17.4708 3.56567 17.4544 3.56311 17.4382C3.55417 17.3812 3.5476 17.3242 3.5426 17.2673C3.54061 17.2448 3.53813 17.2224 3.53674 17.1999C3.53323 17.1421 3.53141 17.0845 3.53186 17.027V16.9753C3.53229 16.9596 3.53407 16.944 3.53479 16.9284C3.5375 16.8705 3.54183 16.8128 3.54846 16.7556C3.55125 16.7313 3.55573 16.7074 3.5592 16.6833C3.56642 16.6335 3.57448 16.584 3.58459 16.5349C3.59138 16.5018 3.59897 16.469 3.60706 16.4362C3.61869 16.3892 3.63187 16.3427 3.64612 16.2966C3.65972 16.2524 3.67509 16.209 3.69104 16.1657C3.70264 16.1343 3.71435 16.1029 3.72717 16.072C3.742 16.0361 3.7576 16.0007 3.77405 15.9655C3.79406 15.9228 3.8142 15.8801 3.83655 15.8386L3.85413 15.8034C3.86656 15.7811 3.88105 15.7599 3.89417 15.738C3.90894 15.7132 3.92445 15.689 3.94006 15.6647C3.96269 15.6296 3.98503 15.5943 4.0094 15.5602C4.15473 15.355 4.24369 15.2479 4.34827 15.0866C4.44046 14.9444 4.49106 14.8358 4.51428 14.7399C4.68858 14.0194 4.83844 13.0886 4.8385 12.0095C4.83852 10.1617 4.41208 6.15252 4.13635 3.75458C3.97624 2.35869 5.06569 1.12602 6.4762 1.12567L6.6969 1.13544ZM18.8219 4.36688C18.4703 4.36702 18.1762 4.63413 18.1412 4.98309L17.5065 11.3366C17.4767 11.6339 17.3957 11.9142 17.274 12.1706V12.1784C17.1791 13.5821 15.9638 14.6435 14.5602 14.5485C13.9256 14.5055 13.3622 14.2329 12.943 13.8181C12.8523 13.9073 12.7554 13.99 12.652 14.0651C12.7147 14.1742 12.7737 14.2872 12.8209 14.4079C13.3332 15.7182 12.6868 17.1964 11.3766 17.7087L7.1803 19.3483L7.33752 19.485C7.68524 19.7875 7.94453 20.1792 8.08752 20.6179L8.19104 20.9352V20.9362C8.34631 21.4129 8.7914 21.736 9.2926 21.736H15.2516C15.6524 21.736 16.0249 21.5278 16.236 21.1872L16.7076 20.4265C16.9489 20.0372 17.2927 19.7355 17.525 19.5222C17.9287 19.1513 18.733 18.1523 18.733 15.946C18.733 13.3284 19.2464 7.78553 19.5084 5.12469C19.5481 4.71886 19.2295 4.3669 18.8219 4.36688ZM11.528 14.9138C11.2951 14.3183 10.6225 14.0238 10.027 14.2565L5.65686 15.9655C5.45325 16.0452 5.28574 16.1768 5.16174 16.3386C5.15186 16.3523 5.14286 16.3656 5.1344 16.3776C4.91696 16.6862 4.85523 17.0909 5.00159 17.4655L5.0426 17.5583C5.14688 17.7691 5.30815 17.9356 5.50159 18.0466C5.50963 18.0512 5.51834 18.0554 5.52698 18.0602C5.81631 18.2174 6.16994 18.2519 6.50061 18.1227L10.8707 16.4138C11.4661 16.1808 11.7607 15.5092 11.528 14.9138ZM6.4762 2.51434C5.90123 2.51461 5.45108 3.0197 5.51721 3.59637C5.78953 5.96467 6.22719 10.0641 6.22717 12.0095C6.22713 12.8772 6.14036 13.6596 6.01917 14.3317L8.91077 13.2009C8.75767 12.9136 8.65749 12.5935 8.62463 12.2507C8.48678 11.9845 8.39349 11.6903 8.35706 11.3766L7.42639 3.36005C7.37013 2.8786 6.96193 2.51436 6.4762 2.51434ZM14.9352 9.00262C14.2974 8.95971 13.745 9.4429 13.7018 10.0807L13.6412 10.9714L13.6998 11.8347C13.7141 12.0464 13.7003 12.2539 13.6647 12.4538C13.8289 12.8451 14.2019 13.1321 14.6539 13.1628C15.292 13.2059 15.8452 12.7227 15.8883 12.0847L16.0133 10.237C16.0564 9.59901 15.5732 9.04578 14.9352 9.00262ZM10.9547 9.0036C10.317 9.04704 9.83445 9.59918 9.87756 10.237L10.0026 12.0856C10.0213 12.3603 10.1344 12.6062 10.3082 12.7936C10.7644 12.7683 11.2125 12.8683 11.61 13.072C11.8907 12.9527 12.1108 12.7269 12.2262 12.4479C12.1915 12.2498 12.1769 12.0443 12.191 11.8347L12.2487 10.9792L12.1881 10.0807C12.1449 9.44282 11.5926 8.96053 10.9547 9.0036Z" fill="black"/>
</svg>
