<svg width="24" height="24" viewBox="0 0 24 24" fill="none" xmlns="http://www.w3.org/2000/svg">
<path d="M19.8164 3.50098C20.651 3.50133 21.3081 4.21292 21.2412 5.04492C21.0294 7.68081 20.6289 13.0349 20.6289 15.8486C20.6287 19.6738 19.1947 20.1534 18.2383 21.5879C17.6542 22.4638 17.0693 22.9843 16.7031 23.2559C16.4649 23.4322 16.1695 23.5009 15.873 23.501H9.27148C8.36598 23.5005 7.58444 22.864 7.39941 21.9775L7.25 21.2617C7.16485 20.8531 6.94758 20.4831 6.63281 20.209L6.43359 20.0352C6.60174 20.0025 6.77034 19.9572 6.93555 19.8926L11.4473 18.1289C12.9229 17.5518 13.6519 15.8879 13.0752 14.4121C12.944 14.0764 12.7541 13.7811 12.5254 13.5293C12.6866 13.4331 12.8395 13.3239 12.9785 13.1992C13.4864 13.6547 14.1558 13.9345 14.8916 13.9346C16.0661 13.934 17.0749 13.2268 17.5186 12.2158C17.7309 11.9339 17.868 11.5904 17.8975 11.2148L18.3975 4.81348C18.4554 4.07285 19.0736 3.50153 19.8164 3.50098ZM9.70605 13.6748C10.69 13.2902 11.7998 13.7759 12.1846 14.7598C12.5693 15.7438 12.0827 16.8536 11.0986 17.2383L6.58691 19.002C5.60289 19.3867 4.4931 18.901 4.1084 17.917C3.72387 16.9331 4.20948 15.8232 5.19336 15.4385L9.70605 13.6748ZM5.54297 1.50098C6.43559 1.50138 7.18229 2.18053 7.26562 3.06934L8.03223 11.2441C8.07023 11.648 8.23374 12.012 8.47949 12.3018C8.59388 12.5405 8.74045 12.7612 8.91309 12.958L4.8457 14.5488C4.67627 14.6151 4.51707 14.697 4.36816 14.79C4.36814 13.8779 4.36814 12.8264 4.36816 12.0225C4.36819 10.7638 4.01957 6.03611 3.81445 3.36621C3.7372 2.35948 4.53336 1.50138 5.54297 1.50098ZM15.1055 7.24805C16.1587 7.32773 16.9484 8.24554 16.8691 9.29883L16.7256 11.207C16.6458 12.2601 15.727 13.0499 14.6738 12.9707C13.8579 12.9089 13.2013 12.3428 12.9834 11.6016C12.8018 12.2171 12.3176 12.7112 11.6885 12.8955C11.1853 12.6431 10.6114 12.5384 10.0352 12.6133C9.60046 12.3006 9.29734 11.8095 9.24512 11.2344L9.07227 9.3291C8.97711 8.27699 9.75363 7.34635 10.8057 7.25098C11.8577 7.15607 12.7877 7.93227 12.8828 8.98438L12.9775 10.0283L13.0547 9.01172C13.1342 7.95841 14.0522 7.16898 15.1055 7.24805Z" fill="black"/>
</svg>
