<svg width="24" height="24" viewBox="0 0 24 24" fill="none" xmlns="http://www.w3.org/2000/svg">
<path d="M15.1025 16.0049C15.6067 16.0562 16 16.4823 16 17C16 17.5177 15.6067 17.9438 15.1025 17.9951L15 18H9C8.44772 18 8 17.5523 8 17C8 16.4477 8.44772 16 9 16H15L15.1025 16.0049ZM18.1025 11.0049C18.6067 11.0562 19 11.4823 19 12C19 12.5177 18.6067 12.9438 18.1025 12.9951L18 13H6C5.44772 13 5 12.5523 5 12C5 11.4477 5.44772 11 6 11H18L18.1025 11.0049ZM21 6C21.5523 6 22 6.44772 22 7C22 7.55228 21.5523 8 21 8H3C2.44772 8 2 7.55228 2 7C2 6.44772 2.44772 6 3 6H21Z" fill="black"/>
</svg>
