<svg width="24" height="24" viewBox="0 0 24 24" fill="none" xmlns="http://www.w3.org/2000/svg">
<path d="M4 20H20C21.1046 20 22 19.1046 22 18V9C22 7.89543 21.1046 7 20 7H12L10.3774 4.80955C10.0002 4.30033 9.40403 4 8.77033 4H4C2.89543 4 2 4.89543 2 6V18C2 19.1046 2.89543 20 4 20Z" stroke="black" stroke-width="2" stroke-linecap="round"/>
<path d="M10 14.9194V11.0806C10 10.2421 10.9699 9.77595 11.6247 10.2998L14.0239 12.2191C14.5243 12.6195 14.5243 13.3805 14.0239 13.7809L11.6247 15.7002C10.9699 16.2241 10 15.7579 10 14.9194Z" fill="black"/>
</svg>
