<svg width="24" height="24" viewBox="0 0 24 24" fill="none" xmlns="http://www.w3.org/2000/svg">
<path d="M18 14C18.5523 14 19 14.4477 19 15V17H21C21.5523 17 22 17.4477 22 18C22 18.5523 21.5523 19 21 19H19V21C19 21.5523 18.5523 22 18 22C17.4477 22 17 21.5523 17 21V19H15C14.4477 19 14 18.5523 14 18C14 17.4477 14.4477 17 15 17H17V15C17 14.4477 17.4477 14 18 14Z" fill="black"/>
<path d="M8.93262 3C9.74292 3 10.5191 3.3282 11.084 3.90918L12.4229 5.28613H20C21.6569 5.28613 23 6.62928 23 8.28613V13.1426C23 13.6949 22.5523 14.1426 22 14.1426C21.4477 14.1426 21 13.6949 21 13.1426V8.28613C21 7.73385 20.5523 7.28613 20 7.28613H11.5771L11.2832 6.98242L9.64941 5.30273C9.46116 5.10925 9.20258 5 8.93262 5H4C3.44772 5 3 5.44772 3 6V18C3 18.5523 3.44772 19 4 19H12C12.5523 19 13 19.4477 13 20C13 20.5523 12.5523 21 12 21H4C2.34315 21 1 19.6569 1 18V6C1 4.34315 2.34315 3 4 3H8.93262Z" fill="black"/>
</svg>
