<svg width="24" height="24" viewBox="0 0 24 24" fill="none" xmlns="http://www.w3.org/2000/svg">
<path d="M15 17C15.5523 17 16 17.4477 16 18C16 18.5523 15.5523 19 15 19H9C8.44772 19 8 18.5523 8 18C8 17.4477 8.44772 17 9 17H15ZM21 11C21.5523 11 22 11.4477 22 12C22 12.5523 21.5523 13 21 13H9C8.44772 13 8 12.5523 8 12C8 11.4477 8.44772 11 9 11H21ZM21.1025 5.00488C21.6067 5.05621 22 5.48232 22 6C22 6.51768 21.6067 6.94379 21.1025 6.99512L21 7H9C8.44772 7 8 6.55228 8 6C8 5.44772 8.44772 5 9 5H21L21.1025 5.00488Z" fill="black"/>
<circle cx="4" cy="6" r="2" fill="black"/>
<circle cx="4" cy="12" r="2" fill="black"/>
<circle cx="4" cy="18" r="2" fill="black"/>
</svg>
