<svg width="24" height="24" viewBox="0 0 24 24" fill="none" xmlns="http://www.w3.org/2000/svg">
<path d="M5.29143 5.28894C5.68196 4.89851 6.315 4.89845 6.70549 5.28894L18.7055 17.2889L18.7748 17.3651C19.0947 17.7578 19.0714 18.337 18.7055 18.703C18.3395 19.069 17.7604 19.0922 17.3676 18.7723L17.2914 18.703L12.4369 13.8485L10.9477 18.3163C10.7729 18.8399 10.2068 19.1237 9.68303 18.9491C9.15945 18.7744 8.87686 18.2072 9.05119 17.6835L10.8559 12.2675L5.29143 6.703C4.9009 6.31248 4.9009 5.67947 5.29143 5.28894Z" fill="black"/>
<path d="M17.9994 4.99988C18.5517 4.99988 18.9994 5.44759 18.9994 5.99988C18.9993 6.55207 18.5517 6.99988 17.9994 6.99988H14.7201L13.9477 9.31629C13.7728 9.83983 13.2068 10.1237 12.683 9.9491C12.1594 9.77437 11.8769 9.2072 12.0512 8.68347L12.6127 6.99988H9.99944C9.44738 6.99969 8.99954 6.55196 8.99944 5.99988C8.99944 5.44771 9.44731 5.00007 9.99944 4.99988H17.9994Z" fill="black"/>
</svg>
