<svg width="24" height="24" viewBox="0 0 24 24" fill="none" xmlns="http://www.w3.org/2000/svg">
<path fill-rule="evenodd" clip-rule="evenodd" d="M13.2056 5.00488C15.3192 5.11187 17.0005 6.8598 17.0005 9C17.0005 9.97981 16.6459 10.8758 16.061 11.5713C17.2229 12.2712 18.0005 13.5448 18.0005 15C18.0005 17.1402 16.3192 18.8881 14.2056 18.9951L14.0005 19H8.00049C6.89621 18.9997 6.00059 18.1043 6.00049 17V7C6.00059 5.89566 6.89621 5.00026 8.00049 5H13.0005L13.2056 5.00488ZM8.00049 13V17H14.0005C15.1048 16.9997 16.0005 16.1044 16.0005 15C16.0005 13.8956 15.1048 13.0003 14.0005 13H8.00049ZM8.00049 11H13.0005C14.1048 10.9997 15.0005 10.1044 15.0005 9C15.0005 7.89559 14.1048 7.00026 13.0005 7H8.00049V11Z" fill="black"/>
</svg>
