<svg width="24" height="24" viewBox="0 0 24 24" fill="none" xmlns="http://www.w3.org/2000/svg">
<path d="M18.0005 5C18.5525 5.00026 19.0005 5.44788 19.0005 6C19.0005 6.55212 18.5525 6.99974 18.0005 7H14.7212L11.3872 17H14.0005C14.5525 17.0003 15.0005 17.4479 15.0005 18C15.0005 18.5521 14.5525 18.9997 14.0005 19H6.00049C5.4482 19 4.99951 18.5523 4.99951 18C4.99951 17.4477 5.4482 17 6.00049 17H9.27979L12.6138 7H10.0005C9.4482 7 9.00049 6.55228 9.00049 6C9.00049 5.44772 9.4482 5 10.0005 5H18.0005Z" fill="black"/>
</svg>
