<svg width="24" height="24" viewBox="0 0 24 24" fill="none" xmlns="http://www.w3.org/2000/svg">
<path d="M17.0005 18.9998C17.5525 19 18.0004 19.4477 18.0005 19.9998C18.0005 20.552 17.5518 20.9998 16.9995 20.9998H6.99951C6.44745 20.9995 5.99951 20.5519 5.99951 19.9998C5.99964 19.4476 6.44828 18.9998 7.00049 18.9998H17.0005Z" fill="black"/>
<path d="M17.0005 2.99976C17.5527 2.99976 18.0004 3.44758 18.0005 3.99976V10.9998L17.9927 11.3083C17.8322 14.4788 15.2098 16.9998 11.9995 16.9998C8.68603 16.9995 5.99951 14.3133 5.99951 10.9998C5.99951 10.9939 6.00039 10.988 6.00049 10.9822V3.99976C6.00062 3.44758 6.44828 2.99976 7.00049 2.99976C7.55269 2.99976 8.00036 3.44758 8.00049 3.99976V10.9998L8.00537 11.2058C8.11249 13.3191 9.85962 14.9995 11.9995 14.9998C14.1396 14.9998 15.8875 13.3193 15.9946 11.2058L16.0005 10.9998V3.99976C16.0006 3.44758 16.4483 2.99976 17.0005 2.99976Z" fill="black"/>
</svg>
