<svg width="24" height="24" viewBox="0 0 24 24" fill="none" xmlns="http://www.w3.org/2000/svg">
<g clip-path="url(#clip0_2102_13999)">
<path d="M4.80005 3.60028V10.8005C4.80015 11.4631 5.33757 12.0007 6.00024 12.0007V20.4001H1.20044C0.537845 20.4001 0.000497661 19.8634 0.000244141 19.2009V4.80048C0.000244141 4.13773 0.537688 3.60028 1.20044 3.60028H4.80005ZM14.4006 3.60028V10.8005C14.4007 11.4631 14.9381 12.0007 15.6008 12.0007V20.4001H8.40063V12.0007C9.06317 12.0005 9.59975 11.463 9.59985 10.8005V3.60028H14.4006ZM22.8 3.60028C23.4628 3.60028 24.0002 4.13772 24.0002 4.80048V19.2009C24 19.8634 23.4626 20.4001 22.8 20.4001H18.0002V12.0007C18.6629 12.0007 19.2003 11.4631 19.2004 10.8005V3.60028H22.8Z" fill="black"/>
</g>
<defs>
<clipPath id="clip0_2102_13999">
<rect width="24" height="24" fill="white"/>
</clipPath>
</defs>
</svg>
