<svg width="24" height="24" viewBox="0 0 24 24" fill="none" xmlns="http://www.w3.org/2000/svg">
<path d="M12.9995 16C12.9995 16.5523 12.5518 17 11.9995 17C11.4475 16.9997 10.9995 16.5521 10.9995 16L10.9995 12H9.99951C9.44745 11.9997 8.99951 11.5521 8.99951 11C8.99951 10.4479 9.44745 10.0003 9.99951 10H12.9995L12.9995 16Z" fill="black"/>
<path d="M11.9995 7C12.5518 7 12.9995 7.44772 12.9995 8C12.9995 8.55229 12.5518 9 11.9995 9C11.4474 8.99974 10.9995 8.55213 10.9995 8C10.9995 7.44788 11.4475 7.00027 11.9995 7Z" fill="black"/>
<path fill-rule="evenodd" clip-rule="evenodd" d="M11.9995 2C13.3126 2 14.6135 2.25831 15.8267 2.76075C17.0398 3.26325 18.1423 4.00027 19.0708 4.92871C19.9993 5.85723 20.7362 6.95971 21.2388 8.17285C21.7413 9.38611 21.9995 10.6868 21.9995 12L21.9878 12.4922C21.9314 13.6373 21.6784 14.7657 21.2388 15.8272C20.7362 17.0403 19.9993 18.1428 19.0708 19.0713C18.1423 19.9997 17.0398 20.7368 15.8267 21.2393C14.6135 21.7417 13.3126 22 11.9995 22C10.6865 21.9999 9.38547 21.7417 8.17236 21.2393C6.95931 20.7367 5.85668 19.9997 4.92822 19.0713C3.99978 18.1428 3.26276 17.0403 2.76025 15.8272C2.25775 14.6139 1.99951 13.3132 1.99951 12C1.99951 10.6868 2.25775 9.38606 2.76025 8.17286C3.26276 6.95975 3.99978 5.85722 4.92822 4.92872C5.85667 4.00026 6.95931 3.26329 8.17236 2.76075C9.38547 2.25826 10.6865 2.00007 11.9995 2ZM11.9995 4C10.9491 4.00007 9.90844 4.2074 8.93799 4.60938C7.96762 5.01141 7.085 5.60007 6.34228 6.34278C5.59958 7.08555 5.01088 7.96806 4.60889 8.93848C4.2069 9.90904 3.99951 10.9495 3.99951 12C3.99951 13.0505 4.2069 14.091 4.60889 15.0615C5.01088 16.032 5.59958 16.9145 6.34229 17.6572C7.085 18.3999 7.96762 18.9886 8.93799 19.3906C9.90845 19.7926 10.9491 19.9999 11.9995 20C13.0499 20 14.0905 19.7926 15.061 19.3906C16.0315 18.9886 16.914 18.3999 17.6567 17.6572C18.3995 16.9145 18.9881 16.032 19.3901 15.0615C19.7922 14.0909 19.9995 13.0506 19.9995 12L19.9897 11.6064C19.9446 10.6903 19.7419 9.78769 19.3901 8.93848C18.9881 7.96802 18.3995 7.08555 17.6567 6.34278C16.914 5.60007 16.0315 5.01137 15.061 4.60938C14.0905 4.20745 13.0499 4 11.9995 4Z" fill="black"/>
<path d="M18.3638 5.63965L5.63585 18.3676" stroke="black" stroke-width="2" stroke-linecap="round"/>
</svg>
