<svg width="24" height="24" viewBox="0 0 24 24" fill="none" xmlns="http://www.w3.org/2000/svg">
<path d="M11.9997 14.9999C12.5518 15 12.9996 15.4477 12.9997 15.9999V17.9999C12.9997 18.5521 12.5519 18.9998 11.9997 18.9999C11.4474 18.9999 10.9997 18.5522 10.9997 17.9999V15.9999C10.9998 15.4477 11.4474 14.9999 11.9997 14.9999Z" fill="black"/>
<path d="M5.13443 13.8895C5.4107 13.4117 6.02156 13.2483 6.49966 13.5243C6.97787 13.8004 7.1418 14.4113 6.86587 14.8895L5.86587 16.6219C5.58973 17.1002 4.97795 17.2643 4.49966 16.9881C4.0215 16.712 3.85832 16.1002 4.13443 15.6219L5.13443 13.8895Z" fill="black"/>
<path d="M17.5085 13.5233C17.9867 13.2473 18.5985 13.4113 18.8747 13.8895L19.8747 15.621C20.1508 16.0992 19.9866 16.711 19.5085 16.9872C19.0302 17.2633 18.4184 17.0993 18.1422 16.621L17.1422 14.8895C16.8661 14.4112 17.0302 13.7994 17.5085 13.5233Z" fill="black"/>
<path d="M18.9274 7.99987C19.2034 7.52178 19.8154 7.358 20.2936 7.63366C20.7719 7.9098 20.936 8.52158 20.6598 8.99987C19.7821 10.52 18.5198 11.7823 16.9997 12.66C15.4795 13.5376 13.755 13.9999 11.9997 13.9999C10.2444 13.9998 8.51977 13.5377 6.99966 12.66C5.47964 11.7824 4.21712 10.5199 3.33951 8.99987C3.06361 8.52166 3.22763 7.90979 3.70572 7.63366C4.18388 7.3578 4.79577 7.52188 5.07193 7.99987C5.77397 9.21576 6.78381 10.2255 7.99966 10.9276C9.21573 11.6297 10.5955 11.9998 11.9997 11.9999C13.4039 11.9999 14.7835 11.6297 15.9997 10.9276C17.2157 10.2255 18.2253 9.21586 18.9274 7.99987Z" fill="black"/>
</svg>
