<svg width="24" height="24" viewBox="0 0 24 24" fill="none" xmlns="http://www.w3.org/2000/svg">
<path d="M21.1211 14.4639C21.5115 14.0736 22.1446 14.0738 22.5352 14.4639C22.9256 14.8544 22.9256 15.4874 22.5352 15.8779L20.4131 17.999L22.5352 20.1211C22.9254 20.5116 22.9254 21.1447 22.5352 21.5352C22.1447 21.9256 21.5116 21.9254 21.1211 21.5352L18.999 19.4131L16.8789 21.5352C16.4885 21.9256 15.8554 21.9254 15.4648 21.5352C15.0745 21.1446 15.0744 20.5115 15.4648 20.1211L17.585 17.999L15.4639 15.8779C15.0737 15.4874 15.0735 14.8543 15.4639 14.4639C15.8543 14.0736 16.4874 14.0737 16.8779 14.4639L18.999 16.585L21.1211 14.4639Z" fill="black"/>
<path fill-rule="evenodd" clip-rule="evenodd" d="M18 3C19.6569 3 21 4.34315 21 6V10C21 10.5523 20.5523 11 20 11C19.4477 11 19 10.5523 19 10V6C19 5.44772 18.5523 5 18 5H15.9492C15.9823 5.32865 16 5.66221 16 6C16 11.5228 11.5228 16 6 16C5.66199 16 5.32847 15.9816 5 15.9482V18C5 18.5523 5.44772 19 6 19H12C12.5523 19 13 19.4477 13 20C13 20.5523 12.5523 21 12 21H6C4.34315 21 3 19.6569 3 18V6C3 4.34315 4.34315 3 6 3H18ZM9.87402 5C9.95635 5.31959 9.99999 5.65494 10 6C9.99987 8.20895 8.20895 9.99987 6 10C5.65486 9.99998 5.31965 9.95542 5 9.87305V13.9336C5.32832 13.9755 5.66174 14 6 14C10.4183 14 14 10.4183 14 6C14 5.66153 13.9761 5.32805 13.9346 5H9.87402ZM6 5C5.44772 5 5 5.44772 5 6V7.72949C5.29452 7.90004 5.63492 7.99996 6 8C7.10438 7.99987 7.99987 7.10438 8 6C7.99997 5.63508 7.90085 5.29443 7.73047 5H6Z" fill="black"/>
</svg>
