<svg width="24" height="24" viewBox="0 0 24 24" fill="none" xmlns="http://www.w3.org/2000/svg">
<g clip-path="url(#clip0_246_52092)">
<path fill-rule="evenodd" clip-rule="evenodd" d="M18 3C19.6569 3 21 4.34315 21 6V10C21 10.5523 20.5523 11 20 11C19.4477 11 19 10.5523 19 10V6C19 5.44772 18.5523 5 18 5H15.9492C15.9823 5.32865 16 5.66221 16 6C16 11.5228 11.5228 16 6 16C5.66199 16 5.32847 15.9816 5 15.9482V18C5 18.5523 5.44772 19 6 19H12C12.5523 19 13 19.4477 13 20C13 20.5523 12.5523 21 12 21H6C4.34315 21 3 19.6569 3 18V6C3 4.34315 4.34315 3 6 3H18ZM9.87402 5C9.95635 5.31959 9.99999 5.65494 10 6C9.99987 8.20895 8.20895 9.99987 6 10C5.65486 9.99998 5.31965 9.95542 5 9.87305V13.9336C5.32832 13.9755 5.66174 14 6 14C10.4183 14 14 10.4183 14 6C14 5.66153 13.9761 5.32805 13.9346 5H9.87402ZM6 5C5.44772 5 5 5.44772 5 6V7.72949C5.29452 7.90004 5.63492 7.99996 6 8C7.10438 7.99987 7.99987 7.10438 8 6C7.99997 5.63508 7.90085 5.29443 7.73047 5H6Z" fill="black"/>
<path d="M22.2969 14.3135C22.6874 13.9232 23.3205 13.9231 23.7109 14.3135C24.1011 14.704 24.1012 15.3371 23.7109 15.7275L19.5088 19.9297C19.4111 20.0273 19.2981 20.1006 19.1777 20.1494C19.1178 20.1737 19.0559 20.1919 18.9932 20.2041C18.93 20.2164 18.8659 20.2217 18.8018 20.2217C18.5459 20.2218 18.29 20.1248 18.0947 19.9297L15.293 17.1279C14.9026 16.7374 14.9026 16.1043 15.293 15.7139C15.6834 15.3235 16.3165 15.3236 16.707 15.7139L18.8008 17.8076L22.2969 14.3135Z" fill="black"/>
</g>
<defs>
<clipPath id="clip0_246_52092">
<rect width="24" height="24" fill="white"/>
</clipPath>
</defs>
</svg>
