<svg width="24" height="24" viewBox="0 0 24 24" fill="none" xmlns="http://www.w3.org/2000/svg">
<path d="M22.001 21.001C22.553 21.0013 23.001 21.4489 23.001 22.001C23.0007 22.5529 22.5529 23.0007 22.001 23.001L16 23C15.4477 23 15 22.5522 15 22C15 21.4477 15.4478 21 16 21L22.001 21.001Z" fill="black"/>
<path fill-rule="evenodd" clip-rule="evenodd" d="M18 3C19.6569 3 21 4.34315 21 6V10C21 10.5523 20.5523 11 20 11C19.4477 11 19 10.5523 19 10V6C19 5.44772 18.5523 5 18 5H15.9492C15.9823 5.32865 16 5.66221 16 6C16 11.5228 11.5228 16 6 16C5.66199 16 5.32847 15.9816 5 15.9482V18C5 18.5523 5.44772 19 6 19H12C12.5523 19 13 19.4477 13 20C13 20.5523 12.5523 21 12 21H6C4.34315 21 3 19.6569 3 18V6C3 4.34315 4.34315 3 6 3H18ZM9.87402 5C9.95635 5.31959 9.99999 5.65494 10 6C9.99987 8.20895 8.20895 9.99987 6 10C5.65486 9.99998 5.31965 9.95542 5 9.87305V13.9336C5.32832 13.9755 5.66174 14 6 14C10.4183 14 14 10.4183 14 6C14 5.66153 13.9761 5.32805 13.9346 5H9.87402ZM6 5C5.44772 5 5 5.44772 5 6V7.72949C5.29452 7.90004 5.63492 7.99996 6 8C7.10438 7.99987 7.99987 7.10438 8 6C7.99997 5.63508 7.90085 5.29443 7.73047 5H6Z" fill="black"/>
<path d="M22.001 17.001C22.553 17.0013 23.001 17.4489 23.001 18.001C23.0007 18.5529 22.5529 19.0007 22.001 19.001L16 19C15.4477 19 15 18.5522 15 18C15 17.4477 15.4478 17 16 17L22.001 17.001Z" fill="black"/>
<path d="M22.001 13.001C22.553 13.0013 23.001 13.4489 23.001 14.001C23.0007 14.5529 22.5529 15.0007 22.001 15.001L16 15C15.4477 15 15 14.5522 15 14C15 13.4477 15.4478 13 16 13L22.001 13.001Z" fill="black"/>
</svg>
