<svg width="24" height="24" viewBox="0 0 24 24" fill="none" xmlns="http://www.w3.org/2000/svg">
<path d="M18 9C20.7614 9 23 11.2386 23 14C23 16.7614 20.7614 19 18 19H15C14.4477 19 14 18.5523 14 18C14 17.4477 14.4477 17 15 17H18C19.6569 17 21 15.6569 21 14C21 12.3431 19.6569 11 18 11H15C14.4477 11 14 10.5523 14 10C14 9.44772 14.4477 9 15 9H18Z" fill="black"/>
<path d="M9 5C9.55228 5 10 5.44772 10 6C10 6.55228 9.55228 7 9 7H6C4.34315 7 3 8.34315 3 10C3 11.6569 4.34315 13 6 13H9C9.55228 13 10 13.4477 10 14C10 14.5523 9.55228 15 9 15H6C3.23858 15 1 12.7614 1 10C1 7.23858 3.23858 5 6 5H9Z" fill="black"/>
</svg>
