<svg width="24" height="24" viewBox="0 0 24 24" fill="none" xmlns="http://www.w3.org/2000/svg">
<path fill-rule="evenodd" clip-rule="evenodd" d="M19 2C20.6569 2 22 3.34315 22 5V15C22 16.6569 20.6569 18 19 18H18V19C18 20.6569 16.6569 22 15 22H5C3.34315 22 2 20.6569 2 19V9C2 7.34315 3.34315 6 5 6H6V5C6 3.34315 7.34315 2 9 2H19ZM5 8C4.44772 8 4 8.44772 4 9V19C4 19.5523 4.44772 20 5 20H15C15.5523 20 16 19.5523 16 19V9C16 8.44772 15.5523 8 15 8H5ZM9 4C8.44772 4 8 4.44772 8 5V6H15C16.6569 6 18 7.34315 18 9V16H19C19.5523 16 20 15.5523 20 15V5C20 4.44772 19.5523 4 19 4H9Z" fill="black"/>
</svg>
