<svg width="24" height="24" viewBox="0 0 24 24" fill="none" xmlns="http://www.w3.org/2000/svg">
<path d="M7.5 9C8.60457 9 9.5 9.89543 9.5 11C9.5 12.1046 8.60457 13 7.5 13C6.39543 13 5.5 12.1046 5.5 11C5.5 9.89543 6.39543 9 7.5 9Z" fill="black"/>
<path d="M16.5 9C17.6046 9 18.5 9.89543 18.5 11C18.5 12.1046 17.6046 13 16.5 13C15.3954 13 14.5 12.1046 14.5 11C14.5 9.89543 15.3954 9 16.5 9Z" fill="black"/>
<path fill-rule="evenodd" clip-rule="evenodd" d="M21 4C22.6569 4 24 5.34315 24 7V17C24 18.6569 22.6569 20 21 20H3C1.34315 20 4.83191e-08 18.6569 0 17V7C0 5.34315 1.34315 4 3 4H21ZM3 6C2.44772 6 2 6.44772 2 7V17C2 17.5523 2.44772 18 3 18H4.2959L4.66016 16.9863C5.08791 15.7947 6.21832 15 7.48438 15H16.1904C17.2939 15.0001 18.3079 15.6065 18.8311 16.5781L19.5967 18H21C21.5523 18 22 17.5523 22 17V7C22 6.44771 21.5523 6 21 6H3ZM7.48438 17C7.06239 17 6.68558 17.265 6.54297 17.6621L6.42188 18H17.3252L17.0703 17.5264C16.896 17.2026 16.5582 17.0001 16.1904 17H7.48438Z" fill="black"/>
</svg>
