<svg width="24" height="24" viewBox="0 0 24 24" fill="none" xmlns="http://www.w3.org/2000/svg">
<path d="M16 14C16.5523 14 17 14.4477 17 15V16H19C19.5523 16 20 16.4477 20 17C20 17.5523 19.5523 18 19 18H17V19C17 19.5523 16.5523 20 16 20C15.4477 20 15 19.5523 15 19V15C15 14.4477 15.4477 14 16 14Z" fill="black"/>
<path d="M12 16C12.5523 16 13 16.4477 13 17C13 17.5523 12.5523 18 12 18H5C4.44772 18 4 17.5523 4 17C4 16.4477 4.44772 16 5 16H12Z" fill="black"/>
<path d="M19 11C19.5523 11 20 11.4477 20 12C20 12.5523 19.5523 13 19 13H5C4.44772 13 4 12.5523 4 12C4 11.4477 4.44772 11 5 11H19Z" fill="black"/>
<path d="M8 4C8.55228 4 9 4.44772 9 5V9C9 9.55228 8.55228 10 8 10C7.44772 10 7 9.55228 7 9V8H5C4.44772 8 4 7.55228 4 7C4 6.44772 4.44772 6 5 6H7V5C7 4.44772 7.44772 4 8 4Z" fill="black"/>
<path d="M19 6C19.5523 6 20 6.44772 20 7C20 7.55228 19.5523 8 19 8H12C11.4477 8 11 7.55228 11 7C11 6.44772 11.4477 6 12 6H19Z" fill="black"/>
</svg>
