<svg width="24" height="24" viewBox="0 0 24 24" fill="none" xmlns="http://www.w3.org/2000/svg">
<path d="M15 14C15.5523 14 16 14.4477 16 15C16 15.6312 15.851 16.254 15.5645 16.8164C15.2779 17.3787 14.8621 17.8654 14.3516 18.2363C13.8409 18.6073 13.2494 18.8524 12.626 18.9512C12.0025 19.0499 11.364 18.9998 10.7637 18.8047C10.2385 18.634 9.95142 18.0692 10.1221 17.5439C10.2928 17.0189 10.8567 16.7317 11.3818 16.9023C11.6819 16.9998 12.0009 17.0249 12.3125 16.9756C12.6242 16.9262 12.9204 16.8037 13.1758 16.6182C13.4311 16.4327 13.639 16.1894 13.7822 15.9082C13.9255 15.627 14 15.3156 14 15C14 14.4477 14.4477 14 15 14Z" fill="black"/>
<path fill-rule="evenodd" clip-rule="evenodd" d="M12.7529 1.3418L12.7549 1.34375C12.7559 1.34505 12.7569 1.34749 12.7588 1.34961C12.7626 1.35403 12.7684 1.36014 12.7754 1.36817C12.7897 1.38474 12.8111 1.40923 12.8379 1.44043C12.8914 1.50292 12.9693 1.59389 13.0674 1.71094C13.2638 1.94548 13.5427 2.28522 13.877 2.70704C14.5449 3.54992 15.4378 4.72895 16.332 6.07032C17.2243 7.40871 18.1307 8.92778 18.8174 10.4482C19.4966 11.9523 20 13.542 20 15C20 20.1847 15.4097 22.9998 12 23C8.59021 23 4 20.1848 4 15C4 13.5419 4.5034 11.9523 5.18262 10.4482C5.86929 8.92776 6.77572 7.40872 7.66797 6.07032C8.56215 4.72903 9.45416 3.54989 10.1221 2.70704C10.4564 2.2851 10.7361 1.94551 10.9326 1.71094C11.0307 1.59386 11.1086 1.50289 11.1621 1.44043C11.1888 1.40926 11.2093 1.38472 11.2236 1.36817C11.2305 1.36021 11.2364 1.35406 11.2402 1.34961C11.2422 1.3474 11.244 1.34501 11.2451 1.34375L11.2471 1.34278L12 0.48145L12.7529 1.3418ZM11.6895 3.94922C11.045 4.76254 10.1876 5.89629 9.33203 7.17969C8.4744 8.46616 7.63067 9.8849 7.00488 11.2705C6.37168 12.6726 6 13.9582 6 15C6 18.8152 9.40958 21 12 21C14.5904 20.9998 18 18.815 18 15C18 13.9582 17.6283 12.6726 16.9951 11.2705C16.3693 9.88491 15.5256 8.46615 14.668 7.17969C13.8123 5.89617 12.9541 4.76257 12.3096 3.94922C12.1998 3.81066 12.0951 3.6823 11.999 3.56348C11.9031 3.6821 11.799 3.81094 11.6895 3.94922Z" fill="black"/>
</svg>
