<svg width="24" height="24" viewBox="0 0 24 24" fill="none" xmlns="http://www.w3.org/2000/svg">
<g clip-path="url(#clip0_1445_8568)">
<path fill-rule="evenodd" clip-rule="evenodd" d="M12 0C18.6274 0 24 5.37258 24 12C24 18.6274 18.6274 24 12 24C5.37258 24 0 18.6274 0 12C0 5.37258 5.37258 0 12 0ZM9.25 7C8.55964 7 8 7.55964 8 8.25V15.75C8 16.4404 8.55964 17 9.25 17C9.94036 17 10.5 16.4404 10.5 15.75V8.25C10.5 7.55964 9.94036 7 9.25 7ZM14.75 7C14.0596 7 13.5 7.55964 13.5 8.25V15.75C13.5 16.4404 14.0596 17 14.75 17C15.4404 17 16 16.4404 16 15.75V8.25C16 7.55964 15.4404 7 14.75 7Z" fill="black"/>
</g>
<defs>
<clipPath id="clip0_1445_8568">
<rect width="24" height="24" fill="white"/>
</clipPath>
</defs>
</svg>
