<svg width="24" height="24" viewBox="0 0 24 24" fill="none" xmlns="http://www.w3.org/2000/svg">
<path d="M12.0005 9L16.0005 9L18.4852 9.62126C19.3755 9.84386 20 10.6437 20.0001 11.5614L20.0004 17.7639C20.0005 18.5214 19.5725 19.214 18.8948 19.5528L18.0005 20C18.0005 21.1046 17.1051 22 16.0005 22L11.0011 22C9.89632 22 9.00078 21.1042 9.00114 19.9994L9.00147 18.999L9.00049 19L3.97607 13.1391C3.42503 12.4964 3.46181 11.5377 4.06047 10.939C4.6065 10.393 5.46201 10.3082 6.10458 10.7365L8.00049 12L8.00049 4C8.00049 2.89544 8.89592 2 10.0005 2C11.1051 2 12.0005 2.89543 12.0005 4V9Z" stroke="black" stroke-width="2" stroke-linejoin="round"/>
</svg>
