<svg width="24" height="24" viewBox="0 0 24 24" fill="none" xmlns="http://www.w3.org/2000/svg">
<path d="M18 2C19.6569 2 21 3.34315 21 5V9C21 9.55228 20.5523 10 20 10C19.4477 10 19 9.55228 19 9V5C19 4.44772 18.5523 4 18 4H6C5.44772 4 5 4.44772 5 5V19C5 19.5523 5.44772 20 6 20H12.8887C13.441 20 13.8887 20.4477 13.8887 21C13.8887 21.5523 13.441 22 12.8887 22H6C4.34315 22 3 20.6569 3 19V5C3 3.34315 4.34315 2 6 2H18Z" fill="black"/>
<path d="M23 12V14H21V19.5C21 20.2 20.7587 20.7921 20.2754 21.2754C19.7921 21.7587 19.2 22 18.5 22C17.8 22 17.2079 21.7587 16.7246 21.2754C16.2413 20.7921 16 20.2 16 19.5C16 18.8 16.2413 18.2079 16.7246 17.7246C17.2079 17.2413 17.8 17 18.5 17C18.6333 17 18.7835 17.0121 18.9502 17.0371C19.1168 17.0621 19.3001 17.1169 19.5 17.2002V12H23Z" fill="black"/>
<path d="M14 15C14.5523 15 15 15.4477 15 16C15 16.5523 14.5523 17 14 17H8C7.44772 17 7 16.5523 7 16C7 15.4477 7.44772 15 8 15H14Z" fill="black"/>
<path d="M16 11C16.5523 11 17 11.4477 17 12C17 12.5523 16.5523 13 16 13H8C7.44772 13 7 12.5523 7 12C7 11.4477 7.44772 11 8 11H16Z" fill="black"/>
<path d="M16 7C16.5523 7 17 7.44772 17 8C17 8.55228 16.5523 9 16 9H8C7.44772 9 7 8.55228 7 8C7 7.44772 7.44772 7 8 7H16Z" fill="black"/>
</svg>
