<svg width="24" height="24" viewBox="0 0 24 24" fill="none" xmlns="http://www.w3.org/2000/svg">
<path d="M16 15.1348C16.0002 14.2871 16.9894 13.8245 17.6406 14.3672L21.0781 17.2314C21.5579 17.6312 21.5579 18.3688 21.0781 18.7686L17.6406 21.6328C16.9894 22.1755 16.0002 21.7129 16 20.8652V15.1348Z" fill="black"/>
<path d="M10 15C10.5523 15 11 15.4477 11 16C11 16.5523 10.5523 17 10 17H4C3.44772 17 3 16.5523 3 16C3 15.4477 3.44772 15 4 15H10Z" fill="black"/>
<path d="M14 11C14.5523 11 15 11.4477 15 12C15 12.5523 14.5523 13 14 13H4C3.44772 13 3 12.5523 3 12C3 11.4477 3.44772 11 4 11H14Z" fill="black"/>
<path d="M16 7C16.5523 7 17 7.44772 17 8C17 8.55228 16.5523 9 16 9H4C3.44772 9 3 8.55228 3 8C3 7.44772 3.44772 7 4 7H16Z" fill="black"/>
</svg>
