<svg width="24" height="24" viewBox="0 0 24 24" fill="none" xmlns="http://www.w3.org/2000/svg">
<path d="M22 8H19V17C19 17.8333 18.7083 18.5417 18.125 19.125C17.5417 19.7083 16.8333 20 16 20C15.1667 20 14.4583 19.7083 13.875 19.125C13.2917 18.5417 13 17.8333 13 17C13 16.1667 13.2917 15.4583 13.875 14.875C14.4583 14.2917 15.1667 14 16 14C16.1833 14 16.3587 14.0121 16.5254 14.0371C16.6919 14.0621 16.8501 14.1169 17 14.2002V6H22V8Z" fill="black"/>
<path d="M10 15C10.5523 15 11 15.4477 11 16C11 16.5523 10.5523 17 10 17H4C3.44772 17 3 16.5523 3 16C3 15.4477 3.44772 15 4 15H10Z" fill="black"/>
<path d="M14 11C14.5523 11 15 11.4477 15 12C15 12.5523 14.5523 13 14 13H4C3.44772 13 3 12.5523 3 12C3 11.4477 3.44772 11 4 11H14Z" fill="black"/>
<path d="M14 7C14.5523 7 15 7.44772 15 8C15 8.55228 14.5523 9 14 9H4C3.44772 9 3 8.55228 3 8C3 7.44772 3.44772 7 4 7H14Z" fill="black"/>
</svg>
