<svg width="24" height="24" viewBox="0 0 24 24" fill="none" xmlns="http://www.w3.org/2000/svg">
<path d="M22.9999 12V13.9999H21V19.5C21 20.2 20.7583 20.7918 20.275 21.2751C19.7917 21.7584 19.1999 22.0001 18.4999 22.0001C17.8 22.0001 17.2083 21.7584 16.725 21.2751C16.2417 20.7918 16.0001 20.2 16.0001 19.5C16.0001 18.8 16.2417 18.2082 16.725 17.7249C17.2083 17.2416 17.8 16.9999 18.4999 16.9999C18.6332 16.9999 18.7833 17.0125 18.95 17.0375C19.1167 17.0625 19.3 17.1166 19.5 17.1999V12H22.9999Z" fill="black"/>
<path fill-rule="evenodd" clip-rule="evenodd" d="M18 2.18182C19.5062 2.18182 20.7273 3.40287 20.7273 4.9091V8.72728C20.7273 9.32977 20.2388 9.81819 19.6363 9.81819H19.5C18.295 9.81824 17.3182 10.7951 17.3182 12V14.1102C17.3182 14.6105 16.9707 15.034 16.5168 15.2442C16.0313 15.469 15.5825 15.7822 15.1824 16.1823C14.279 17.0857 13.8182 18.237 13.8182 19.5C13.8182 19.6839 13.8281 19.8654 13.8475 20.0441C13.9382 20.876 13.3772 21.8182 12.5404 21.8182H5.99998C4.49375 21.8182 3.27271 20.5971 3.27271 19.0909V4.9091C3.27271 3.40287 4.49375 2.18182 5.99998 2.18182H18ZM8.1818 15C7.5793 15 7.09089 15.4884 7.09089 16.0909C7.09089 16.6934 7.5793 17.1818 8.1818 17.1818H12.5454C13.1479 17.1818 13.6363 16.6934 13.6363 16.0909C13.6363 15.4884 13.1479 15 12.5454 15H8.1818ZM8.1818 10.9091C7.5793 10.9091 7.09089 11.3975 7.09089 12C7.09089 12.6025 7.5793 13.0909 8.1818 13.0909H14.7273C15.3297 13.0909 15.8182 12.6025 15.8182 12C15.8182 11.3975 15.3297 10.9091 14.7273 10.9091H8.1818ZM8.1818 6.81819C7.5793 6.81819 7.09089 7.3066 7.09089 7.9091C7.09089 8.51159 7.5793 9.00001 8.1818 9.00001H16.9091C17.5116 9.00001 18 8.51159 18 7.9091C18 7.3066 17.5116 6.81819 16.9091 6.81819H8.1818Z" fill="black"/>
</svg>
