<svg width="24" height="24" viewBox="0 0 24 24" fill="none" xmlns="http://www.w3.org/2000/svg">
<path d="M13.5635 2.123C11.478 1.79287 9.34128 2.13131 7.45996 3.0898C5.57861 4.04849 4.04852 5.57857 3.08984 7.45992C2.13127 9.34139 1.79277 11.4788 2.12304 13.5644C2.45347 15.65 3.43556 17.5781 4.92871 19.0712C6.4219 20.5644 8.3499 21.5465 10.4355 21.8769C12.5212 22.2072 14.6585 21.8687 16.54 20.9101C18.4214 19.9514 19.9515 18.4213 20.9102 16.54C21.1606 16.0482 20.9651 15.4462 20.4736 15.1953C19.9817 14.9446 19.3788 15.14 19.1279 15.6318C18.361 17.1368 17.1368 18.361 15.6318 19.1279C14.1268 19.8946 12.4173 20.1654 10.749 19.9013C9.08044 19.6371 7.53736 18.8517 6.34277 17.6572C5.14818 16.4626 4.36293 14.9195 4.09863 13.2509C3.83448 11.5826 4.10532 9.87319 4.87207 8.36812C5.639 6.86313 6.86317 5.63897 8.36816 4.87203C9.87324 4.10527 11.5826 3.83443 13.251 4.09859C14.9196 4.36288 16.4626 5.14812 17.6572 6.34273L16.707 7.29293C16.0773 7.92288 16.5233 8.99984 17.4141 8.99996H21C21.5522 8.99996 21.9999 8.55218 22 7.99996V4.41402C21.9999 3.52321 20.9229 3.07713 20.293 3.70699L19.0713 4.92867C17.578 3.43541 15.6493 2.45336 13.5635 2.123Z" fill="black"/>
</svg>
