<svg width="24" height="24" viewBox="0 0 24 24" fill="none" xmlns="http://www.w3.org/2000/svg">
<path d="M9.52832 4.39179C11.1348 3.86989 12.8652 3.86989 14.4717 4.39179C15.4509 4.70996 16.3524 5.21327 17.1328 5.86639L18.293 4.70721C18.9229 4.07725 20 4.52334 20 5.41425V9.00018C19.9999 9.55238 19.5522 10.0002 19 10.0002H15.4141C14.5234 10 14.0774 8.9231 14.707 8.29315L15.7119 7.28729C15.1593 6.85209 14.5315 6.51417 13.8545 6.29413C12.6494 5.90258 11.3506 5.90258 10.1455 6.29413C8.94065 6.68572 7.89018 7.44887 7.14551 8.47382C6.40099 9.4988 6 10.7333 6 12.0002C6.00004 13.267 6.40097 14.5016 7.14551 15.5266C7.89018 16.5515 8.94068 17.3147 10.1455 17.7062C11.3505 18.0978 12.6495 18.0978 13.8545 17.7062C15.0593 17.3147 16.1098 16.5515 16.8545 15.5266C17.1792 15.0801 17.8043 14.9813 18.251 15.3058C18.6976 15.6305 18.7963 16.2556 18.4717 16.7023C17.4787 18.069 16.0783 19.0865 14.4717 19.6086C12.8652 20.1305 11.1348 20.1305 9.52832 19.6086C7.92167 19.0865 6.52133 18.069 5.52832 16.7023C4.53533 15.3356 4.00004 13.6896 4 12.0002C4 10.3108 4.53535 8.66479 5.52832 7.29804C6.52133 5.93133 7.92164 4.91384 9.52832 4.39179Z" fill="black"/>
</svg>
