<svg width="24" height="24" viewBox="0 0 24 24" fill="none" xmlns="http://www.w3.org/2000/svg">
<path d="M18.9995 12.9996C19.5517 12.9996 19.9993 13.4475 19.9995 13.9996V16.9996C19.9995 18.6565 18.6564 19.9996 16.9995 19.9996H7.9995V21.8649C7.9995 22.7126 7.01118 23.176 6.35985 22.6334L2.92137 19.7682C2.44203 19.3685 2.4421 18.6319 2.92137 18.2321L6.35985 15.3668C7.01118 14.8241 7.9995 15.2876 7.9995 16.1354V17.9996H16.9995C17.5518 17.9996 17.9995 17.5519 17.9995 16.9996V13.9996C17.9997 13.4477 18.4475 12.9999 18.9995 12.9996Z" fill="black"/>
<path d="M15.9995 2.13538C15.9995 1.28755 16.9888 0.824056 17.6401 1.36683L21.0776 4.23206C21.5574 4.63186 21.5574 5.3684 21.0776 5.7682L17.6401 8.63343C16.9888 9.17604 15.9995 8.71266 15.9995 7.86488V5.99964H6.9995C6.44754 5.99988 5.9997 6.44767 5.9995 6.99964V9.99964C5.9995 10.5519 5.55178 10.9996 4.9995 10.9996C4.44742 10.9994 3.9995 10.5518 3.9995 9.99964V6.99964C3.9997 5.3431 5.34297 3.99988 6.9995 3.99964H15.9995V2.13538Z" fill="black"/>
</svg>
