<svg width="24" height="24" viewBox="0 0 24 24" fill="none" xmlns="http://www.w3.org/2000/svg">
<path d="M19.2422 8.70692C19.6327 8.3164 20.2667 8.3164 20.6572 8.70692L23.1924 11.2431C23.822 11.873 23.3761 12.95 22.4853 12.9501H20.9482C20.8174 14.1818 20.4344 15.377 19.8174 16.4589C19.0426 17.8172 17.927 18.9509 16.581 19.747C15.2351 20.5428 13.705 20.9743 12.1416 20.9989C10.5779 21.0235 9.03445 20.64 7.66404 19.8866C7.18022 19.6205 7.00348 19.0121 7.2695 18.5282C7.53569 18.0446 8.1441 17.8678 8.6279 18.1337C9.69378 18.7196 10.8941 19.018 12.1103 18.9989C13.3263 18.9797 14.5166 18.6444 15.5634 18.0253C16.6103 17.4061 17.4775 16.5241 18.0801 15.4677C18.5246 14.6882 18.8134 13.8333 18.9345 12.9501H17.414C16.5233 12.95 16.0774 11.873 16.707 11.2431L19.2422 8.70692Z" fill="black"/>
<path d="M11.8584 3.00086C13.422 2.97631 14.9655 3.35981 16.3359 4.11317C16.8197 4.37923 16.9963 4.98768 16.7304 5.47157C16.4643 5.95536 15.8559 6.13212 15.372 5.8661C14.3062 5.28016 13.1058 4.98177 11.8896 5.00086C10.6736 5.02004 9.48329 5.35546 8.4365 5.9745C7.38965 6.59361 6.52252 7.47569 5.91989 8.53211C5.49216 9.28206 5.21081 10.1025 5.082 10.9501H6.48532C7.37612 10.9502 7.82223 12.0272 7.19236 12.6571L4.6572 15.1923C4.26668 15.5828 3.63268 15.5828 3.24216 15.1923L0.707004 12.6571C0.0770629 12.0272 0.523184 10.9501 1.41404 10.9501H3.06247C3.20313 9.75365 3.58217 8.59355 4.18259 7.5409C4.95741 6.1826 6.07293 5.04884 7.41892 4.25282C8.76479 3.45701 10.295 3.02546 11.8584 3.00086Z" fill="black"/>
</svg>
