<svg width="24" height="24" viewBox="0 0 24 24" fill="none" xmlns="http://www.w3.org/2000/svg">
<path d="M18.2929 6.29289C18.6834 5.90237 19.3164 5.90237 19.707 6.29289C20.0974 6.68342 20.0975 7.31646 19.707 7.70696L7.70696 19.707C7.31646 20.0975 6.68342 20.0974 6.29289 19.707C5.90237 19.3164 5.90237 18.6834 6.29289 18.2929L18.2929 6.29289Z" fill="black"/>
<path d="M18.2929 11.2929C18.6834 10.9024 19.3164 10.9024 19.707 11.2929C20.0974 11.6834 20.0975 12.3165 19.707 12.707L12.707 19.707C12.3165 20.0975 11.6834 20.0974 11.2929 19.707C10.9024 19.3164 10.9024 18.6834 11.2929 18.2929L18.2929 11.2929Z" fill="black"/>
<path d="M18.2929 16.2929C18.6834 15.9024 19.3164 15.9024 19.707 16.2929C20.0974 16.6834 20.0975 17.3165 19.707 17.707L17.707 19.707C17.3165 20.0975 16.6834 20.0974 16.2929 19.707C15.9024 19.3164 15.9024 18.6834 16.2929 18.2929L18.2929 16.2929Z" fill="black"/>
</svg>
