<svg width="24" height="24" viewBox="0 0 24 24" fill="none" xmlns="http://www.w3.org/2000/svg">
<path d="M3 14C3.55228 14 4 14.4477 4 15V19C4 19.5523 4.44772 20 5 20H9C9.55228 20 10 20.4477 10 21C10 21.5523 9.55228 22 9 22H5C3.34315 22 2 20.6569 2 19V15C2 14.4477 2.44772 14 3 14Z" fill="black"/>
<path d="M21 14C21.5523 14 22 14.4477 22 15V19C22 20.6569 20.6569 22 19 22H15C14.4477 22 14 21.5523 14 21C14 20.4477 14.4477 20 15 20H19C19.5523 20 20 19.5523 20 19V15C20 14.4477 20.4477 14 21 14Z" fill="black"/>
<path d="M8 7C8.55228 7 9 7.44772 9 8V16C9 16.5523 8.55228 17 8 17C7.44772 17 7 16.5523 7 16V8C7 7.44772 7.44772 7 8 7Z" fill="black"/>
<path d="M16 7C16.5523 7 17 7.44772 17 8V16C17 16.5523 16.5523 17 16 17C15.4477 17 15 16.5523 15 16V8C15 7.44772 15.4477 7 16 7Z" fill="black"/>
<path d="M12 13C12.5523 13 13 13.4477 13 14C13 14.5523 12.5523 15 12 15C11.4477 15 11 14.5523 11 14C11 13.4477 11.4477 13 12 13Z" fill="black"/>
<path d="M12 9C12.5523 9 13 9.44772 13 10C13 10.5523 12.5523 11 12 11C11.4477 11 11 10.5523 11 10C11 9.44772 11.4477 9 12 9Z" fill="black"/>
<path d="M9 2C9.55228 2 10 2.44772 10 3C10 3.55228 9.55228 4 9 4H5C4.44772 4 4 4.44772 4 5V9C4 9.55228 3.55228 10 3 10C2.44772 10 2 9.55228 2 9V5C2 3.34315 3.34315 2 5 2H9Z" fill="black"/>
<path d="M19 2C20.6569 2 22 3.34315 22 5V9C22 9.55228 21.5523 10 21 10C20.4477 10 20 9.55228 20 9V5C20 4.44772 19.5523 4 19 4H15C14.4477 4 14 3.55228 14 3C14 2.44772 14.4477 2 15 2H19Z" fill="black"/>
</svg>
