<svg width="24" height="24" viewBox="0 0 24 24" fill="none" xmlns="http://www.w3.org/2000/svg">
<path d="M3 14C3.55228 14 4 14.4477 4 15V19C4 19.5523 4.44772 20 5 20H9C9.55228 20 10 20.4477 10 21C10 21.5523 9.55228 22 9 22H5C3.34315 22 2 20.6569 2 19V15C2 14.4477 2.44772 14 3 14Z" fill="black"/>
<path d="M21 14C21.5523 14 22 14.4477 22 15V19C22 20.6569 20.6569 22 19 22H15C14.4477 22 14 21.5523 14 21C14 20.4477 14.4477 20 15 20H19C19.5523 20 20 19.5523 20 19V15C20 14.4477 20.4477 14 21 14Z" fill="black"/>
<path fill-rule="evenodd" clip-rule="evenodd" d="M14 7C15.6569 7 17 8.34315 17 10V14C17 15.6569 15.6569 17 14 17H10C8.34315 17 7 15.6569 7 14V10C7 8.34315 8.34315 7 10 7H14ZM10 9C9.44772 9 9 9.44772 9 10V14C9 14.5523 9.44772 15 10 15H14C14.5523 15 15 14.5523 15 14V10C15 9.44772 14.5523 9 14 9H10Z" fill="black"/>
<path d="M9 2C9.55228 2 10 2.44772 10 3C10 3.55228 9.55228 4 9 4H5C4.44772 4 4 4.44772 4 5V9C4 9.55228 3.55228 10 3 10C2.44772 10 2 9.55228 2 9V5C2 3.34315 3.34315 2 5 2H9Z" fill="black"/>
<path d="M19 2C20.6569 2 22 3.34315 22 5V9C22 9.55228 21.5523 10 21 10C20.4477 10 20 9.55228 20 9V5C20 4.44772 19.5523 4 19 4H15C14.4477 4 14 3.55228 14 3C14 2.44772 14.4477 2 15 2H19Z" fill="black"/>
</svg>
