<svg width="24" height="24" viewBox="0 0 24 24" fill="none" xmlns="http://www.w3.org/2000/svg">
<g clip-path="url(#clip0_1470_9089)">
<path d="M12 11C12.5523 11 13 11.4477 13 12C13 12.5523 12.5523 13 12 13C11.4477 13 11 12.5523 11 12C11 11.4477 11.4477 11 12 11Z" fill="black"/>
<path fill-rule="evenodd" clip-rule="evenodd" d="M12 0C18.6274 0 24 5.37258 24 12C24 18.6274 18.6274 24 12 24C5.37258 24 0 18.6274 0 12C0 5.37258 5.37258 0 12 0ZM19.8594 13.7969C19.3404 13.608 18.767 13.8756 18.5781 14.3945C18.2004 15.4323 17.5821 16.3659 16.7744 17.1191C15.9666 17.8725 14.9915 18.424 13.9297 18.7285C13.3988 18.8807 13.0919 19.4349 13.2441 19.9658C13.3964 20.4965 13.9497 20.8034 14.4805 20.6514C15.8457 20.2599 17.099 19.5506 18.1377 18.582C19.1764 17.6134 19.9713 16.4128 20.457 15.0781C20.6459 14.5591 20.3784 13.9858 19.8594 13.7969ZM12 7C9.23858 7 7 9.23858 7 12C7 14.7614 9.23858 17 12 17C14.7614 17 17 14.7614 17 12C17 9.23858 14.7614 7 12 7Z" fill="black"/>
</g>
<defs>
<clipPath id="clip0_1470_9089">
<rect width="24" height="24" fill="white"/>
</clipPath>
</defs>
</svg>
