<svg width="24" height="24" viewBox="0 0 24 24" fill="none" xmlns="http://www.w3.org/2000/svg">
<path fill-rule="evenodd" clip-rule="evenodd" d="M17 12C19.2091 12 21 13.7909 21 16C21 16.7417 20.7971 17.4358 20.4453 18.0312L23.707 21.293C24.0975 21.6835 24.0975 22.3165 23.707 22.707C23.3165 23.0975 22.6835 23.0975 22.293 22.707L19.0312 19.4453C18.4358 19.7971 17.7417 20 17 20C14.7909 20 13 18.2091 13 16C13 13.7909 14.7909 12 17 12ZM17 14C15.8954 14 15 14.8954 15 16C15 17.1046 15.8954 18 17 18C18.1046 18 19 17.1046 19 16C19 14.8954 18.1046 14 17 14Z" fill="black"/>
<path fill-rule="evenodd" clip-rule="evenodd" d="M18 3C19.6569 3 21 4.34315 21 6V10C21 10.5523 20.5523 11 20 11C19.4477 11 19 10.5523 19 10V6C19 5.44772 18.5523 5 18 5H15.9492C15.9823 5.32865 16 5.66221 16 6C16 11.5228 11.5228 16 6 16C5.66199 16 5.32847 15.9816 5 15.9482V18C5 18.5523 5.44772 19 6 19H12C12.5523 19 13 19.4477 13 20C13 20.5523 12.5523 21 12 21H6C4.34315 21 3 19.6569 3 18V6C3 4.34315 4.34315 3 6 3H18ZM9.87402 5C9.95636 5.31961 9.99999 5.65492 10 6C9.99991 8.20898 8.20897 9.99987 6 10C5.65485 9.99998 5.31966 9.95543 5 9.87305V13.9336C5.32832 13.9755 5.66174 14 6 14C10.4183 14 14 10.4183 14 6C14 5.66153 13.9761 5.32805 13.9346 5H9.87402ZM6 5C5.44772 5 5 5.44772 5 6V7.72949C5.29453 7.90005 5.63491 7.99996 6 8C7.1044 7.99987 7.99991 7.10441 8 6C7.99997 5.63505 7.90087 5.29444 7.73047 5H6Z" fill="black"/>
</svg>
