<svg width="24" height="24" viewBox="0 0 24 24" fill="none" xmlns="http://www.w3.org/2000/svg">
<g clip-path="url(#clip0_177_50887)">
<path fill-rule="evenodd" clip-rule="evenodd" d="M17 12.0003C19.2091 12.0003 21 13.7911 21 16.0003C21 16.742 20.7972 17.4361 20.4453 18.0315L23.707 21.2932C24.0974 21.6838 24.0975 22.3168 23.707 22.7073C23.3165 23.0977 22.6835 23.0977 22.293 22.7073L19.0312 19.4456C18.4358 19.7974 17.7417 20.0003 17 20.0003C14.7909 20.0003 13.0001 18.2093 13 16.0003C13 13.7911 14.7909 12.0003 17 12.0003ZM17 14.0003C15.8954 14.0003 15 14.8957 15 16.0003C15.0001 17.1047 15.8955 18.0003 17 18.0003C18.1045 18.0003 18.9999 17.1047 19 16.0003C19 14.8957 18.1046 14.0003 17 14.0003Z" fill="black"/>
<path fill-rule="evenodd" clip-rule="evenodd" d="M13.2422 3.51491C14.4138 2.34334 16.3138 2.34334 17.4854 3.51491C18.6565 4.68641 18.6565 6.58562 17.4854 7.75709L5.89258 19.3499C5.47383 19.7685 4.93999 20.0541 4.35938 20.1702L-0.0527344 21.053L0.829102 16.6409C0.9452 16.0604 1.23095 15.5264 1.64941 15.1077L13.2422 3.51491ZM3.06445 16.5217C2.92505 16.6613 2.82873 16.8391 2.79004 17.0325L2.49609 18.5032L3.9668 18.2092C4.16023 18.1706 4.33897 18.0752 4.47852 17.9358L13.2422 9.17115L11.8281 7.75612L3.06445 16.5217ZM16.0713 4.92897C15.6808 4.53845 15.0468 4.53845 14.6562 4.92897L13.2422 6.34205L14.6572 7.75709L16.0713 6.34303C16.4614 5.9526 16.4614 5.31942 16.0713 4.92897Z" fill="black"/>
</g>
<defs>
<clipPath id="clip0_177_50887">
<rect width="24" height="24" fill="white"/>
</clipPath>
</defs>
</svg>
