<svg width="24" height="24" viewBox="0 0 24 24" fill="none" xmlns="http://www.w3.org/2000/svg">
<path fill-rule="evenodd" clip-rule="evenodd" d="M17 12C19.2091 12 21 13.7909 21 16C21 16.7417 20.7971 17.4358 20.4453 18.0312L23.707 21.293C24.0976 21.6835 24.0976 22.3165 23.707 22.707C23.3165 23.0976 22.6835 23.0976 22.293 22.707L19.0312 19.4453C18.4358 19.7971 17.7417 20 17 20C14.7909 20 13 18.2091 13 16C13 13.7909 14.7909 12 17 12ZM17 14C15.8954 14 15 14.8954 15 16C15 17.1046 15.8954 18 17 18C18.1046 18 19 17.1046 19 16C19 14.8954 18.1046 14 17 14Z" fill="black"/>
<path d="M8.77051 3C9.72081 3.00006 10.6149 3.45036 11.1807 4.21387L12.5039 6H20C21.6569 6 23 7.34315 23 9V12C23 12.5523 22.5523 13 22 13C21.4477 13 21 12.5523 21 12V9C21 8.44772 20.5523 8 20 8H11.4961L9.57422 5.4043C9.38565 5.14983 9.08723 5.00006 8.77051 5H4C3.44772 5 3 5.44772 3 6V18C3 18.5523 3.44772 19 4 19H12C12.5523 19 13 19.4477 13 20C13 20.5523 12.5523 21 12 21H4C2.34315 21 1 19.6569 1 18V6C1 4.34315 2.34315 3 4 3H8.77051Z" fill="black"/>
</svg>
