<svg width="24" height="24" viewBox="0 0 24 24" fill="none" xmlns="http://www.w3.org/2000/svg">
<path fill-rule="evenodd" clip-rule="evenodd" d="M17.0001 11.9996C19.2091 11.9996 20.9998 13.7907 21.0001 15.9996C21 16.7413 20.7972 17.4355 20.4454 18.0309L23.7071 21.2926C24.0974 21.6831 24.0974 22.3162 23.7071 22.7067C23.3166 23.097 22.6835 23.097 22.293 22.7067L19.0313 19.445C18.4359 19.7968 17.7418 19.9996 17.0001 19.9996C14.7911 19.9996 13.0002 18.2086 13.0001 15.9996C13.0003 13.7907 14.7911 11.9997 17.0001 11.9996ZM17.0001 13.9996C15.8957 13.9997 15.0003 14.8953 15.0001 15.9996C15.0002 17.1041 15.8956 17.9996 17.0001 17.9996C18.1046 17.9996 18.9999 17.1041 19.0001 15.9996C18.9998 14.8953 18.1045 13.9996 17.0001 13.9996Z" fill="black"/>
<path fill-rule="evenodd" clip-rule="evenodd" d="M12.0499 1.00063C13.1746 1.00562 14.2984 1.18224 15.3809 1.53188C17.5072 2.21864 19.3738 3.53732 20.7325 5.31117C22.0912 7.08505 22.8782 9.23079 22.9874 11.4625C22.9907 11.5304 22.9864 11.5971 22.9766 11.6618C22.9908 11.7723 23.0001 11.8848 23.0001 11.9996C23.0001 12.5519 22.5524 12.9996 22.0001 12.9996C21.4478 12.9996 21.0001 12.5519 21.0001 11.9996C21 11.7549 20.8199 11.2851 19.9454 10.7243C19.2153 10.256 18.1616 9.8383 16.8555 9.52992C16.8019 9.98272 16.4433 10.3551 15.9708 10.4059C15.4217 10.4647 14.9281 10.0672 14.8692 9.5182C14.8567 9.40159 14.8404 9.28626 14.8263 9.17152C13.6059 9.02064 12.3114 8.96632 11.0216 9.01918C10.3889 9.04512 9.76995 9.09765 9.17293 9.17152C9.10993 9.68185 9.06164 10.2085 9.03328 10.7467C8.96075 12.1241 9.01021 13.5172 9.17195 14.8278C9.31828 14.8459 9.46597 14.8642 9.61531 14.8795C10.1647 14.936 10.5642 15.4269 10.5079 15.9762C10.4557 16.4838 10.0326 16.8624 9.53524 16.8727C9.81349 18.0444 10.1806 19.0195 10.5987 19.7379C11.1481 20.6818 11.6427 20.9582 11.921 20.9948C11.9275 20.9956 11.934 20.9967 11.9405 20.9977C12.4817 21.0013 13.0245 20.9578 13.5626 20.8629C14.1064 20.767 14.6258 21.1307 14.7218 21.6745C14.8174 22.2182 14.454 22.7368 13.9102 22.8327C11.7097 23.2207 9.44301 22.9296 7.41219 21.9977C5.3815 21.0658 3.68285 19.537 2.54207 17.6159C1.53386 15.9178 1.00435 13.9837 1.00106 12.0182C1.00084 11.986 1.00105 11.9538 1.00203 11.9215C1.00364 11.6953 1.01079 11.4685 1.02645 11.2418C1.18041 9.01283 2.0095 6.88354 3.4034 5.13734C4.79744 3.39109 6.69051 2.11041 8.83016 1.46645C9.85385 1.15837 10.9109 1.00479 11.9679 1.0016C11.9953 1.00127 12.0226 1.00009 12.0499 1.00063ZM3.64363 15.3414C3.81608 15.7726 4.02263 16.1916 4.2618 16.5944C5.19511 18.1662 6.58475 19.4168 8.24617 20.1793C8.38202 20.2417 8.51999 20.2988 8.65828 20.3541C8.12027 19.3093 7.70619 18.0116 7.42586 16.5748C6.30686 16.3566 5.27285 16.0584 4.37801 15.6832C4.12477 15.5771 3.87931 15.4629 3.64363 15.3414ZM7.1202 9.53676C6.78942 9.61551 6.4707 9.70036 6.16707 9.79457C4.7635 10.2301 3.8294 10.7777 3.35359 11.2936C3.12543 11.541 3.03764 11.7421 3.01082 11.8854C3.00541 11.9144 3.00231 11.9444 3.00106 11.9752C3.00103 11.9834 3.00008 11.9915 3.00008 11.9996C3.00004 12.1027 3.02641 12.2172 3.09578 12.3512C3.31443 12.7734 3.93854 13.3299 5.15145 13.8385C5.72679 14.0797 6.38986 14.2897 7.1202 14.4635C6.99847 13.2153 6.96795 11.9204 7.03523 10.6422C7.05484 10.27 7.08465 9.90114 7.1202 9.53676ZM8.65828 3.64418C7.2156 4.22122 5.94196 5.16312 4.96688 6.38441C4.41406 7.07691 3.9701 7.84342 3.64461 8.65688C4.22442 8.35839 4.87585 8.10115 5.5743 7.88441C6.1564 7.70381 6.77721 7.55009 7.42586 7.42348C7.5653 6.70973 7.73598 6.0295 7.94051 5.39809C8.14501 4.76681 8.38442 4.17586 8.65828 3.64418ZM15.3409 3.6432C15.4591 3.87256 15.5711 4.11089 15.6749 4.35707C16.0537 5.25569 16.3553 6.296 16.5753 7.4225C16.5809 7.42359 16.5863 7.42531 16.5919 7.42641C18.0195 7.70617 19.3121 8.12023 20.3546 8.65688C20.0514 7.8995 19.6462 7.18192 19.1446 6.52699C18.1571 5.23788 16.8417 4.24327 15.3409 3.6432ZM11.9747 3.0016C11.9493 3.00265 11.9245 3.00354 11.9005 3.00746C11.762 3.03016 11.5674 3.10933 11.3272 3.32191C10.8247 3.76691 10.2827 4.65647 9.84285 6.0143C9.73005 6.36254 9.62713 6.73153 9.53524 7.11781C9.99692 7.07275 10.4661 7.04055 10.9395 7.02113C12.1223 6.97266 13.314 7.0065 14.4649 7.11879C14.2895 6.38138 14.076 5.71311 13.8321 5.13441C13.3303 3.94404 12.7821 3.32426 12.3624 3.10121C12.2309 3.0314 12.1186 3.00384 12.0186 3.00063C12.004 3.0006 11.9893 3.00156 11.9747 3.0016Z" fill="black"/>
</svg>
