<svg width="24" height="24" viewBox="0 0 24 24" fill="none" xmlns="http://www.w3.org/2000/svg">
<path fill-rule="evenodd" clip-rule="evenodd" d="M17 12C19.2091 12 21 13.7909 21 16C21 16.7417 20.7971 17.4358 20.4453 18.0312L23.707 21.293C24.0975 21.6835 24.0975 22.3165 23.707 22.707C23.3165 23.0975 22.6835 23.0975 22.293 22.707L19.0312 19.4453C18.4358 19.7971 17.7417 20 17 20C14.7909 20 13 18.2091 13 16C13 13.7909 14.7909 12 17 12ZM17 14C15.8954 14 15 14.8954 15 16C15 17.1046 15.8954 18 17 18C18.1046 18 19 17.1046 19 16C19 14.8954 18.1046 14 17 14Z" fill="black"/>
<path fill-rule="evenodd" clip-rule="evenodd" d="M21 3C22.6569 3 24 4.34315 24 6V13C24 13.5523 23.5523 14 23 14C22.4477 14 22 13.5523 22 13V6C22 5.44771 21.5523 5 21 5H18V9C18 9.55228 17.5523 10 17 10H15C14.4477 10 14 9.55228 14 9V5H10V12C10 12.5523 9.55228 13 9 13V19H12C12.5523 19 13 19.4477 13 20C13 20.5523 12.5523 21 12 21H3C1.34315 21 0 19.6569 0 18V6C0 4.34315 1.34315 3 3 3H21ZM3 5C2.44772 5 2 5.44772 2 6V18C2 18.5523 2.44772 19 3 19H7V13C6.44772 13 6 12.5523 6 12V5H3Z" fill="black"/>
</svg>
