<svg width="24" height="24" viewBox="0 0 24 24" fill="none" xmlns="http://www.w3.org/2000/svg">
<path fill-rule="evenodd" clip-rule="evenodd" d="M17 11.9995C19.209 11.9995 20.9998 13.7906 21 15.9995C21 16.7411 20.797 17.4354 20.4453 18.0308L23.707 21.2925C24.0975 21.6829 24.0973 22.316 23.707 22.7066C23.3165 23.0971 22.6835 23.0971 22.293 22.7066L19.0312 19.4449C18.4357 19.7968 17.7418 19.9995 17 19.9995C14.7909 19.9995 13 18.2087 13 15.9995C13.0002 13.7906 14.791 11.9995 17 11.9995ZM17 13.9995C15.8956 13.9995 15.0002 14.8952 15 15.9995C15 17.1041 15.8954 17.9995 17 17.9995C18.1046 17.9995 19 17.1041 19 15.9995C18.9998 14.8952 18.1044 13.9995 17 13.9995Z" fill="black"/>
<path d="M4.94824 3.72024C6.86637 2.7001 9.35989 2.91687 11.9268 4.69778C11.945 4.71036 11.9702 4.71927 12 4.71927C12.0298 4.71927 12.055 4.71036 12.0732 4.69778C14.6401 2.91687 17.1336 2.7001 19.0518 3.72024C20.9329 4.72083 21.9999 6.78031 22 8.99954C22 9.80427 21.866 10.5749 21.6309 11.3062C21.4617 11.8317 20.8987 12.1206 20.373 11.9517C19.8474 11.7826 19.5577 11.2196 19.7266 10.6939C19.9036 10.1431 20 9.57909 20 8.99954C19.9999 7.39252 19.2361 6.08331 18.1133 5.48587C17.0271 4.9082 15.3419 4.86406 13.2139 6.34036C12.4868 6.84483 11.5132 6.84483 10.7861 6.34036C8.65811 4.86406 6.97286 4.9082 5.88672 5.48587C4.76391 6.08331 4.00014 7.39252 4 8.99954C4 11.0881 5.25799 13.0088 7.07422 14.7847C8.89603 16.566 11.0328 17.9805 12.6143 19.2105C13.05 19.5496 13.1279 20.1779 12.7891 20.6138C12.45 21.0496 11.8216 21.1286 11.3857 20.7896C9.96722 19.6863 7.60387 18.0996 5.67578 16.2144C3.74221 14.3237 2 11.9108 2 8.99954C2.00015 6.7803 3.0671 4.72082 4.94824 3.72024Z" fill="black"/>
</svg>
