<svg width="24" height="24" viewBox="0 0 24 24" fill="none" xmlns="http://www.w3.org/2000/svg">
<path fill-rule="evenodd" clip-rule="evenodd" d="M17 12C19.2091 12 21 13.7909 21 16C21 16.7417 20.7971 17.4358 20.4453 18.0312L23.707 21.293C24.0975 21.6835 24.0975 22.3165 23.707 22.707C23.3165 23.0975 22.6835 23.0975 22.293 22.707L19.0312 19.4453C18.4358 19.7971 17.7417 20 17 20C14.7909 20 13 18.2091 13 16C13 13.7909 14.7909 12 17 12ZM17 14C15.8954 14 15 14.8954 15 16C15 17.1046 15.8954 18 17 18C18.1046 18 19 17.1046 19 16C19 14.8954 18.1046 14 17 14Z" fill="black"/>
<path d="M18 2C19.6569 2 21 3.34315 21 5V10C21 10.5523 20.5523 11 20 11C19.4477 11 19 10.5523 19 10V5C19 4.44772 18.5523 4 18 4H6C5.44772 4 5 4.44772 5 5V19C5 19.5523 5.44772 20 6 20H12.8887C13.441 20 13.8887 20.4477 13.8887 21C13.8887 21.5523 13.441 22 12.8887 22H6C4.34315 22 3 20.6569 3 19V5C3 3.34315 4.34315 2 6 2H18Z" fill="black"/>
<path d="M11 15C11.5523 15 12 15.4477 12 16C12 16.5523 11.5523 17 11 17H8C7.44772 17 7 16.5523 7 16C7 15.4477 7.44772 15 8 15H11Z" fill="black"/>
<path d="M12 11C12.5523 11 13 11.4477 13 12C13 12.5523 12.5523 13 12 13H8C7.44772 13 7 12.5523 7 12C7 11.4477 7.44772 11 8 11H12Z" fill="black"/>
<path d="M16 7C16.5523 7 17 7.44772 17 8C17 8.55228 16.5523 9 16 9H8C7.44772 9 7 8.55228 7 8C7 7.44772 7.44772 7 8 7H16Z" fill="black"/>
</svg>
