<svg width="24" height="24" viewBox="0 0 24 24" fill="none" xmlns="http://www.w3.org/2000/svg">
<path fill-rule="evenodd" clip-rule="evenodd" d="M14 3C17.866 3.00005 21 6.13404 21 10C21 13.866 17.866 16.9999 14 17C12.4232 17 10.9682 16.4784 9.7979 15.5986C9.76989 15.6359 9.74097 15.6731 9.70708 15.707L3.70708 21.707C3.31656 22.0975 2.68354 22.0975 2.29302 21.707C1.90249 21.3165 1.90249 20.6835 2.29302 20.293L8.29302 14.293C8.32687 14.2591 8.36326 14.2292 8.40044 14.2012C7.52111 13.031 7.00005 11.5764 7.00005 10C7.00005 6.13401 10.1341 3 14 3ZM14 5C11.2386 5 9.00005 7.23858 9.00005 10C9.00005 12.7614 11.2386 15 14 15C16.7614 14.9999 19 12.7614 19 10C19 7.23861 16.7614 5.00005 14 5Z" fill="black"/>
</svg>
