<svg width="24" height="24" viewBox="0 0 24 24" fill="none" xmlns="http://www.w3.org/2000/svg">
<g clip-path="url(#clip0_1754_11916)">
<path fill-rule="evenodd" clip-rule="evenodd" d="M17.0003 12C19.2093 12.0001 21.0002 13.7909 21.0003 16C21.0003 16.7417 20.7974 17.4358 20.4456 18.0312L23.7073 21.293C24.0976 21.6834 24.0976 22.3165 23.7073 22.707C23.3168 23.0975 22.6838 23.0974 22.2932 22.707L19.0315 19.4453C18.436 19.7972 17.742 19.9999 17.0003 20C14.7911 20 13.0003 18.2091 13.0003 16C13.0003 13.7909 14.7911 12 17.0003 12ZM17.0003 14C15.8957 14 15.0003 14.8954 15.0003 16C15.0003 17.1046 15.8957 18 17.0003 18C18.1047 17.9999 19.0003 17.1045 19.0003 16C19.0002 14.8955 18.1047 14.0001 17.0003 14Z" fill="black"/>
<path d="M8.83033 1.46678C10.9699 0.822948 13.255 0.845509 15.3811 1.53221C17.5074 2.21902 19.374 3.53764 20.7327 5.31151C22.0913 7.08541 22.8784 9.23111 22.9876 11.4629C23.0144 12.0143 22.5887 12.4835 22.0374 12.5107C21.4858 12.5377 21.0166 12.1121 20.9895 11.5605C20.9002 9.73454 20.2564 7.9787 19.1448 6.52733C18.0332 5.07619 16.5063 3.99747 14.7669 3.43553C13.0272 2.87364 11.1571 2.85501 9.4065 3.38182C7.65608 3.90864 6.1076 4.95624 4.96705 6.38475C3.8265 7.81349 3.14771 9.55606 3.02174 11.3799C2.8958 13.2037 3.32859 15.0227 4.26197 16.5947C5.19531 18.1666 6.58489 19.4172 8.24635 20.1797C9.90782 20.9421 11.7625 21.1806 13.5628 20.8633C14.1066 20.7675 14.626 21.131 14.7219 21.6748C14.8175 22.2184 14.454 22.737 13.9104 22.833C11.71 23.221 9.44316 22.9299 7.41236 21.998C5.38164 21.0662 3.68305 19.5373 2.54224 17.6162C1.40144 15.6949 0.872695 13.4714 1.02662 11.2422C1.18056 9.01312 2.00964 6.88391 3.40357 5.13768C4.79762 3.39144 6.6907 2.11074 8.83033 1.46678Z" fill="black"/>
<path d="M12.1399 8.00194C12.7707 8.024 13.3877 8.19594 13.9397 8.50194C14.4916 8.80796 14.9638 9.24048 15.3167 9.76366C15.7795 10.4504 15.5979 11.3825 14.9114 11.8457C14.2246 12.3087 13.2926 12.1271 12.8294 11.4404C12.7412 11.3097 12.6225 11.2014 12.4846 11.125C12.3469 11.0487 12.1928 11.0065 12.0354 11.001C11.8778 10.9955 11.7204 11.0271 11.5774 11.0937C11.4345 11.1604 11.3093 11.2605 11.2122 11.3848C11.1151 11.509 11.0489 11.6548 11.0188 11.8096C10.9888 11.9643 10.9959 12.1238 11.0393 12.2754C11.0828 12.427 11.1613 12.5663 11.2688 12.6816C11.3764 12.797 11.5102 12.8855 11.6585 12.9394C12.4367 13.2229 12.8382 14.0839 12.5549 14.8623C12.2716 15.6407 11.4105 16.042 10.6321 15.7588C10.039 15.5429 9.50495 15.1891 9.07447 14.7275C8.6442 14.266 8.32947 13.7091 8.15553 13.1025C7.98153 12.4957 7.95305 11.856 8.07349 11.2363C8.19398 10.6168 8.45937 10.0344 8.84791 9.53709C9.23652 9.03974 9.73779 8.64174 10.3098 8.37498C10.8819 8.10826 11.5091 7.97991 12.1399 8.00194Z" fill="black"/>
</g>
<defs>
<clipPath id="clip0_1754_11916">
<rect width="24" height="24" fill="white"/>
</clipPath>
</defs>
</svg>
