<svg width="24" height="24" viewBox="0 0 24 24" fill="none" xmlns="http://www.w3.org/2000/svg">
<path fill-rule="evenodd" clip-rule="evenodd" d="M17 12C19.2091 12 21 13.7909 21 16C21 16.7417 20.7971 17.4358 20.4453 18.0312L23.707 21.293C24.0975 21.6835 24.0975 22.3165 23.707 22.707C23.3165 23.0975 22.6835 23.0975 22.293 22.707L19.0312 19.4453C18.4358 19.7971 17.7417 20 17 20C14.7909 20 13 18.2091 13 16C13 13.7909 14.7909 12 17 12ZM17 14C15.8954 14 15 14.8954 15 16C15 17.1046 15.8954 18 17 18C18.1046 18 19 17.1046 19 16C19 14.8954 18.1046 14 17 14Z" fill="black"/>
<path d="M10.957 13.0117C11.5087 12.9882 11.9753 13.4162 11.999 13.9678C12.0225 14.5194 11.5945 14.986 11.043 15.0098C8.92759 15.0999 7.02272 15.7938 5.85547 16.3779C5.66255 16.4745 5.5 16.7083 5.5 17.0459C5.50003 17.5728 5.92718 18 6.4541 18H11C11.5523 18 12 18.4477 12 19C12 19.5523 11.5523 20 11 20H6.4541C4.82261 20 3.50003 18.6774 3.5 17.0459C3.5 16.0768 3.98453 15.0782 4.95996 14.5898C6.30183 13.9183 8.48465 13.1171 10.957 13.0117Z" fill="black"/>
<path fill-rule="evenodd" clip-rule="evenodd" d="M11.4209 4C12.5208 4 13.4628 4.39159 14.2461 5.1748C15.0294 5.95814 15.4209 6.9 15.4209 8C15.4209 9.1 15.0294 10.0419 14.2461 10.8252C13.4628 11.6084 12.5208 12 11.4209 12C10.3212 11.9999 9.37987 11.6082 8.59668 10.8252C7.81335 10.0419 7.4209 9.1 7.4209 8C7.4209 6.9 7.81335 5.95814 8.59668 5.1748C9.37987 4.39176 10.3212 4.00009 11.4209 4ZM11.4209 6C10.8711 6.00009 10.4004 6.19631 10.0088 6.58789C9.61724 6.97952 9.4209 7.45009 9.4209 8C9.4209 8.54991 9.61724 9.02048 10.0088 9.41211C10.4004 9.80369 10.8711 9.99991 11.4209 10C11.9709 10 12.4423 9.80378 12.834 9.41211C13.2254 9.0205 13.4209 8.54986 13.4209 8C13.4209 7.45014 13.2254 6.9795 12.834 6.58789C12.4423 6.19622 11.9709 6 11.4209 6Z" fill="black"/>
</svg>
