<svg width="24" height="24" viewBox="0 0 24 24" fill="none" xmlns="http://www.w3.org/2000/svg">
<g clip-path="url(#clip0_167_50442)">
<path d="M17 11.9998C19.209 11.9998 20.9998 13.7908 21 15.9998C20.9999 16.7414 20.7971 17.4356 20.4453 18.031L23.707 21.2927C24.0974 21.6832 24.0973 22.3163 23.707 22.7068C23.3165 23.0971 22.6835 23.0971 22.293 22.7068L19.0312 19.4451C18.4358 19.7969 17.7417 19.9998 17 19.9998C14.791 19.9997 13.0001 18.2087 13 15.9998C13.0002 13.7908 14.791 11.9998 17 11.9998ZM17 13.9998C15.8956 13.9998 15.0002 14.8954 15 15.9998C15.0001 17.1042 15.8956 17.9997 17 17.9998C18.1045 17.9998 18.9999 17.1042 19 15.9998C18.9998 14.8954 18.1044 13.9998 17 13.9998Z" fill="black"/>
<path d="M11 18C11.5523 18 12 18.4477 12 19C12 19.5523 11.5523 20 11 20H1C0.447715 20 0 19.5523 0 19C0 18.4477 0.447715 18 1 18H11ZM3 5C3.55228 5 4 5.44772 4 6V11C4 12.1046 4.89543 13 6 13H8C8.55228 13 9 13.4477 9 14C9 14.5523 8.55228 15 8 15H6C3.79086 15 2 13.2091 2 11V6C2 5.44772 2.44772 5 3 5ZM17 6C17.5523 6 18 6.44772 18 7V10C18 10.5523 17.5523 11 17 11C16.4714 11 16.039 10.5898 16.0029 10.0703C15.9663 10.0026 15.9358 9.93014 15.915 9.85254C15.8086 9.45555 15.6052 9.091 15.3242 8.79102C15.0432 8.4911 14.6929 8.26494 14.3037 8.13281C13.9144 8.00066 13.4984 7.96624 13.0928 8.0332C12.6872 8.10016 12.3046 8.26644 11.9785 8.5166C11.6524 8.76681 11.3923 9.09342 11.2227 9.46777C11.053 9.84212 10.9781 10.253 11.0049 10.6631C11.0318 11.0733 11.1599 11.4712 11.377 11.8203C11.594 12.1694 11.894 12.4595 12.25 12.665C12.7283 12.9412 12.8924 13.553 12.6162 14.0312C12.3401 14.5095 11.7283 14.6735 11.25 14.3975C10.6091 14.0274 10.0695 13.5044 9.67871 12.876C9.28799 12.2476 9.05816 11.5323 9.00977 10.7939C8.96143 10.0556 9.096 9.31654 9.40137 8.64258C9.70679 7.96864 10.1737 7.38012 10.7607 6.92969C11.3477 6.47937 12.0367 6.18113 12.7666 6.06055C13.4967 5.94 14.2455 6.00139 14.9463 6.23926C15.3301 6.36955 15.6924 6.55157 16.0254 6.77734C16.1266 6.33229 16.5243 6 17 6ZM19.1025 0.00488281C19.6067 0.0562147 20 0.482323 20 1C20 1.51768 19.6067 1.94379 19.1025 1.99512L19 2H1C0.447715 2 0 1.55228 0 1C0 0.447715 0.447715 0 1 0H19L19.1025 0.00488281Z" fill="black"/>
</g>
<defs>
<clipPath id="clip0_167_50442">
<rect width="24" height="24" fill="white"/>
</clipPath>
</defs>
</svg>
