<svg width="24" height="24" viewBox="0 0 24 24" fill="none" xmlns="http://www.w3.org/2000/svg">
<g clip-path="url(#clip0_178_50888)">
<path d="M17.7626 5.1624C17.6121 5.03374 17.4131 4.97736 17.2169 5.00831L8.63627 6.36314C8.30705 6.41512 8.06454 6.69892 8.06454 7.03224V9.74193V14.0322H6.70968C5.21557 14.0323 4 15.1465 4 16.5161C4 17.8857 5.21557 19 6.70968 19C8.2038 19 9.41937 17.8857 9.41937 16.5161V14.7097V10.3208L16.6452 9.17985V12.9032H15.2903C13.7962 12.9032 12.5807 14.0175 12.5807 15.3871C12.5807 16.7567 13.7962 17.871 15.2903 17.871C16.7845 17.871 18 16.7567 18 15.3871V13.5806V8.3871V5.67741C18 5.47931 17.9132 5.2911 17.7626 5.1624Z" fill="black"/>
<path d="M1.63715 9.70268C2.12231 7.51426 3.28783 5.53561 4.96665 4.05031" stroke="black" stroke-width="2" stroke-linecap="round"/>
<path d="M22.3628 14.2973C21.8777 16.4857 20.7122 18.4644 19.0333 19.9497" stroke="black" stroke-width="2" stroke-linecap="round"/>
</g>
<defs>
<clipPath id="clip0_178_50888">
<rect width="24" height="24" fill="white"/>
</clipPath>
</defs>
</svg>
