<svg width="24" height="24" viewBox="0 0 24 24" fill="none" xmlns="http://www.w3.org/2000/svg">
<path d="M7.76367 4.99964C8.89984 4.99964 9.93902 5.64172 10.4473 6.65784L15.3418 16.4469C15.5112 16.7856 15.8576 16.9996 16.2363 16.9996H17V15.1354C17 14.2875 17.9893 13.8241 18.6406 14.3668L22.0781 17.2321C22.5577 17.6319 22.5578 18.3684 22.0781 18.7682L18.6406 21.6334C17.9893 22.1762 17 21.7127 17 20.8649V18.9996H16.2363C15.1001 18.9996 14.0609 18.3577 13.5527 17.3414L8.6582 7.55238C8.48874 7.21382 8.14229 6.99964 7.76367 6.99964H3C2.44772 6.99964 2 6.55193 2 5.99964C2.0002 5.44753 2.44784 4.99964 3 4.99964H7.76367Z" fill="black"/>
<path d="M9.60547 14.5524C9.85253 14.0587 10.4534 13.8583 10.9473 14.1051C11.4411 14.352 11.6413 14.953 11.3945 15.4469L10.4473 17.3414C9.93907 18.3577 8.89995 18.9996 7.76367 18.9996H3C2.44772 18.9996 2 18.5519 2 17.9996C2.0002 17.4475 2.44784 16.9996 3 16.9996H7.76367C8.1424 16.9996 8.48879 16.7856 8.6582 16.4469L9.60547 14.5524Z" fill="black"/>
<path d="M17 3.13538C17 2.28755 17.9893 1.82406 18.6406 2.36683L22.0781 5.23206C22.5577 5.63188 22.5578 6.36844 22.0781 6.7682L18.6406 9.63343C17.9893 10.1762 17 9.71271 17 8.86488V6.99964H15.6182L14.3945 9.44691C14.1475 9.94089 13.5467 10.1412 13.0527 9.89417C12.5588 9.64715 12.3585 9.04632 12.6055 8.55238L14.1055 5.55238C14.1086 5.54611 14.112 5.53999 14.1152 5.53382C14.1203 5.52428 14.1255 5.51486 14.1309 5.5055C14.1586 5.45663 14.1902 5.41115 14.2246 5.36878C14.2309 5.36109 14.2376 5.35382 14.2441 5.34632C14.2584 5.32984 14.2719 5.31288 14.2871 5.29749C14.2952 5.2893 14.3041 5.28197 14.3125 5.27406C14.3283 5.25912 14.3437 5.2439 14.3604 5.23011C14.3698 5.22225 14.3799 5.21516 14.3896 5.20765C14.4035 5.19699 14.4173 5.18628 14.4316 5.1764C14.4431 5.1685 14.455 5.16137 14.4668 5.15394C14.511 5.12617 14.5568 5.10119 14.6045 5.0807C14.6515 5.06047 14.7006 5.04478 14.751 5.03187C14.7627 5.02885 14.7743 5.02567 14.7861 5.02308C14.8019 5.01964 14.8179 5.01697 14.834 5.01429C14.8512 5.01138 14.8684 5.00849 14.8857 5.00648C14.9 5.00486 14.9143 5.00456 14.9287 5.00355C14.9459 5.0023 14.9631 5.00097 14.9805 5.00062C14.987 5.00049 14.9935 4.99964 15 4.99964H17V3.13538Z" fill="black"/>
</svg>
