<svg width="24" height="24" viewBox="0 0 24 24" fill="none" xmlns="http://www.w3.org/2000/svg">
<path d="M8.83032 1.4668C10.9698 0.822965 13.2549 0.845525 15.3811 1.53223C17.5073 2.21903 19.374 3.53765 20.7327 5.31152C22.0913 7.08542 22.8784 9.23112 22.9875 11.4629C23.0144 12.0143 22.5887 12.4836 22.0374 12.5107C21.4858 12.5377 21.0166 12.1121 20.9895 11.5605C20.9002 9.73455 20.2564 7.97872 19.1448 6.52734C18.0332 5.07621 16.5063 3.99748 14.7668 3.43555C13.0272 2.87366 11.1571 2.85502 9.40649 3.38184C7.65607 3.90865 6.10759 4.95626 4.96704 6.38477C3.82649 7.81351 3.1477 9.55607 3.02173 11.3799C2.89579 13.2038 3.32858 15.0227 4.26196 16.5947C5.1953 18.1666 6.58488 19.4172 8.24634 20.1797C9.90781 20.9421 11.7625 21.1807 13.5627 20.8633C14.1066 20.7675 14.626 21.131 14.7219 21.6748C14.8175 22.2185 14.454 22.737 13.9104 22.833C11.71 23.221 9.44315 22.9299 7.41235 21.998C5.38164 21.0662 3.68304 19.5373 2.54224 17.6162C1.40143 15.6949 0.872687 13.4714 1.02661 11.2422C1.18055 9.01313 2.00963 6.88393 3.40356 5.1377C4.79761 3.39146 6.69069 2.11075 8.83032 1.4668ZM18.5002 14C18.7763 14.0001 19.0002 14.2239 19.0002 14.5V18H20.7932C21.2384 18.0003 21.4614 18.5386 21.1467 18.8535L18.3538 21.6465C18.1585 21.8417 17.842 21.8416 17.6467 21.6465L14.8538 18.8535C14.5389 18.5385 14.7619 18.0001 15.2073 18H17.0002V14.5C17.0003 14.2239 17.2241 14 17.5002 14H18.5002ZM12.0002 8C14.2093 8.00013 16.0002 9.79095 16.0002 12C16.0002 14.2091 14.2093 15.9999 12.0002 16C9.79111 16 8.00024 14.2091 8.00024 12C8.00025 9.79087 9.79111 8 12.0002 8ZM12.0002 11C11.448 11 11.0003 11.4477 11.0002 12C11.0002 12.5523 11.448 13 12.0002 13C12.5524 12.9999 13.0002 12.5522 13.0002 12C13.0002 11.4478 12.5524 11.0001 12.0002 11Z" fill="black"/>
</svg>
