<svg width="24" height="24" viewBox="0 0 24 24" fill="none" xmlns="http://www.w3.org/2000/svg">
<path d="M19 15C20.6569 15 22 16.3431 22 18C22 19.6569 20.6569 21 19 21C18.2321 21 17.3082 20.7076 16.5771 20.2754C16.3806 20.1591 16.1844 20.0242 16 19.8711C15.8156 20.0242 15.6194 20.1591 15.4229 20.2754C14.6918 20.7076 13.7679 21 13 21C11.3431 21 10 19.6569 10 18C10 16.3431 11.3431 15 13 15C13.7679 15 14.6918 15.2924 15.4229 15.7246C15.6192 15.8408 15.8157 15.975 16 16.1279C16.1843 15.975 16.3808 15.8408 16.5771 15.7246C17.3082 15.2924 18.2321 15 19 15ZM17 2C17.5523 2 18 2.44772 18 3V4H19C20.1046 4 21 4.89543 21 6V12.5C21 13.0523 20.5523 13.5 20 13.5C19.4477 13.5 19 13.0523 19 12.5V10H5V18H8C8.55228 18 9 18.4477 9 19C9 19.5523 8.55228 20 8 20H5C3.89543 20 3 19.1046 3 18V6C3 4.89543 3.89543 4 5 4H6V3C6 2.44772 6.44772 2 7 2C7.55228 2 8 2.44772 8 3V4H16V3C16 2.44772 16.4477 2 17 2ZM13 17C12.4477 17 12 17.4477 12 18C12 18.5523 12.4477 19 13 19C13.3365 19 13.9125 18.8451 14.4053 18.5537C14.6429 18.4132 14.8117 18.2685 14.9111 18.1465C15.0097 18.0255 15 17.9788 15 18C15 18.0212 15.0097 17.9745 14.9111 17.8535C14.8117 17.7315 14.6429 17.5868 14.4053 17.4463C13.9125 17.1549 13.3365 17 13 17ZM19 17C18.6635 17 18.0875 17.1549 17.5947 17.4463C17.3571 17.5868 17.1883 17.7315 17.0889 17.8535C16.9903 17.9745 17 18.0212 17 18C17 17.9788 16.9903 18.0255 17.0889 18.1465C17.1883 18.2685 17.3571 18.4132 17.5947 18.5537C18.0875 18.8451 18.6635 19 19 19C19.5523 19 20 18.5523 20 18C20 17.4477 19.5523 17 19 17ZM5 8H19V6H5V8Z" fill="black"/>
</svg>
