<svg width="24" height="24" viewBox="0 0 24 24" fill="none" xmlns="http://www.w3.org/2000/svg">
<path d="M18.5 14C18.7761 14 19 14.2239 19 14.5V18H20.793C21.2384 18 21.4614 18.5385 21.1465 18.8535L18.3535 21.6465C18.1583 21.8417 17.8417 21.8417 17.6465 21.6465L14.8535 18.8535C14.5387 18.5386 14.7617 18.0001 15.207 18H17V14.5C17 14.2239 17.2239 14 17.5 14H18.5Z" fill="black"/>
<path fill-rule="evenodd" clip-rule="evenodd" d="M8.75977 5L14.0195 19H11.5996L10.3398 15.4199H4.69043L3.41992 19H1L6.25977 5H8.75977ZM7.4502 7.59961L5.41992 13.3896H9.59961L7.57031 7.59961H7.4502Z" fill="black"/>
</svg>
