<svg width="24" height="24" viewBox="0 0 24 24" fill="none" xmlns="http://www.w3.org/2000/svg">
<path d="M10.725 13.275C11.2083 13.7583 11.8 14 12.5 14C13.2 14 13.7917 13.7583 14.275 13.275C14.7583 12.7917 15 12.2 15 11.5V6H17V4H13.5V9.2C13.3 9.11667 13.1167 9.0625 12.95 9.0375C12.7833 9.0125 12.6333 9 12.5 9C11.8 9 11.2083 9.24167 10.725 9.725C10.2417 10.2083 10 10.8 10 11.5C10 12.2 10.2417 12.7917 10.725 13.275Z" fill="black"/>
<path d="M2.725 17.275C3.20833 17.7583 3.8 18 4.5 18C5.2 18 5.79167 17.7583 6.275 17.275C6.75833 16.7917 7 16.2 7 15.5V10H9V8H5.5V13.2C5.3 13.1167 5.11667 13.0625 4.95 13.0375C4.78333 13.0125 4.63333 13 4.5 13C3.8 13 3.20833 13.2417 2.725 13.725C2.24167 14.2083 2 14.8 2 15.5C2 16.2 2.24167 16.7917 2.725 17.275Z" fill="black"/>
<path d="M19 18L20.7929 18C21.2383 18 21.4614 18.5386 21.1464 18.8536L18.3536 21.6464C18.1583 21.8417 17.8417 21.8417 17.6464 21.6464L14.8536 18.8536C14.5386 18.5386 14.7617 18 15.2071 18L17 18L17 14.5C17 14.2239 17.2239 14 17.5 14L18.5 14C18.7761 14 19 14.2239 19 14.5L19 18Z" fill="black"/>
</svg>
