<svg width="24" height="24" viewBox="0 0 24 24" fill="none" xmlns="http://www.w3.org/2000/svg">
<path d="M22 18H19V22H17V18H14L18 14L22 18Z" fill="black"/>
<path fill-rule="evenodd" clip-rule="evenodd" d="M17 2C17.5523 2 18 2.44772 18 3V4H19C20.1046 4 21 4.89543 21 6V12.5C21 13.0523 20.5523 13.5 20 13.5C19.4477 13.5 19 13.0523 19 12.5V10H5V19H12C12.5523 19 13 19.4477 13 20C13 20.5523 12.5523 21 12 21H5C3.89543 21 3 20.1046 3 19V6C3 4.89543 3.89543 4 5 4H6V3C6 2.44772 6.44772 2 7 2C7.55228 2 8 2.44772 8 3V4H16V3C16 2.44772 16.4477 2 17 2ZM5 8H19V6H5V8Z" fill="black"/>
</svg>
