<svg width="24" height="24" viewBox="0 0 24 24" fill="none" xmlns="http://www.w3.org/2000/svg">
<path d="M8.83033 1.46678C10.9699 0.822949 13.255 0.845509 15.3811 1.53221C17.5074 2.21901 19.374 3.53764 20.7327 5.31151C22.0913 7.08541 22.8784 9.23111 22.9876 11.4629C23.0144 12.0142 22.5887 12.4835 22.0374 12.5107C21.4858 12.5377 21.0166 12.1121 20.9895 11.5605C20.9002 9.73454 20.2564 7.9787 19.1448 6.52733C18.0332 5.0762 16.5063 3.99746 14.7669 3.43553C13.0272 2.87364 11.1571 2.85501 9.4065 3.38182C7.65608 3.90864 6.1076 4.95624 4.96705 6.38475C3.8265 7.81349 3.14771 9.55606 3.02174 11.3799C2.8958 13.2037 3.32859 15.0227 4.26197 16.5947C5.19531 18.1666 6.58489 19.4172 8.24635 20.1797C9.90782 20.9421 11.7625 21.1806 13.5628 20.8633C14.1066 20.7675 14.626 21.131 14.7219 21.6748C14.8175 22.2184 14.454 22.737 13.9104 22.833C11.71 23.221 9.44316 22.9299 7.41236 21.998C5.38164 21.0662 3.68305 19.5373 2.54224 17.6162C1.40144 15.6949 0.872695 13.4714 1.02662 11.2422C1.18056 9.01312 2.00964 6.88391 3.40357 5.13768C4.79762 3.39144 6.6907 2.11074 8.83033 1.46678Z" fill="black"/>
<path d="M17.6467 14.3535C17.842 14.1584 18.1586 14.1583 18.3538 14.3535L21.1467 17.1465C21.4614 17.4614 21.2384 17.9997 20.7932 18H19.0003V21.5C19.0003 21.776 18.7763 21.9999 18.5003 22H17.5003C17.2241 22 17.0003 21.7761 17.0003 21.5V18H15.2073C14.7619 17.9999 14.5389 17.4614 14.8538 17.1465L17.6467 14.3535Z" fill="black"/>
<path fill-rule="evenodd" clip-rule="evenodd" d="M12.0003 7.99998C14.2093 8.00011 16.0002 9.79093 16.0003 12C16.0003 14.209 14.2093 15.9999 12.0003 16C9.79111 16 8.00025 14.2091 8.00025 12C8.00026 9.79085 9.79112 7.99998 12.0003 7.99998ZM12.0003 11C11.448 11 11.0003 11.4477 11.0003 12C11.0003 12.5523 11.448 13 12.0003 13C12.5524 12.9999 13.0003 12.5522 13.0003 12C13.0002 11.4478 12.5524 11.0001 12.0003 11Z" fill="black"/>
</svg>
