<svg width="24" height="24" viewBox="0 0 24 24" fill="none" xmlns="http://www.w3.org/2000/svg">
<path d="M8.75977 5L14.0195 19H11.5996L10.3398 15.4199H4.69043L3.41992 19H1L6.25977 5H8.75977ZM18 8C18.5523 8 19 8.44772 19 9V11H21C21.5523 11 22 11.4477 22 12C22 12.5523 21.5523 13 21 13H19V15C19 15.5523 18.5523 16 18 16C17.4477 16 17 15.5523 17 15V13H15C14.4477 13 14 12.5523 14 12C14 11.4477 14.4477 11 15 11H17V9C17 8.44772 17.4477 8 18 8ZM7.4502 7.59961L5.41992 13.3896H9.59961L7.57031 7.59961H7.4502Z" fill="black"/>
</svg>
