<svg width="24" height="24" viewBox="0 0 24 24" fill="none" xmlns="http://www.w3.org/2000/svg">
<path d="M15.9999 3C17.6567 3 18.9999 4.34315 18.9999 6V18C18.9999 19.6569 17.6567 21 15.9999 21H3.99988C2.34303 21 0.999878 19.6569 0.999878 18V6C0.999878 4.34315 2.34303 3.00001 3.99988 3H15.9999ZM21.9999 5C22.5522 5 22.9999 5.44772 22.9999 6V18C22.9999 18.5523 22.5522 19 21.9999 19C21.4476 19 20.9999 18.5523 20.9999 18V6C20.9999 5.44772 21.4476 5 21.9999 5ZM9.49402 8.67188C8.6903 8.02643 7.49988 8.60146 7.49988 9.63477V14.3652C7.49988 15.3986 8.6903 15.9727 9.49402 15.3271L12.4384 12.9619C13.0526 12.4686 13.0526 11.5314 12.4384 11.0381L9.49402 8.67188Z" fill="black"/>
</svg>
