<svg width="24" height="24" viewBox="0 0 24 24" fill="none" xmlns="http://www.w3.org/2000/svg">
<path d="M16 4H4C2.89543 4 2 4.89543 2 6V18C2 19.1046 2.89543 20 4 20H16C17.1046 20 18 19.1046 18 18V6C18 4.89543 17.1046 4 16 4Z" stroke="black" stroke-width="2" stroke-linecap="round"/>
<path d="M8 13.9194V10.0806C8 9.24212 8.96993 8.77595 9.6247 9.29976L12.0239 11.2191C12.5243 11.6195 12.5243 12.3805 12.0239 12.7809L9.62469 14.7002C8.96993 15.2241 8 14.7579 8 13.9194Z" fill="black"/>
<path d="M22 6V18" stroke="black" stroke-width="2" stroke-linecap="round"/>
</svg>
