<svg width="24" height="24" viewBox="0 0 24 24" fill="none" xmlns="http://www.w3.org/2000/svg">
<path d="M13 9H11V14.5C11 15.2 10.7587 15.7921 10.2754 16.2754C9.79206 16.7587 9.2 17 8.5 17C7.8 17 7.20794 16.7587 6.72461 16.2754C6.24128 15.7921 6 15.2 6 14.5C6 13.8 6.24128 13.2079 6.72461 12.7246C7.20794 12.2413 7.8 12 8.5 12C8.63333 12 8.78353 12.0121 8.9502 12.0371C9.11683 12.0621 9.30005 12.1169 9.5 12.2002V7H13V9Z" fill="black"/>
<path fill-rule="evenodd" clip-rule="evenodd" d="M15 3C16.4031 3 17.5774 3.96429 17.9053 5.26562C20.8449 6.09561 23 8.79475 23 12C23 15.2047 20.8452 17.902 17.9062 18.7324C17.5791 20.0348 16.4039 21 15 21H3C1.34315 21 0 19.6569 0 18V6C8.05333e-09 4.34315 1.34315 3 3 3H15ZM3 5C2.44772 5 2 5.44772 2 6V18C2 18.5523 2.44772 19 3 19H15C15.5523 19 16 18.5523 16 18V6C16 5.44772 15.5523 5 15 5H3ZM18 10.043C18.4941 10.5478 18.7998 11.2377 18.7998 12C18.7998 12.762 18.4938 13.4512 18 13.9561V16.583C19.7657 15.8114 21 14.0502 21 12C21 9.94968 19.7659 8.18757 18 7.41602V10.043Z" fill="black"/>
</svg>
