<svg width="24" height="24" viewBox="0 0 24 24" fill="none" xmlns="http://www.w3.org/2000/svg">
<g clip-path="url(#clip0_2123_14107)">
<path d="M5.63602 5.63604C6.97996 4.2921 8.71486 3.40813 10.5921 3.1108C12.4693 2.81348 14.3924 3.11808 16.0859 3.98094C17.7794 4.8438 19.1562 6.22063 20.019 7.91409C20.8819 9.60754 21.1865 11.5307 20.8892 13.4079C20.5919 15.2851 19.7079 17.02 18.3639 18.364C17.02 19.7079 15.2851 20.5919 13.4079 20.8892C11.5307 21.1865 9.60753 20.8819 7.91407 20.0191C6.22061 19.1562 4.84379 17.7794 3.98093 16.0859" stroke="black" stroke-width="2" stroke-linecap="round"/>
<path d="M6.58579 9L3 9C2.44772 9 2 8.55229 2 8L2 4.41421C2 3.52331 3.07714 3.07714 3.70711 3.70711L7.29289 7.29289C7.92286 7.92286 7.47669 9 6.58579 9Z" fill="black"/>
</g>
<defs>
<clipPath id="clip0_2123_14107">
<rect width="24" height="24" fill="white"/>
</clipPath>
</defs>
</svg>
