<svg width="24" height="24" viewBox="0 0 24 24" fill="none" xmlns="http://www.w3.org/2000/svg">
<path d="M18 4H6C4.89543 4 4 4.89543 4 6V18C4 19.1046 4.89543 20 6 20H18C19.1046 20 20 19.1046 20 18V6C20 4.89543 19.1046 4 18 4Z" stroke="black" stroke-width="2" stroke-linecap="round"/>
<path d="M4.10767 14.8761L3.10767 14.8761L3.10767 15.6746L3.88632 15.8513L4.10767 14.8761ZM14.8821 4.10173L15.8573 3.88038L15.6805 3.10173L14.8821 3.10173L14.8821 4.10173ZM6.10767 15.1017L6.10767 14.1017C5.49752 14.1017 4.90273 14.0312 4.32901 13.9009L4.10767 14.8761L3.88632 15.8513C4.59939 16.0132 5.34264 16.1017 6.10767 16.1017L6.10767 15.1017ZM4.10767 14.8761L5.10767 14.8761L5.10767 6.10173L4.10767 6.10173L3.10767 6.10173L3.10767 14.8761L4.10767 14.8761ZM4.10767 6.10173L5.10767 6.10173C5.10767 5.54944 5.55538 5.10173 6.10767 5.10173L6.10767 4.10173L6.10767 3.10173C4.45081 3.10173 3.10767 4.44488 3.10767 6.10173L4.10767 6.10173ZM6.10767 4.10173L6.10767 5.10173L14.8821 5.10173L14.8821 4.10173L14.8821 3.10173L6.10767 3.10173L6.10767 4.10173ZM14.8821 4.10173L13.9069 4.32308C14.0371 4.89679 14.1077 5.49159 14.1077 6.10173L15.1077 6.10173L16.1077 6.10173C16.1077 5.3367 16.0191 4.59345 15.8573 3.88038L14.8821 4.10173ZM15.1077 6.10173L14.1077 6.10173C14.1077 10.52 10.5259 14.1017 6.10767 14.1017L6.10767 15.1017L6.10767 16.1017C11.6305 16.1017 16.1077 11.6246 16.1077 6.10173L15.1077 6.10173Z" fill="black"/>
<path d="M8.24835 4C8.77983 4.54128 9.10763 5.28322 9.10763 6.10173C9.10762 7.75859 7.76448 9.10173 6.10762 9.10173C5.28614 9.10173 4.54178 8.77155 4 8.23666" stroke="black" stroke-width="2"/>
<path d="M13.1077 17.1017L16.6077 17.1017C16.8838 17.1017 17.1077 16.8779 17.1077 16.6017L17.1077 13.1017" stroke="black" stroke-width="2" stroke-linecap="round"/>
</svg>
