<svg width="24" height="24" viewBox="0 0 24 24" fill="none" xmlns="http://www.w3.org/2000/svg">
<path d="M18 4H6C4.89543 4 4 4.89543 4 6V18C4 19.1046 4.89543 20 6 20H18C19.1046 20 20 19.1046 20 18V6C20 4.89543 19.1046 4 18 4Z" stroke="black" stroke-width="2" stroke-linecap="round"/>
<path d="M20 9.22559H21V8.42713L20.2213 8.25039L20 9.22559ZM9.22559 20L8.25039 20.2213L8.42713 21H9.22559V20ZM18 9V10C18.6101 10 19.2049 10.0706 19.7787 10.2008L20 9.22559L20.2213 8.25039C19.5083 8.08854 18.765 8 18 8V9ZM20 9.22559H19V18H20H21V9.22559H20ZM20 18H19C19 18.5523 18.5523 19 18 19V20V21C19.6569 21 21 19.6569 21 18H20ZM18 20V19H9.22559V20V21H18V20ZM9.22559 20L10.2008 19.7787C10.0706 19.2049 10 18.6101 10 18H9H8C8 18.765 8.08854 19.5083 8.25039 20.2213L9.22559 20ZM9 18H10C10 13.5817 13.5817 10 18 10V9V8C12.4772 8 8 12.4772 8 18H9Z" fill="black"/>
<path d="M15.8593 20.1017C15.3278 19.5605 15 18.8185 15 18C15 16.3431 16.3432 15 18 15C18.8215 15 19.5659 15.3302 20.1077 15.8651" stroke="black" stroke-width="2"/>
<path d="M11 7L7.5 7C7.22386 7 7 7.22386 7 7.5L7 11" stroke="black" stroke-width="2" stroke-linecap="round"/>
</svg>
