<svg width="24" height="24" viewBox="0 0 24 24" fill="none" xmlns="http://www.w3.org/2000/svg">
<path fill-rule="evenodd" clip-rule="evenodd" d="M20 13C21.1046 13 22 13.8954 22 15V20C22 21.1046 21.1046 22 20 22H4C2.89543 22 2 21.1046 2 20V15C2 13.8954 2.89543 13 4 13H20ZM11 20H20V15H11V20ZM4 20H9V15H4V20Z" fill="black"/>
<path fill-rule="evenodd" clip-rule="evenodd" d="M20 2C21.1046 2 22 2.89543 22 4V9C22 10.1046 21.1046 11 20 11H4C2.89543 11 2 10.1046 2 9V4C2 2.89543 2.89543 2 4 2H20ZM4 9H9V4H4V9ZM11 9H20V4H11V9Z" fill="black"/>
</svg>
