<svg width="24" height="24" viewBox="0 0 24 24" fill="none" xmlns="http://www.w3.org/2000/svg">
<path fill-rule="evenodd" clip-rule="evenodd" d="M20 16C21.1046 16 22 16.8954 22 18V20C22 21.1046 21.1046 22 20 22H4C2.89543 22 2 21.1046 2 20V18C2 16.8954 2.89543 16 4 16H20ZM4 20H20V18H4V20Z" fill="black"/>
<path fill-rule="evenodd" clip-rule="evenodd" d="M20 9C21.1046 9 22 9.89543 22 11V13C22 14.1046 21.1046 15 20 15H4C2.89543 15 2 14.1046 2 13V11C2 9.89543 2.89543 9 4 9H20ZM4 13H20V11H4V13Z" fill="black"/>
<path fill-rule="evenodd" clip-rule="evenodd" d="M20 2C21.1046 2 22 2.89543 22 4V6C22 7.10457 21.1046 8 20 8H4C2.89543 8 2 7.10457 2 6V4C2 2.89543 2.89543 2 4 2H20ZM4 6H20V4H4V6Z" fill="black"/>
</svg>
