<svg width="24" height="24" viewBox="0 0 24 24" fill="none" xmlns="http://www.w3.org/2000/svg">
<path d="M18 3C19.6569 3 21 4.34315 21 6V18C21 19.6569 19.6569 21 18 21H6C4.34315 21 3 19.6569 3 18V6C3 4.34315 4.34315 3 6 3H18ZM15.9492 5C15.9823 5.32865 16 5.66221 16 6C16 11.5228 11.5228 16 6 16C5.66199 16 5.32847 15.9816 5 15.9482V18C5 18.5523 5.44772 19 6 19H18C18.5523 19 19 18.5523 19 18V6C19 5.44772 18.5523 5 18 5H15.9492ZM16 14C17.1046 14 18 14.8954 18 16C18 17.1046 17.1046 18 16 18C14.8954 18 14 17.1046 14 16C14 14.8954 14.8954 14 16 14ZM9.87402 5C9.95635 5.31959 9.99999 5.65494 10 6C9.99987 8.20895 8.20895 9.99987 6 10C5.65486 9.99998 5.31965 9.95542 5 9.87305V13.9336C5.32832 13.9755 5.66174 14 6 14C10.4183 14 14 10.4183 14 6C14 5.66153 13.9761 5.32805 13.9346 5H9.87402ZM6 5C5.44772 5 5 5.44772 5 6V7.72949C5.29452 7.90004 5.63492 7.99996 6 8C7.10438 7.99987 7.99987 7.10438 8 6C7.99997 5.63508 7.90085 5.29443 7.73047 5H6Z" fill="black"/>
</svg>
