<svg width="24" height="24" viewBox="0 0 24 24" fill="none" xmlns="http://www.w3.org/2000/svg">
<path d="M18.9273 13C19.2033 13.4781 19.8154 13.6418 20.2935 13.3662C20.7718 13.0901 20.9359 12.4783 20.6598 12C19.7821 10.4799 18.5197 9.2175 16.9996 8.33984C15.4795 7.46227 13.7549 7 11.9996 7C10.2444 7.00008 8.51966 7.46224 6.9996 8.33984C5.47963 9.21751 4.21704 10.48 3.33944 12C3.06363 12.4782 3.22769 13.0901 3.70566 13.3662C4.18379 13.6421 4.79569 13.4779 5.07187 13C5.77389 11.7841 6.7838 10.7744 7.9996 10.0723C9.21562 9.3702 10.5955 9.00008 11.9996 9C13.4038 9 14.7835 9.37022 15.9996 10.0723C17.2156 10.7744 18.2252 11.784 18.9273 13ZM12.0006 17C13.6573 16.9998 15.0006 15.6567 15.0006 14C15.0004 12.3434 13.6572 11.0002 12.0006 11C10.3438 11 9.00071 12.3433 9.00058 14C9.00058 15.6569 10.3437 17 12.0006 17Z" fill="black"/>
<path d="M18.9273 13C19.2033 13.4781 19.8154 13.6418 20.2935 13.3662C20.7718 13.0901 20.9359 12.4783 20.6598 12C19.7821 10.4799 18.5197 9.2175 16.9996 8.33984C15.4795 7.46227 13.7549 7 11.9996 7C10.2444 7.00008 8.51966 7.46224 6.9996 8.33984C5.47963 9.21751 4.21704 10.48 3.33944 12C3.06363 12.4782 3.22769 13.0901 3.70566 13.3662C4.18379 13.6421 4.79569 13.4779 5.07187 13C5.77389 11.7841 6.7838 10.7744 7.9996 10.0723C9.21562 9.3702 10.5955 9.00008 11.9996 9C13.4038 9 14.7835 9.37022 15.9996 10.0723C17.2156 10.7744 18.2252 11.784 18.9273 13Z" fill="black"/>
<path d="M12.0006 17C13.6573 16.9998 15.0006 15.6567 15.0006 14C15.0004 12.3434 13.6572 11.0002 12.0006 11C10.3438 11 9.00071 12.3433 9.00058 14C9.00058 15.6569 10.3437 17 12.0006 17Z" fill="black"/>
</svg>
