<svg width="24" height="24" viewBox="0 0 24 24" fill="none" xmlns="http://www.w3.org/2000/svg">
<path d="M15.1953 3.52762C15.446 3.03553 16.0479 2.83939 16.54 3.09012C18.1832 3.92738 19.5628 5.20327 20.5264 6.77567C21.4898 8.34802 22 10.1562 22 12.0003C21.9999 13.8443 21.4898 15.6526 20.5264 17.2249C19.5628 18.7972 18.1832 20.0732 16.54 20.9104C16.048 21.161 15.4461 20.9648 15.1953 20.4729C14.9447 19.9809 15.1399 19.379 15.6318 19.1282C16.9463 18.4584 18.0504 17.4378 18.8213 16.18C19.592 14.9221 19.9999 13.4754 20 12.0003C20 10.5251 19.592 9.07844 18.8213 7.82059C18.0504 6.56266 16.9464 5.54216 15.6318 4.87235C15.1399 4.62167 14.9449 4.01964 15.1953 3.52762Z" fill="black"/>
<path fill-rule="evenodd" clip-rule="evenodd" d="M8.58594 5.00028C9.84584 3.74049 11.9999 4.63267 12 6.41434V17.5862C11.9997 19.3676 9.84579 20.2598 8.58594 19.0003L6.01465 16.429H4C2.89557 16.429 2.00023 15.5334 2 14.429V9.57157C2.00008 8.46706 2.89548 7.57157 4 7.57157H6.01465L8.58594 5.00028ZM7.42871 8.98563C7.05372 9.36055 6.54491 9.57149 6.01465 9.57157H4V14.429H6.01465C6.54498 14.4291 7.05371 14.6399 7.42871 15.0149L10 17.5862V6.41434L7.42871 8.98563Z" fill="black"/>
<path d="M14.1299 7.36747C14.4544 6.9208 15.0796 6.82152 15.5264 7.14579C16.2923 7.70232 16.9159 8.43304 17.3457 9.27665C17.7755 10.1202 18 11.0535 18 12.0003C18 12.947 17.7755 13.8804 17.3457 14.7239C16.9158 15.5675 16.2923 16.2983 15.5264 16.8548C15.0797 17.1789 14.4544 17.0796 14.1299 16.6331C13.8053 16.1863 13.9049 15.5612 14.3516 15.2366C14.8621 14.8657 15.2779 14.3789 15.5645 13.8167C15.851 13.2543 16 12.6314 16 12.0003C16 11.3691 15.851 10.7463 15.5645 10.1839C15.2779 9.62162 14.8621 9.13492 14.3516 8.76395C13.9048 8.43938 13.8054 7.81426 14.1299 7.36747Z" fill="black"/>
</svg>
