<svg width="24" height="24" viewBox="0 0 24 24" fill="none" xmlns="http://www.w3.org/2000/svg">
<path fill-rule="evenodd" clip-rule="evenodd" d="M8.58594 5.00011C9.84584 3.74032 11.9999 4.6325 12 6.41417V17.586C11.9998 19.3676 9.84582 20.2598 8.58594 19.0001L6.01465 16.4288H4C2.89551 16.4288 2.00014 15.5333 2 14.4288V9.5714C2.00008 8.46689 2.89548 7.5714 4 7.5714H6.01465L8.58594 5.00011ZM7.42871 8.98546C7.05371 9.36043 6.54495 9.57132 6.01465 9.5714H4V14.4288H6.01465C6.54498 14.4289 7.05371 14.6398 7.42871 15.0148L10 17.586V6.41417L7.42871 8.98546Z" fill="black"/>
<path d="M19.293 9.29308C19.6835 8.90255 20.3165 8.90255 20.707 9.29308C21.0975 9.68361 21.0975 10.3166 20.707 10.7071L19.4141 12.0001L20.707 13.2931C21.0975 13.6836 21.0975 14.3166 20.707 14.7071C20.3165 15.0976 19.6835 15.0976 19.293 14.7071L18 13.4142L16.707 14.7071C16.3165 15.0974 15.6834 15.0975 15.293 14.7071C14.9025 14.3167 14.9027 13.6836 15.293 13.2931L16.5859 12.0001L15.293 10.7071C14.9027 10.3166 14.9026 9.68352 15.293 9.29308C15.6834 8.90264 16.3165 8.90282 16.707 9.29308L18 10.586L19.293 9.29308Z" fill="black"/>
</svg>
