<svg width="24" height="24" viewBox="0 0 24 24" fill="none" xmlns="http://www.w3.org/2000/svg">
<path d="M12 3C12.5523 3 13 3.44772 13 4V20C13 20.5523 12.5523 21 12 21C11.4477 21 11 20.5523 11 20V4C11 3.44772 11.4477 3 12 3ZM22 5C22.5523 5 23 5.44772 23 6V18C23 18.5523 22.5523 19 22 19C21.4477 19 21 18.5523 21 18V6C21 5.44772 21.4477 5 22 5ZM2 7C2.55228 7 3 7.44772 3 8V16C3 16.5523 2.55228 17 2 17C1.44772 17 1 16.5523 1 16V8C1 7.44772 1.44772 7 2 7ZM17 7C17.5523 7 18 7.44772 18 8V16C18 16.5523 17.5523 17 17 17C16.4477 17 16 16.5523 16 16V8C16 7.44772 16.4477 7 17 7ZM7 9C7.55228 9 8 9.44772 8 10V14C8 14.5523 7.55228 15 7 15C6.44772 15 6 14.5523 6 14V10C6 9.44772 6.44772 9 7 9Z" fill="black"/>
</svg>
