<svg width="128" height="128" viewBox="0 0 128 128" fill="none" xmlns="http://www.w3.org/2000/svg">
<path d="M0 4C0 1.79086 1.79086 0 4 0H124C126.209 0 128 1.79086 128 4V124C128 126.209 126.209 128 124 128H4C1.79086 128 0 126.209 0 124V4Z" fill="black" fill-opacity="0.2"/>
<path fill-rule="evenodd" clip-rule="evenodd" d="M90.7803 64.2156C94.36 60.6363 100.163 60.6363 103.743 64.2156C107.322 67.7952 107.322 73.598 103.743 77.1778L88.6211 92.3028C86.9384 93.9855 84.7534 95.0812 82.3978 95.418L75.7412 96.3634L70.9001 97.058L72.5436 85.5639C72.838 83.5032 73.7102 81.573 75.0501 79.9958L75.6553 79.3406L90.7803 64.2156ZM98.5576 69.4005C97.8418 68.6851 96.681 68.6851 95.9652 69.4005L80.8402 84.5255L80.457 84.9766C80.1132 85.4546 79.8858 86.0137 79.8018 86.6023L79.5439 88.4141L81.3594 88.1563C82.1438 88.044 82.872 87.678 83.4326 87.1179L98.5576 71.9929C99.2732 71.2769 99.2734 70.1163 98.5576 69.4005Z" fill="black"/>
<path d="M56.6667 66.586C58.6917 66.586 60.3333 68.2276 60.3333 70.2527C60.3333 72.2777 58.6917 73.9193 56.6667 73.9193H34.6667C32.6416 73.9193 31 72.2777 31 70.2527C31 68.2276 32.6416 66.586 34.6667 66.586H56.6667Z" fill="black"/>
<path d="M71.3333 51.9194C73.3584 51.9194 75 53.561 75 55.586C75 57.6111 73.3584 59.2527 71.3333 59.2527H34.6667C32.6416 59.2527 31 57.6111 31 55.586C31 53.561 32.6416 51.9194 34.6667 51.9194H71.3333Z" fill="black"/>
<path d="M78.6667 37.2527C80.6917 37.2527 82.3333 38.8943 82.3333 40.9194C82.3333 42.9444 80.6917 44.586 78.6667 44.586H34.6667C32.6416 44.586 31 42.9444 31 40.9194C31 38.8943 32.6416 37.2527 34.6667 37.2527H78.6667Z" fill="black"/>
</svg>
